<svg width="368" height="405" viewBox="0 0 368 405" fill="none" xmlns="http://www.w3.org/2000/svg">
<g clip-path="url(#clip0)">
<rect width="368" height="405" fill="white"/>
<rect width="368" height="36" fill="#F1F1F1"/>
<path d="M35.0312 14.6641H32.3711V22H30.9004V14.6641H28.2637V13.4688H35.0312V14.6641ZM38.2832 22.1172C37.3809 22.1172 36.6484 21.834 36.0859 21.2676C35.5273 20.6973 35.248 19.9395 35.248 18.9941V18.8184C35.248 18.1855 35.3691 17.6211 35.6113 17.125C35.8574 16.625 36.2012 16.2363 36.6426 15.959C37.084 15.6816 37.5762 15.543 38.1191 15.543C38.9824 15.543 39.6484 15.8184 40.1172 16.3691C40.5898 16.9199 40.8262 17.6992 40.8262 18.707V19.2812H36.6836C36.7266 19.8047 36.9004 20.2188 37.2051 20.5234C37.5137 20.8281 37.9004 20.9805 38.3652 20.9805C39.0176 20.9805 39.5488 20.7168 39.959 20.1895L40.7266 20.9219C40.4727 21.3008 40.1328 21.5957 39.707 21.8066C39.2852 22.0137 38.8105 22.1172 38.2832 22.1172ZM38.1133 16.6855C37.7227 16.6855 37.4062 16.8223 37.1641 17.0957C36.9258 17.3691 36.7734 17.75 36.707 18.2383H39.4199V18.1328C39.3887 17.6562 39.2617 17.2969 39.0391 17.0547C38.8164 16.8086 38.5078 16.6855 38.1133 16.6855ZM44.2129 17.7461L45.4199 15.6602H47.002L45.0625 18.7832L47.0664 22H45.4961L44.2305 19.832L42.9707 22H41.3887L43.3926 18.7832L41.459 15.6602H43.0293L44.2129 17.7461ZM49.7559 14.1191V15.6602H50.875V16.7148H49.7559V20.2539C49.7559 20.4961 49.8027 20.6719 49.8965 20.7812C49.9941 20.8867 50.166 20.9395 50.4121 20.9395C50.5762 20.9395 50.7422 20.9199 50.9102 20.8809V21.9824C50.5859 22.0723 50.2734 22.1172 49.9727 22.1172C48.8789 22.1172 48.332 21.5137 48.332 20.3066V16.7148H47.2891V15.6602H48.332V14.1191H49.7559ZM61.6035 19.2227C61.5176 20.1328 61.1816 20.8438 60.5957 21.3555C60.0098 21.8633 59.2305 22.1172 58.2578 22.1172C57.5781 22.1172 56.9785 21.957 56.459 21.6367C55.9434 21.3125 55.5449 20.8535 55.2637 20.2598C54.9824 19.666 54.8359 18.9766 54.8242 18.1914V17.3945C54.8242 16.5898 54.9668 15.8809 55.252 15.2676C55.5371 14.6543 55.9453 14.1816 56.4766 13.8496C57.0117 13.5176 57.6289 13.3516 58.3281 13.3516C59.2695 13.3516 60.0273 13.6074 60.6016 14.1191C61.1758 14.6309 61.5098 15.3535 61.6035 16.2871H60.127C60.0566 15.6738 59.877 15.2324 59.5879 14.9629C59.3027 14.6895 58.8828 14.5527 58.3281 14.5527C57.6836 14.5527 57.1875 14.7891 56.8398 15.2617C56.4961 15.7305 56.3203 16.4199 56.3125 17.3301V18.0859C56.3125 19.0078 56.4766 19.7109 56.8047 20.1953C57.1367 20.6797 57.6211 20.9219 58.2578 20.9219C58.8398 20.9219 59.2773 20.791 59.5703 20.5293C59.8633 20.2676 60.0488 19.832 60.127 19.2227H61.6035ZM62.5293 18.7715C62.5293 18.1504 62.6523 17.5918 62.8984 17.0957C63.1445 16.5957 63.4902 16.2129 63.9355 15.9473C64.3809 15.6777 64.8926 15.543 65.4707 15.543C66.3262 15.543 67.0195 15.8184 67.5508 16.3691C68.0859 16.9199 68.375 17.6504 68.418 18.5605L68.4238 18.8945C68.4238 19.5195 68.3027 20.0781 68.0605 20.5703C67.8223 21.0625 67.4785 21.4434 67.0293 21.7129C66.584 21.9824 66.0684 22.1172 65.4824 22.1172C64.5879 22.1172 63.8711 21.8203 63.332 21.2266C62.7969 20.6289 62.5293 19.834 62.5293 18.8418V18.7715ZM63.9531 18.8945C63.9531 19.5469 64.0879 20.0586 64.3574 20.4297C64.627 20.7969 65.002 20.9805 65.4824 20.9805C65.9629 20.9805 66.3359 20.793 66.6016 20.418C66.8711 20.043 67.0059 19.4941 67.0059 18.7715C67.0059 18.1309 66.8672 17.623 66.5898 17.248C66.3164 16.873 65.9434 16.6855 65.4707 16.6855C65.0059 16.6855 64.6367 16.8711 64.3633 17.2422C64.0898 17.6094 63.9531 18.1602 63.9531 18.8945ZM70.9668 15.6602L71.0078 16.3223C71.4531 15.8027 72.0625 15.543 72.8359 15.543C73.6836 15.543 74.2637 15.8672 74.5762 16.5156C75.0371 15.8672 75.6855 15.543 76.5215 15.543C77.2207 15.543 77.7402 15.7363 78.0801 16.123C78.4238 16.5098 78.5996 17.0801 78.6074 17.834V22H77.1836V17.875C77.1836 17.4727 77.0957 17.1777 76.9199 16.9902C76.7441 16.8027 76.4531 16.709 76.0469 16.709C75.7227 16.709 75.457 16.7969 75.25 16.9727C75.0469 17.1445 74.9043 17.3711 74.8223 17.6523L74.8281 22H73.4043V17.8281C73.3848 17.082 73.0039 16.709 72.2617 16.709C71.6914 16.709 71.2871 16.9414 71.0488 17.4062V22H69.625V15.6602H70.9668ZM85.6211 18.8945C85.6211 19.875 85.3984 20.6582 84.9531 21.2441C84.5078 21.8262 83.9102 22.1172 83.1602 22.1172C82.4648 22.1172 81.9082 21.8887 81.4902 21.4316V24.4375H80.0664V15.6602H81.3789L81.4375 16.3047C81.8555 15.7969 82.4238 15.543 83.1426 15.543C83.916 15.543 84.5215 15.832 84.959 16.4102C85.4004 16.9844 85.6211 17.7832 85.6211 18.8066V18.8945ZM84.2031 18.7715C84.2031 18.1387 84.0762 17.6367 83.8223 17.2656C83.5723 16.8945 83.2129 16.709 82.7441 16.709C82.1621 16.709 81.7441 16.9492 81.4902 17.4297V20.2422C81.748 20.7344 82.1699 20.9805 82.7559 20.9805C83.209 20.9805 83.5625 20.7988 83.8164 20.4355C84.0742 20.0684 84.2031 19.5137 84.2031 18.7715ZM86.5645 18.7715C86.5645 18.1504 86.6875 17.5918 86.9336 17.0957C87.1797 16.5957 87.5254 16.2129 87.9707 15.9473C88.416 15.6777 88.9277 15.543 89.5059 15.543C90.3613 15.543 91.0547 15.8184 91.5859 16.3691C92.1211 16.9199 92.4102 17.6504 92.4531 18.5605L92.459 18.8945C92.459 19.5195 92.3379 20.0781 92.0957 20.5703C91.8574 21.0625 91.5137 21.4434 91.0645 21.7129C90.6191 21.9824 90.1035 22.1172 89.5176 22.1172C88.623 22.1172 87.9062 21.8203 87.3672 21.2266C86.832 20.6289 86.5645 19.834 86.5645 18.8418V18.7715ZM87.9883 18.8945C87.9883 19.5469 88.123 20.0586 88.3926 20.4297C88.6621 20.7969 89.0371 20.9805 89.5176 20.9805C89.998 20.9805 90.3711 20.793 90.6367 20.418C90.9062 20.043 91.041 19.4941 91.041 18.7715C91.041 18.1309 90.9023 17.623 90.625 17.248C90.3516 16.873 89.9785 16.6855 89.5059 16.6855C89.041 16.6855 88.6719 16.8711 88.3984 17.2422C88.125 17.6094 87.9883 18.1602 87.9883 18.8945ZM94.9844 15.6602L95.0254 16.3926C95.4941 15.8262 96.1094 15.543 96.8711 15.543C98.1914 15.543 98.8633 16.2988 98.8867 17.8105V22H97.4629V17.8926C97.4629 17.4902 97.375 17.1934 97.1992 17.002C97.0273 16.8066 96.7441 16.709 96.3496 16.709C95.7754 16.709 95.3477 16.9688 95.0664 17.4883V22H93.6426V15.6602H94.9844ZM103.135 22.1172C102.232 22.1172 101.5 21.834 100.938 21.2676C100.379 20.6973 100.1 19.9395 100.1 18.9941V18.8184C100.1 18.1855 100.221 17.6211 100.463 17.125C100.709 16.625 101.053 16.2363 101.494 15.959C101.936 15.6816 102.428 15.543 102.971 15.543C103.834 15.543 104.5 15.8184 104.969 16.3691C105.441 16.9199 105.678 17.6992 105.678 18.707V19.2812H101.535C101.578 19.8047 101.752 20.2188 102.057 20.5234C102.365 20.8281 102.752 20.9805 103.217 20.9805C103.869 20.9805 104.4 20.7168 104.811 20.1895L105.578 20.9219C105.324 21.3008 104.984 21.5957 104.559 21.8066C104.137 22.0137 103.662 22.1172 103.135 22.1172ZM102.965 16.6855C102.574 16.6855 102.258 16.8223 102.016 17.0957C101.777 17.3691 101.625 17.75 101.559 18.2383H104.271V18.1328C104.24 17.6562 104.113 17.2969 103.891 17.0547C103.668 16.8086 103.359 16.6855 102.965 16.6855ZM108.109 15.6602L108.15 16.3926C108.619 15.8262 109.234 15.543 109.996 15.543C111.316 15.543 111.988 16.2988 112.012 17.8105V22H110.588V17.8926C110.588 17.4902 110.5 17.1934 110.324 17.002C110.152 16.8066 109.869 16.709 109.475 16.709C108.9 16.709 108.473 16.9688 108.191 17.4883V22H106.768V15.6602H108.109ZM115.252 14.1191V15.6602H116.371V16.7148H115.252V20.2539C115.252 20.4961 115.299 20.6719 115.393 20.7812C115.49 20.8867 115.662 20.9395 115.908 20.9395C116.072 20.9395 116.238 20.9199 116.406 20.8809V21.9824C116.082 22.0723 115.77 22.1172 115.469 22.1172C114.375 22.1172 113.828 21.5137 113.828 20.3066V16.7148H112.785V15.6602H113.828V14.1191H115.252ZM128.436 18.3613H120.479V17.2129H128.436V18.3613ZM139.633 22H138.156V18.209H134.342V22H132.859V13.4688H134.342V17.0195H138.156V13.4688H139.633V22ZM142.768 22H141.344V15.6602H142.768V22ZM141.256 14.0137C141.256 13.7949 141.324 13.6133 141.461 13.4688C141.602 13.3242 141.801 13.252 142.059 13.252C142.316 13.252 142.516 13.3242 142.656 13.4688C142.797 13.6133 142.867 13.7949 142.867 14.0137C142.867 14.2285 142.797 14.4082 142.656 14.5527C142.516 14.6934 142.316 14.7637 142.059 14.7637C141.801 14.7637 141.602 14.6934 141.461 14.5527C141.324 14.4082 141.256 14.2285 141.256 14.0137ZM145.645 15.6602L145.686 16.3926C146.154 15.8262 146.77 15.543 147.531 15.543C148.852 15.543 149.523 16.2988 149.547 17.8105V22H148.123V17.8926C148.123 17.4902 148.035 17.1934 147.859 17.002C147.688 16.8066 147.404 16.709 147.01 16.709C146.436 16.709 146.008 16.9688 145.727 17.4883V22H144.303V15.6602H145.645ZM152.787 14.1191V15.6602H153.906V16.7148H152.787V20.2539C152.787 20.4961 152.834 20.6719 152.928 20.7812C153.025 20.8867 153.197 20.9395 153.443 20.9395C153.607 20.9395 153.773 20.9199 153.941 20.8809V21.9824C153.617 22.0723 153.305 22.1172 153.004 22.1172C151.91 22.1172 151.363 21.5137 151.363 20.3066V16.7148H150.32V15.6602H151.363V14.1191H152.787Z" fill="black"/>
<rect y="164" width="368" height="241" fill="white"/>
<path d="M67.84 194.856V205H69.36V194.856H73.168V193.576H64.032V194.856H67.84ZM78.1743 200.072H73.4223C73.4436 199.752 73.5129 199.453 73.6303 199.176C73.7476 198.888 73.9076 198.637 74.1103 198.424C74.3129 198.211 74.5529 198.045 74.8303 197.928C75.1183 197.8 75.4383 197.736 75.7903 197.736C76.1316 197.736 76.4409 197.8 76.7183 197.928C77.0063 198.045 77.2516 198.211 77.4543 198.424C77.6676 198.627 77.8329 198.872 77.9503 199.16C78.0783 199.448 78.1529 199.752 78.1743 200.072ZM79.4862 202.376H78.1423C78.0249 202.92 77.7796 203.325 77.4063 203.592C77.0436 203.859 76.5743 203.992 75.9983 203.992C75.5503 203.992 75.1609 203.917 74.8303 203.768C74.4996 203.619 74.2276 203.421 74.0143 203.176C73.8009 202.92 73.6463 202.632 73.5503 202.312C73.4543 201.981 73.4116 201.635 73.4223 201.272H79.6143C79.6356 200.771 79.5876 200.243 79.4703 199.688C79.3636 199.133 79.1609 198.621 78.8623 198.152C78.5743 197.683 78.1849 197.299 77.6943 197C77.2143 196.691 76.6063 196.536 75.8703 196.536C75.3049 196.536 74.7823 196.643 74.3023 196.856C73.8329 197.069 73.4223 197.368 73.0703 197.752C72.7289 198.136 72.4623 198.589 72.2703 199.112C72.0783 199.635 71.9823 200.211 71.9823 200.84C72.0036 201.469 72.0943 202.051 72.2543 202.584C72.4249 203.117 72.6756 203.576 73.0063 203.96C73.3369 204.344 73.7423 204.643 74.2223 204.856C74.7129 205.069 75.2889 205.176 75.9503 205.176C76.8889 205.176 77.6676 204.941 78.2863 204.472C78.9049 204.003 79.3049 203.304 79.4862 202.376ZM83.248 200.648L80.144 205H81.792L84.096 201.576L86.4 205H88.144L84.944 200.536L87.792 196.728H86.16L84.096 199.624L82.112 196.728H80.368L83.248 200.648ZM91.1933 196.728V194.248H89.8333V196.728H88.4253V197.928H89.8333V203.192C89.8333 203.576 89.8706 203.885 89.9453 204.12C90.0199 204.355 90.1319 204.536 90.2812 204.664C90.4413 204.792 90.6439 204.883 90.8893 204.936C91.1453 204.979 91.4493 205 91.8013 205H92.8413V203.8H92.2173C92.0039 203.8 91.8279 203.795 91.6893 203.784C91.5613 203.763 91.4599 203.725 91.3853 203.672C91.3106 203.619 91.2573 203.544 91.2253 203.448C91.2039 203.352 91.1933 203.224 91.1933 203.064V197.928H92.8413V196.728H91.1933ZM97.7761 193.304L93.0561 205.256H94.2081L98.9441 193.304H97.7761ZM99.9043 193.576V205H101.424V199.768H107.44V205H108.96V193.576H107.44V198.488H101.424V193.576H99.9043ZM112.667 195.24V193.576H111.307V195.24H112.667ZM111.307 196.728V205H112.667V196.728H111.307ZM114.774 196.728V205H116.134V200.328C116.134 199.955 116.182 199.613 116.278 199.304C116.385 198.984 116.539 198.707 116.742 198.472C116.945 198.237 117.195 198.056 117.494 197.928C117.803 197.8 118.166 197.736 118.582 197.736C119.105 197.736 119.515 197.885 119.814 198.184C120.113 198.483 120.262 198.888 120.262 199.4V205H121.622V199.56C121.622 199.112 121.574 198.707 121.478 198.344C121.393 197.971 121.238 197.651 121.014 197.384C120.79 197.117 120.497 196.909 120.134 196.76C119.771 196.611 119.318 196.536 118.774 196.536C117.547 196.536 116.651 197.037 116.086 198.04H116.054V196.728H114.774ZM125.553 196.728V194.248H124.193V196.728H122.785V197.928H124.193V203.192C124.193 203.576 124.23 203.885 124.305 204.12C124.379 204.355 124.491 204.536 124.641 204.664C124.801 204.792 125.003 204.883 125.249 204.936C125.505 204.979 125.809 205 126.161 205H127.201V203.8H126.577C126.363 203.8 126.187 203.795 126.049 203.784C125.921 203.763 125.819 203.725 125.745 203.672C125.67 203.619 125.617 203.544 125.585 203.448C125.563 203.352 125.553 203.224 125.553 203.064V197.928H127.201V196.728H125.553Z" fill="#262626"/>
<path d="M31.486 201.136L32.788 197.468H32.816L34.076 201.136H31.486ZM31.696 195.004L27.916 205H30.128L30.912 202.774H34.65L35.406 205H37.688L33.95 195.004H31.696ZM41.714 203.292C41.406 203.292 41.1493 203.227 40.944 203.096C40.7387 202.965 40.5707 202.797 40.44 202.592C40.3187 202.387 40.23 202.158 40.174 201.906C40.1273 201.645 40.104 201.383 40.104 201.122C40.104 200.851 40.132 200.595 40.188 200.352C40.2533 200.1 40.3513 199.881 40.482 199.694C40.622 199.498 40.79 199.344 40.986 199.232C41.1913 199.12 41.434 199.064 41.714 199.064C42.0407 199.064 42.3113 199.125 42.526 199.246C42.7407 199.367 42.9133 199.531 43.044 199.736C43.1747 199.941 43.268 200.179 43.324 200.45C43.38 200.711 43.408 200.991 43.408 201.29C43.408 201.551 43.3707 201.803 43.296 202.046C43.2307 202.279 43.128 202.489 42.988 202.676C42.848 202.863 42.6707 203.012 42.456 203.124C42.2413 203.236 41.994 203.292 41.714 203.292ZM45.298 204.538V197.762H43.408V198.728H43.38C43.1373 198.308 42.834 198.009 42.47 197.832C42.1153 197.655 41.7 197.566 41.224 197.566C40.72 197.566 40.272 197.664 39.88 197.86C39.4973 198.056 39.1753 198.322 38.914 198.658C38.6527 198.985 38.452 199.367 38.312 199.806C38.1813 200.235 38.116 200.683 38.116 201.15C38.116 201.645 38.172 202.116 38.284 202.564C38.4053 203.003 38.592 203.39 38.844 203.726C39.096 204.053 39.418 204.314 39.81 204.51C40.202 204.697 40.6687 204.79 41.21 204.79C41.6487 204.79 42.064 204.701 42.456 204.524C42.8573 204.337 43.1653 204.053 43.38 203.67H43.408V204.622C43.4173 205.135 43.2913 205.56 43.03 205.896C42.778 206.232 42.372 206.4 41.812 206.4C41.4573 206.4 41.1447 206.325 40.874 206.176C40.6033 206.036 40.4213 205.779 40.328 205.406H38.354C38.382 205.817 38.494 206.167 38.69 206.456C38.8953 206.755 39.1473 206.997 39.446 207.184C39.754 207.371 40.09 207.506 40.454 207.59C40.8273 207.683 41.1913 207.73 41.546 207.73C42.3767 207.73 43.0393 207.618 43.534 207.394C44.0287 207.17 44.4067 206.895 44.668 206.568C44.9293 206.251 45.0973 205.905 45.172 205.532C45.256 205.159 45.298 204.827 45.298 204.538Z" fill="#262626"/>
<path d="M70.64 243.384H72.048C71.9947 242.893 71.8667 242.472 71.664 242.12C71.4613 241.757 71.2 241.459 70.88 241.224C70.5707 240.989 70.208 240.819 69.792 240.712C69.3867 240.595 68.9493 240.536 68.48 240.536C67.8293 240.536 67.2587 240.653 66.768 240.888C66.2773 241.112 65.8667 241.427 65.536 241.832C65.216 242.227 64.976 242.696 64.816 243.24C64.656 243.773 64.576 244.349 64.576 244.968C64.576 245.587 64.656 246.157 64.816 246.68C64.9867 247.192 65.232 247.635 65.552 248.008C65.8827 248.381 66.288 248.669 66.768 248.872C67.2587 249.075 67.8187 249.176 68.448 249.176C69.504 249.176 70.336 248.899 70.944 248.344C71.5627 247.789 71.9467 247 72.096 245.976H70.704C70.6187 246.616 70.384 247.112 70 247.464C69.6267 247.816 69.104 247.992 68.432 247.992C68.0053 247.992 67.6373 247.907 67.328 247.736C67.0187 247.565 66.768 247.341 66.576 247.064C66.384 246.776 66.24 246.451 66.144 246.088C66.0587 245.725 66.016 245.352 66.016 244.968C66.016 244.552 66.0587 244.152 66.144 243.768C66.2293 243.373 66.368 243.027 66.56 242.728C66.7627 242.429 67.0293 242.189 67.36 242.008C67.6907 241.827 68.1013 241.736 68.592 241.736C69.168 241.736 69.6267 241.88 69.968 242.168C70.3093 242.456 70.5333 242.861 70.64 243.384ZM74.6098 244.872C74.6098 244.371 74.6738 243.928 74.8018 243.544C74.9404 243.149 75.1271 242.819 75.3618 242.552C75.5964 242.285 75.8684 242.083 76.1778 241.944C76.4978 241.805 76.8338 241.736 77.1858 241.736C77.5378 241.736 77.8684 241.805 78.1778 241.944C78.4978 242.083 78.7751 242.285 79.0098 242.552C79.2444 242.819 79.4258 243.149 79.5538 243.544C79.6924 243.928 79.7618 244.371 79.7618 244.872C79.7618 245.373 79.6924 245.821 79.5538 246.216C79.4258 246.6 79.2444 246.925 79.0098 247.192C78.7751 247.448 78.4978 247.645 78.1778 247.784C77.8684 247.923 77.5378 247.992 77.1858 247.992C76.8338 247.992 76.4978 247.923 76.1778 247.784C75.8684 247.645 75.5964 247.448 75.3618 247.192C75.1271 246.925 74.9404 246.6 74.8018 246.216C74.6738 245.821 74.6098 245.373 74.6098 244.872ZM73.1698 244.872C73.1698 245.48 73.2551 246.045 73.4258 246.568C73.5964 247.091 73.8524 247.549 74.1938 247.944C74.5351 248.328 74.9564 248.632 75.4578 248.856C75.9591 249.069 76.5351 249.176 77.1858 249.176C77.8471 249.176 78.4231 249.069 78.9138 248.856C79.4151 248.632 79.8364 248.328 80.1778 247.944C80.5191 247.549 80.7751 247.091 80.9458 246.568C81.1164 246.045 81.2018 245.48 81.2018 244.872C81.2018 244.264 81.1164 243.699 80.9458 243.176C80.7751 242.643 80.5191 242.184 80.1778 241.8C79.8364 241.405 79.4151 241.096 78.9138 240.872C78.4231 240.648 77.8471 240.536 77.1858 240.536C76.5351 240.536 75.9591 240.648 75.4578 240.872C74.9564 241.096 74.5351 241.405 74.1938 241.8C73.8524 242.184 73.5964 242.643 73.4258 243.176C73.2551 243.699 73.1698 244.264 73.1698 244.872ZM82.8853 237.576V249H84.2453V237.576H82.8853ZM87.3441 244.872C87.3441 244.371 87.4081 243.928 87.5361 243.544C87.6748 243.149 87.8615 242.819 88.0961 242.552C88.3308 242.285 88.6028 242.083 88.9121 241.944C89.2321 241.805 89.5681 241.736 89.9201 241.736C90.2721 241.736 90.6028 241.805 90.9121 241.944C91.2321 242.083 91.5095 242.285 91.7441 242.552C91.9788 242.819 92.1601 243.149 92.2881 243.544C92.4268 243.928 92.4961 244.371 92.4961 244.872C92.4961 245.373 92.4268 245.821 92.2881 246.216C92.1601 246.6 91.9788 246.925 91.7441 247.192C91.5095 247.448 91.2321 247.645 90.9121 247.784C90.6028 247.923 90.2721 247.992 89.9201 247.992C89.5681 247.992 89.2321 247.923 88.9121 247.784C88.6028 247.645 88.3308 247.448 88.0961 247.192C87.8615 246.925 87.6748 246.6 87.5361 246.216C87.4081 245.821 87.3441 245.373 87.3441 244.872ZM85.9041 244.872C85.9041 245.48 85.9895 246.045 86.1601 246.568C86.3308 247.091 86.5868 247.549 86.9281 247.944C87.2695 248.328 87.6908 248.632 88.1921 248.856C88.6935 249.069 89.2695 249.176 89.9201 249.176C90.5815 249.176 91.1575 249.069 91.6481 248.856C92.1495 248.632 92.5708 248.328 92.9121 247.944C93.2535 247.549 93.5095 247.091 93.6801 246.568C93.8508 246.045 93.9361 245.48 93.9361 244.872C93.9361 244.264 93.8508 243.699 93.6801 243.176C93.5095 242.643 93.2535 242.184 92.9121 241.8C92.5708 241.405 92.1495 241.096 91.6481 240.872C91.1575 240.648 90.5815 240.536 89.9201 240.536C89.2695 240.536 88.6935 240.648 88.1921 240.872C87.6908 241.096 87.2695 241.405 86.9281 241.8C86.5868 242.184 86.3308 242.643 86.1601 243.176C85.9895 243.699 85.9041 244.264 85.9041 244.872ZM95.4916 240.728V249H96.8516V245.32C96.8516 244.787 96.905 244.317 97.0116 243.912C97.1183 243.496 97.289 243.144 97.5236 242.856C97.7583 242.568 98.0676 242.349 98.4516 242.2C98.8356 242.051 99.2996 241.976 99.8436 241.976V240.536C99.1076 240.515 98.4996 240.664 98.0196 240.984C97.5396 241.304 97.1343 241.8 96.8036 242.472H96.7716V240.728H95.4916ZM101.7 246.392H100.34C100.361 246.904 100.468 247.341 100.66 247.704C100.852 248.056 101.108 248.344 101.428 248.568C101.748 248.781 102.116 248.936 102.532 249.032C102.948 249.128 103.385 249.176 103.844 249.176C104.26 249.176 104.676 249.133 105.092 249.048C105.518 248.973 105.897 248.835 106.228 248.632C106.569 248.429 106.841 248.163 107.044 247.832C107.257 247.501 107.364 247.085 107.364 246.584C107.364 246.189 107.284 245.859 107.124 245.592C106.974 245.325 106.772 245.107 106.516 244.936C106.27 244.755 105.982 244.611 105.652 244.504C105.332 244.397 105.001 244.307 104.66 244.232C104.34 244.157 104.02 244.088 103.7 244.024C103.38 243.949 103.092 243.864 102.836 243.768C102.58 243.661 102.366 243.533 102.196 243.384C102.036 243.224 101.956 243.027 101.956 242.792C101.956 242.579 102.009 242.408 102.116 242.28C102.222 242.141 102.361 242.035 102.532 241.96C102.702 241.875 102.889 241.816 103.092 241.784C103.305 241.752 103.513 241.736 103.716 241.736C103.94 241.736 104.158 241.763 104.372 241.816C104.596 241.859 104.798 241.933 104.98 242.04C105.161 242.147 105.31 242.291 105.428 242.472C105.545 242.643 105.614 242.861 105.636 243.128H106.996C106.964 242.627 106.857 242.211 106.676 241.88C106.494 241.539 106.249 241.272 105.94 241.08C105.641 240.877 105.294 240.739 104.9 240.664C104.505 240.579 104.073 240.536 103.604 240.536C103.241 240.536 102.873 240.584 102.5 240.68C102.137 240.765 101.806 240.904 101.508 241.096C101.22 241.277 100.98 241.517 100.788 241.816C100.606 242.115 100.516 242.472 100.516 242.888C100.516 243.421 100.649 243.837 100.916 244.136C101.182 244.435 101.513 244.669 101.908 244.84C102.313 245 102.75 245.128 103.22 245.224C103.689 245.309 104.121 245.411 104.516 245.528C104.921 245.635 105.257 245.779 105.524 245.96C105.79 246.141 105.924 246.408 105.924 246.76C105.924 247.016 105.86 247.229 105.732 247.4C105.604 247.56 105.438 247.683 105.236 247.768C105.044 247.853 104.83 247.912 104.596 247.944C104.361 247.976 104.137 247.992 103.924 247.992C103.646 247.992 103.374 247.965 103.108 247.912C102.852 247.859 102.617 247.773 102.404 247.656C102.201 247.528 102.036 247.363 101.908 247.16C101.78 246.947 101.71 246.691 101.7 246.392ZM112.292 237.304L107.572 249.256H108.724L113.46 237.304H112.292ZM116.084 240.728V238.248H114.724V240.728H113.316V241.928H114.724V247.192C114.724 247.576 114.761 247.885 114.836 248.12C114.911 248.355 115.023 248.536 115.172 248.664C115.332 248.792 115.535 248.883 115.78 248.936C116.036 248.979 116.34 249 116.692 249H117.732V247.8H117.108C116.895 247.8 116.719 247.795 116.58 247.784C116.452 247.763 116.351 247.725 116.276 247.672C116.201 247.619 116.148 247.544 116.116 247.448C116.095 247.352 116.084 247.224 116.084 247.064V241.928H117.732V240.728H116.084ZM124.987 244.072H120.235C120.256 243.752 120.325 243.453 120.443 243.176C120.56 242.888 120.72 242.637 120.923 242.424C121.125 242.211 121.365 242.045 121.643 241.928C121.931 241.8 122.251 241.736 122.603 241.736C122.944 241.736 123.253 241.8 123.531 241.928C123.819 242.045 124.064 242.211 124.267 242.424C124.48 242.627 124.645 242.872 124.763 243.16C124.891 243.448 124.965 243.752 124.987 244.072ZM126.299 246.376H124.955C124.837 246.92 124.592 247.325 124.219 247.592C123.856 247.859 123.387 247.992 122.811 247.992C122.363 247.992 121.973 247.917 121.643 247.768C121.312 247.619 121.04 247.421 120.827 247.176C120.613 246.92 120.459 246.632 120.363 246.312C120.267 245.981 120.224 245.635 120.235 245.272H126.427C126.448 244.771 126.4 244.243 126.283 243.688C126.176 243.133 125.973 242.621 125.675 242.152C125.387 241.683 124.997 241.299 124.507 241C124.027 240.691 123.419 240.536 122.683 240.536C122.117 240.536 121.595 240.643 121.115 240.856C120.645 241.069 120.235 241.368 119.883 241.752C119.541 242.136 119.275 242.589 119.083 243.112C118.891 243.635 118.795 244.211 118.795 244.84C118.816 245.469 118.907 246.051 119.067 246.584C119.237 247.117 119.488 247.576 119.819 247.96C120.149 248.344 120.555 248.643 121.035 248.856C121.525 249.069 122.101 249.176 122.763 249.176C123.701 249.176 124.48 248.941 125.099 248.472C125.717 248.003 126.117 247.304 126.299 246.376ZM130.061 244.648L126.957 249H128.605L130.909 245.576L133.213 249H134.957L131.757 244.536L134.605 240.728H132.973L130.909 243.624L128.924 240.728H127.181L130.061 244.648ZM138.006 240.728V238.248H136.646V240.728H135.238V241.928H136.646V247.192C136.646 247.576 136.683 247.885 136.758 248.12C136.832 248.355 136.944 248.536 137.094 248.664C137.254 248.792 137.456 248.883 137.702 248.936C137.958 248.979 138.262 249 138.614 249H139.654V247.8H139.03C138.816 247.8 138.64 247.795 138.502 247.784C138.374 247.763 138.272 247.725 138.198 247.672C138.123 247.619 138.07 247.544 138.038 247.448C138.016 247.352 138.006 247.224 138.006 247.064V241.928H139.654V240.728H138.006ZM144.589 237.304L139.869 249.256H141.021L145.757 237.304H144.589ZM147.325 246.392H145.965C145.986 246.904 146.093 247.341 146.285 247.704C146.477 248.056 146.733 248.344 147.053 248.568C147.373 248.781 147.741 248.936 148.157 249.032C148.573 249.128 149.01 249.176 149.469 249.176C149.885 249.176 150.301 249.133 150.717 249.048C151.143 248.973 151.522 248.835 151.853 248.632C152.194 248.429 152.466 248.163 152.669 247.832C152.882 247.501 152.989 247.085 152.989 246.584C152.989 246.189 152.909 245.859 152.749 245.592C152.599 245.325 152.397 245.107 152.141 244.936C151.895 244.755 151.607 244.611 151.277 244.504C150.957 244.397 150.626 244.307 150.285 244.232C149.965 244.157 149.645 244.088 149.325 244.024C149.005 243.949 148.717 243.864 148.461 243.768C148.205 243.661 147.991 243.533 147.821 243.384C147.661 243.224 147.581 243.027 147.581 242.792C147.581 242.579 147.634 242.408 147.741 242.28C147.847 242.141 147.986 242.035 148.157 241.96C148.327 241.875 148.514 241.816 148.717 241.784C148.93 241.752 149.138 241.736 149.341 241.736C149.565 241.736 149.783 241.763 149.997 241.816C150.221 241.859 150.423 241.933 150.605 242.04C150.786 242.147 150.935 242.291 151.053 242.472C151.17 242.643 151.239 242.861 151.261 243.128H152.621C152.589 242.627 152.482 242.211 152.301 241.88C152.119 241.539 151.874 241.272 151.565 241.08C151.266 240.877 150.919 240.739 150.525 240.664C150.13 240.579 149.698 240.536 149.229 240.536C148.866 240.536 148.498 240.584 148.125 240.68C147.762 240.765 147.431 240.904 147.133 241.096C146.845 241.277 146.605 241.517 146.413 241.816C146.231 242.115 146.141 242.472 146.141 242.888C146.141 243.421 146.274 243.837 146.541 244.136C146.807 244.435 147.138 244.669 147.533 244.84C147.938 245 148.375 245.128 148.845 245.224C149.314 245.309 149.746 245.411 150.141 245.528C150.546 245.635 150.882 245.779 151.149 245.96C151.415 246.141 151.549 246.408 151.549 246.76C151.549 247.016 151.485 247.229 151.357 247.4C151.229 247.56 151.063 247.683 150.861 247.768C150.669 247.853 150.455 247.912 150.221 247.944C149.986 247.976 149.762 247.992 149.549 247.992C149.271 247.992 148.999 247.965 148.733 247.912C148.477 247.859 148.242 247.773 148.029 247.656C147.826 247.528 147.661 247.363 147.533 247.16C147.405 246.947 147.335 246.691 147.325 246.392ZM160.237 244.072H155.485C155.506 243.752 155.575 243.453 155.693 243.176C155.81 242.888 155.97 242.637 156.173 242.424C156.375 242.211 156.615 242.045 156.893 241.928C157.181 241.8 157.501 241.736 157.853 241.736C158.194 241.736 158.503 241.8 158.781 241.928C159.069 242.045 159.314 242.211 159.517 242.424C159.73 242.627 159.895 242.872 160.013 243.16C160.141 243.448 160.215 243.752 160.237 244.072ZM161.549 246.376H160.205C160.087 246.92 159.842 247.325 159.469 247.592C159.106 247.859 158.637 247.992 158.061 247.992C157.613 247.992 157.223 247.917 156.893 247.768C156.562 247.619 156.29 247.421 156.077 247.176C155.863 246.92 155.709 246.632 155.613 246.312C155.517 245.981 155.474 245.635 155.485 245.272H161.677C161.698 244.771 161.65 244.243 161.533 243.688C161.426 243.133 161.223 242.621 160.925 242.152C160.637 241.683 160.247 241.299 159.757 241C159.277 240.691 158.669 240.536 157.933 240.536C157.367 240.536 156.845 240.643 156.365 240.856C155.895 241.069 155.485 241.368 155.133 241.752C154.791 242.136 154.525 242.589 154.333 243.112C154.141 243.635 154.045 244.211 154.045 244.84C154.066 245.469 154.157 246.051 154.317 246.584C154.487 247.117 154.738 247.576 155.069 247.96C155.399 248.344 155.805 248.643 156.285 248.856C156.775 249.069 157.351 249.176 158.013 249.176C158.951 249.176 159.73 248.941 160.349 248.472C160.967 248.003 161.367 247.304 161.549 246.376ZM168.703 243.384H170.111C170.057 242.893 169.929 242.472 169.727 242.12C169.524 241.757 169.263 241.459 168.943 241.224C168.633 240.989 168.271 240.819 167.855 240.712C167.449 240.595 167.012 240.536 166.543 240.536C165.892 240.536 165.321 240.653 164.831 240.888C164.34 241.112 163.929 241.427 163.599 241.832C163.279 242.227 163.039 242.696 162.879 243.24C162.719 243.773 162.639 244.349 162.639 244.968C162.639 245.587 162.719 246.157 162.879 246.68C163.049 247.192 163.295 247.635 163.615 248.008C163.945 248.381 164.351 248.669 164.831 248.872C165.321 249.075 165.881 249.176 166.511 249.176C167.567 249.176 168.399 248.899 169.007 248.344C169.625 247.789 170.009 247 170.159 245.976H168.767C168.681 246.616 168.447 247.112 168.063 247.464C167.689 247.816 167.167 247.992 166.495 247.992C166.068 247.992 165.7 247.907 165.391 247.736C165.081 247.565 164.831 247.341 164.639 247.064C164.447 246.776 164.303 246.451 164.207 246.088C164.121 245.725 164.079 245.352 164.079 244.968C164.079 244.552 164.121 244.152 164.207 243.768C164.292 243.373 164.431 243.027 164.623 242.728C164.825 242.429 165.092 242.189 165.423 242.008C165.753 241.827 166.164 241.736 166.655 241.736C167.231 241.736 167.689 241.88 168.031 242.168C168.372 242.456 168.596 242.861 168.703 243.384ZM172.672 244.872C172.672 244.371 172.736 243.928 172.864 243.544C173.003 243.149 173.19 242.819 173.424 242.552C173.659 242.285 173.931 242.083 174.24 241.944C174.56 241.805 174.896 241.736 175.248 241.736C175.6 241.736 175.931 241.805 176.24 241.944C176.56 242.083 176.838 242.285 177.072 242.552C177.307 242.819 177.488 243.149 177.616 243.544C177.755 243.928 177.824 244.371 177.824 244.872C177.824 245.373 177.755 245.821 177.616 246.216C177.488 246.6 177.307 246.925 177.072 247.192C176.838 247.448 176.56 247.645 176.24 247.784C175.931 247.923 175.6 247.992 175.248 247.992C174.896 247.992 174.56 247.923 174.24 247.784C173.931 247.645 173.659 247.448 173.424 247.192C173.19 246.925 173.003 246.6 172.864 246.216C172.736 245.821 172.672 245.373 172.672 244.872ZM171.232 244.872C171.232 245.48 171.318 246.045 171.488 246.568C171.659 247.091 171.915 247.549 172.256 247.944C172.598 248.328 173.019 248.632 173.52 248.856C174.022 249.069 174.598 249.176 175.248 249.176C175.91 249.176 176.486 249.069 176.976 248.856C177.478 248.632 177.899 248.328 178.24 247.944C178.582 247.549 178.838 247.091 179.008 246.568C179.179 246.045 179.264 245.48 179.264 244.872C179.264 244.264 179.179 243.699 179.008 243.176C178.838 242.643 178.582 242.184 178.24 241.8C177.899 241.405 177.478 241.096 176.976 240.872C176.486 240.648 175.91 240.536 175.248 240.536C174.598 240.536 174.022 240.648 173.52 240.872C173.019 241.096 172.598 241.405 172.256 241.8C171.915 242.184 171.659 242.643 171.488 243.176C171.318 243.699 171.232 244.264 171.232 244.872ZM180.868 240.728V249H182.228V244.328C182.228 243.955 182.276 243.613 182.372 243.304C182.478 242.984 182.633 242.707 182.836 242.472C183.038 242.237 183.289 242.056 183.588 241.928C183.897 241.8 184.26 241.736 184.676 241.736C185.198 241.736 185.609 241.885 185.908 242.184C186.206 242.483 186.356 242.888 186.356 243.4V249H187.716V243.56C187.716 243.112 187.668 242.707 187.572 242.344C187.486 241.971 187.332 241.651 187.108 241.384C186.884 241.117 186.59 240.909 186.228 240.76C185.865 240.611 185.412 240.536 184.868 240.536C183.641 240.536 182.745 241.037 182.18 242.04H182.148V240.728H180.868ZM190.75 244.936C190.75 244.531 190.793 244.136 190.878 243.752C190.964 243.368 191.102 243.027 191.294 242.728C191.486 242.429 191.742 242.189 192.062 242.008C192.382 241.827 192.772 241.736 193.23 241.736C193.7 241.736 194.1 241.827 194.43 242.008C194.761 242.179 195.028 242.408 195.23 242.696C195.444 242.984 195.598 243.32 195.694 243.704C195.79 244.077 195.838 244.467 195.838 244.872C195.838 245.256 195.79 245.635 195.694 246.008C195.609 246.381 195.465 246.717 195.262 247.016C195.06 247.304 194.798 247.539 194.478 247.72C194.158 247.901 193.769 247.992 193.31 247.992C192.873 247.992 192.489 247.907 192.158 247.736C191.838 247.565 191.572 247.336 191.358 247.048C191.156 246.76 191.001 246.435 190.894 246.072C190.798 245.699 190.75 245.32 190.75 244.936ZM197.15 249V237.576H195.79V241.832H195.758C195.609 241.587 195.422 241.384 195.198 241.224C194.985 241.053 194.756 240.92 194.51 240.824C194.265 240.717 194.02 240.643 193.774 240.6C193.529 240.557 193.3 240.536 193.086 240.536C192.457 240.536 191.902 240.653 191.422 240.888C190.953 241.112 190.558 241.421 190.238 241.816C189.929 242.2 189.694 242.653 189.534 243.176C189.385 243.699 189.31 244.253 189.31 244.84C189.31 245.427 189.39 245.981 189.55 246.504C189.71 247.027 189.945 247.485 190.254 247.88C190.574 248.275 190.969 248.589 191.438 248.824C191.918 249.059 192.478 249.176 193.118 249.176C193.694 249.176 194.222 249.075 194.702 248.872C195.182 248.669 195.534 248.339 195.758 247.88H195.79V249H197.15ZM206.571 248.968C206.336 249.107 206.011 249.176 205.595 249.176C205.243 249.176 204.96 249.08 204.747 248.888C204.544 248.685 204.443 248.36 204.443 247.912C204.069 248.36 203.632 248.685 203.131 248.888C202.64 249.08 202.107 249.176 201.531 249.176C201.157 249.176 200.8 249.133 200.459 249.048C200.128 248.963 199.84 248.829 199.595 248.648C199.349 248.467 199.152 248.232 199.003 247.944C198.864 247.645 198.795 247.288 198.795 246.872C198.795 246.403 198.875 246.019 199.035 245.72C199.195 245.421 199.403 245.181 199.659 245C199.925 244.808 200.224 244.664 200.555 244.568C200.896 244.472 201.243 244.392 201.595 244.328C201.968 244.253 202.32 244.2 202.651 244.168C202.992 244.125 203.291 244.072 203.547 244.008C203.803 243.933 204.005 243.832 204.155 243.704C204.304 243.565 204.379 243.368 204.379 243.112C204.379 242.813 204.32 242.573 204.203 242.392C204.096 242.211 203.952 242.072 203.771 241.976C203.6 241.88 203.403 241.816 203.179 241.784C202.965 241.752 202.752 241.736 202.539 241.736C201.963 241.736 201.483 241.848 201.099 242.072C200.715 242.285 200.507 242.696 200.475 243.304H199.115C199.136 242.792 199.243 242.36 199.435 242.008C199.627 241.656 199.883 241.373 200.203 241.16C200.523 240.936 200.885 240.776 201.291 240.68C201.707 240.584 202.149 240.536 202.619 240.536C202.992 240.536 203.36 240.563 203.723 240.616C204.096 240.669 204.432 240.781 204.731 240.952C205.029 241.112 205.269 241.341 205.451 241.64C205.632 241.939 205.723 242.328 205.723 242.808V247.064C205.723 247.384 205.739 247.619 205.771 247.768C205.813 247.917 205.941 247.992 206.155 247.992C206.272 247.992 206.411 247.965 206.571 247.912V248.968ZM204.363 244.728C204.192 244.856 203.968 244.952 203.691 245.016C203.413 245.069 203.12 245.117 202.811 245.16C202.512 245.192 202.208 245.235 201.899 245.288C201.589 245.331 201.312 245.405 201.067 245.512C200.821 245.619 200.619 245.773 200.459 245.976C200.309 246.168 200.235 246.435 200.235 246.776C200.235 247 200.277 247.192 200.363 247.352C200.459 247.501 200.576 247.624 200.715 247.72C200.864 247.816 201.035 247.885 201.227 247.928C201.419 247.971 201.621 247.992 201.835 247.992C202.283 247.992 202.667 247.933 202.987 247.816C203.307 247.688 203.568 247.533 203.771 247.352C203.973 247.16 204.123 246.957 204.219 246.744C204.315 246.52 204.363 246.312 204.363 246.12V244.728ZM207.789 240.728V249H209.149V245.32C209.149 244.787 209.202 244.317 209.309 243.912C209.415 243.496 209.586 243.144 209.821 242.856C210.055 242.568 210.365 242.349 210.749 242.2C211.133 242.051 211.597 241.976 212.141 241.976V240.536C211.405 240.515 210.797 240.664 210.317 240.984C209.837 241.304 209.431 241.8 209.101 242.472H209.069V240.728H207.789ZM216.413 250.104C216.253 250.509 216.093 250.851 215.933 251.128C215.783 251.405 215.613 251.629 215.421 251.8C215.239 251.981 215.031 252.109 214.797 252.184C214.573 252.269 214.311 252.312 214.013 252.312C213.853 252.312 213.693 252.301 213.533 252.28C213.373 252.259 213.218 252.221 213.069 252.168V250.92C213.186 250.973 213.319 251.016 213.469 251.048C213.629 251.091 213.762 251.112 213.869 251.112C214.146 251.112 214.375 251.043 214.557 250.904C214.749 250.776 214.893 250.589 214.989 250.344L215.549 248.952L212.269 240.728H213.805L216.221 247.496H216.253L218.573 240.728H220.013L216.413 250.104Z" fill="#262626"/>
<circle cx="38" cy="243" r="10" fill="#757575"/>
<rect y="36" width="368" height="128" fill="white"/>
<path d="M28.78 96.86V104H29.73V100.73H33.49V104H34.44V96.86H33.49V99.93H29.73V96.86H28.78ZM36.7568 97.9V96.86H35.9068V97.9H36.7568ZM35.9068 98.83V104H36.7568V98.83H35.9068ZM38.0736 98.83V104H38.9236V101.08C38.9236 100.847 38.9536 100.633 39.0136 100.44C39.0803 100.24 39.1769 100.067 39.3036 99.92C39.4303 99.7733 39.5869 99.66 39.7736 99.58C39.9669 99.5 40.1936 99.46 40.4536 99.46C40.7803 99.46 41.0369 99.5533 41.2236 99.74C41.4103 99.9267 41.5036 100.18 41.5036 100.5V104H42.3536V100.6C42.3536 100.32 42.3236 100.067 42.2636 99.84C42.2103 99.6067 42.1136 99.4067 41.9736 99.24C41.8336 99.0733 41.6503 98.9433 41.4236 98.85C41.1969 98.7567 40.9136 98.71 40.5736 98.71C39.8069 98.71 39.2469 99.0233 38.8936 99.65H38.8736V98.83H38.0736ZM44.8102 98.83V97.28H43.9602V98.83H43.0802V99.58H43.9602V102.87C43.9602 103.11 43.9836 103.303 44.0302 103.45C44.0769 103.597 44.1469 103.71 44.2402 103.79C44.3402 103.87 44.4669 103.927 44.6202 103.96C44.7802 103.987 44.9702 104 45.1902 104H45.8402V103.25H45.4502C45.3169 103.25 45.2069 103.247 45.1202 103.24C45.0402 103.227 44.9769 103.203 44.9302 103.17C44.8836 103.137 44.8502 103.09 44.8302 103.03C44.8169 102.97 44.8102 102.89 44.8102 102.79V99.58H45.8402V98.83H44.8102ZM50.7477 98.83V97.28H49.8977V98.83H49.0177V99.58H49.8977V102.87C49.8977 103.11 49.9211 103.303 49.9677 103.45C50.0144 103.597 50.0844 103.71 50.1777 103.79C50.2777 103.87 50.4044 103.927 50.5577 103.96C50.7177 103.987 50.9077 104 51.1277 104H51.7777V103.25H51.3877C51.2544 103.25 51.1444 103.247 51.0577 103.24C50.9777 103.227 50.9144 103.203 50.8677 103.17C50.8211 103.137 50.7877 103.09 50.7677 103.03C50.7544 102.97 50.7477 102.89 50.7477 102.79V99.58H51.7777V98.83H50.7477ZM56.312 100.92H53.342C53.3554 100.72 53.3987 100.533 53.472 100.36C53.5454 100.18 53.6454 100.023 53.772 99.89C53.8987 99.7567 54.0487 99.6533 54.222 99.58C54.402 99.5 54.602 99.46 54.822 99.46C55.0354 99.46 55.2287 99.5 55.402 99.58C55.582 99.6533 55.7354 99.7567 55.862 99.89C55.9954 100.017 56.0987 100.17 56.172 100.35C56.252 100.53 56.2987 100.72 56.312 100.92ZM57.132 102.36H56.292C56.2187 102.7 56.0654 102.953 55.832 103.12C55.6054 103.287 55.312 103.37 54.952 103.37C54.672 103.37 54.4287 103.323 54.222 103.23C54.0154 103.137 53.8454 103.013 53.712 102.86C53.5787 102.7 53.482 102.52 53.422 102.32C53.362 102.113 53.3354 101.897 53.342 101.67H57.212C57.2254 101.357 57.1954 101.027 57.122 100.68C57.0554 100.333 56.9287 100.013 56.742 99.72C56.562 99.4267 56.3187 99.1867 56.012 99C55.712 98.8067 55.332 98.71 54.872 98.71C54.5187 98.71 54.192 98.7767 53.892 98.91C53.5987 99.0433 53.342 99.23 53.122 99.47C52.9087 99.71 52.742 99.9933 52.622 100.32C52.502 100.647 52.442 101.007 52.442 101.4C52.4554 101.793 52.512 102.157 52.612 102.49C52.7187 102.823 52.8754 103.11 53.082 103.35C53.2887 103.59 53.542 103.777 53.842 103.91C54.1487 104.043 54.5087 104.11 54.922 104.11C55.5087 104.11 55.9954 103.963 56.382 103.67C56.7687 103.377 57.0187 102.94 57.132 102.36ZM59.4831 101.28L57.5431 104H58.5731L60.0131 101.86L61.4531 104H62.5431L60.5431 101.21L62.3231 98.83H61.3031L60.0131 100.64L58.7731 98.83H57.6831L59.4831 101.28ZM64.4489 98.83V97.28H63.5989V98.83H62.7189V99.58H63.5989V102.87C63.5989 103.11 63.6222 103.303 63.6689 103.45C63.7156 103.597 63.7856 103.71 63.8789 103.79C63.9789 103.87 64.1056 103.927 64.2589 103.96C64.4189 103.987 64.6089 104 64.8289 104H65.4789V103.25H65.0889C64.9556 103.25 64.8456 103.247 64.7589 103.24C64.6789 103.227 64.6156 103.203 64.5689 103.17C64.5222 103.137 64.4889 103.09 64.4689 103.03C64.4556 102.97 64.4489 102.89 64.4489 102.79V99.58H65.4789V98.83H64.4489Z" fill="#757575"/>
<rect y="164" width="368" height="1" stroke="#DEDEDE"/>
</g>
<defs>
<clipPath id="clip0">
<rect width="368" height="405" fill="white"/>
</clipPath>
</defs>
</svg>
