<svg width="368" height="405" viewBox="0 0 368 405" fill="none" xmlns="http://www.w3.org/2000/svg">
<g clip-path="url(#clip0)">
<rect width="368" height="405" fill="white"/>
<rect width="368" height="36" fill="#F1F1F1"/>
<path d="M30.3496 20.8164H34.2227V22H28.8672V13.4688H30.3496V20.8164ZM39.0098 22C38.9473 21.8789 38.8926 21.6816 38.8457 21.4082C38.3926 21.8809 37.8379 22.1172 37.1816 22.1172C36.5449 22.1172 36.0254 21.9355 35.623 21.5723C35.2207 21.209 35.0195 20.7598 35.0195 20.2246C35.0195 19.5488 35.2695 19.0312 35.7695 18.6719C36.2734 18.3086 36.9922 18.127 37.9258 18.127H38.7988V17.7109C38.7988 17.3828 38.707 17.1211 38.5234 16.9258C38.3398 16.7266 38.0605 16.627 37.6855 16.627C37.3613 16.627 37.0957 16.709 36.8887 16.873C36.6816 17.0332 36.5781 17.2383 36.5781 17.4883H35.1543C35.1543 17.1406 35.2695 16.8164 35.5 16.5156C35.7305 16.2109 36.043 15.9727 36.4375 15.8008C36.8359 15.6289 37.2793 15.543 37.7676 15.543C38.5098 15.543 39.1016 15.7305 39.543 16.1055C39.9844 16.4766 40.2109 17 40.2227 17.6758V20.5352C40.2227 21.1055 40.3027 21.5605 40.4629 21.9004V22H39.0098ZM37.4453 20.9746C37.7266 20.9746 37.9902 20.9062 38.2363 20.7695C38.4863 20.6328 38.6738 20.4492 38.7988 20.2188V19.0234H38.0312C37.5039 19.0234 37.1074 19.1152 36.8418 19.2988C36.5762 19.4824 36.4434 19.7422 36.4434 20.0781C36.4434 20.3516 36.5332 20.5703 36.7129 20.7344C36.8965 20.8945 37.1406 20.9746 37.4453 20.9746ZM47.2773 18.8945C47.2773 19.8789 47.0566 20.6621 46.6152 21.2441C46.1777 21.8262 45.5742 22.1172 44.8047 22.1172C44.0625 22.1172 43.4844 21.8496 43.0703 21.3145L43 22H41.7109V13H43.1348V16.2695C43.5449 15.7852 44.0977 15.543 44.793 15.543C45.5664 15.543 46.1738 15.8301 46.6152 16.4043C47.0566 16.9785 47.2773 17.7812 47.2773 18.8125V18.8945ZM45.8535 18.7715C45.8535 18.084 45.7324 17.5684 45.4902 17.2246C45.248 16.8809 44.8965 16.709 44.4355 16.709C43.8184 16.709 43.3848 16.9785 43.1348 17.5176V20.1309C43.3887 20.6816 43.8262 20.957 44.4473 20.957C44.8926 20.957 45.2363 20.791 45.4785 20.459C45.7207 20.127 45.8457 19.625 45.8535 18.9531V18.7715ZM51.2676 22.1172C50.3652 22.1172 49.6328 21.834 49.0703 21.2676C48.5117 20.6973 48.2324 19.9395 48.2324 18.9941V18.8184C48.2324 18.1855 48.3535 17.6211 48.5957 17.125C48.8418 16.625 49.1855 16.2363 49.627 15.959C50.0684 15.6816 50.5605 15.543 51.1035 15.543C51.9668 15.543 52.6328 15.8184 53.1016 16.3691C53.5742 16.9199 53.8105 17.6992 53.8105 18.707V19.2812H49.668C49.7109 19.8047 49.8848 20.2188 50.1895 20.5234C50.498 20.8281 50.8848 20.9805 51.3496 20.9805C52.002 20.9805 52.5332 20.7168 52.9434 20.1895L53.7109 20.9219C53.457 21.3008 53.1172 21.5957 52.6914 21.8066C52.2695 22.0137 51.7949 22.1172 51.2676 22.1172ZM51.0977 16.6855C50.707 16.6855 50.3906 16.8223 50.1484 17.0957C49.9102 17.3691 49.7578 17.75 49.6914 18.2383H52.4043V18.1328C52.373 17.6562 52.2461 17.2969 52.0234 17.0547C51.8008 16.8086 51.4922 16.6855 51.0977 16.6855ZM56.4355 22H55.0117V13H56.4355V22ZM67.627 19.2227C67.541 20.1328 67.2051 20.8438 66.6191 21.3555C66.0332 21.8633 65.2539 22.1172 64.2812 22.1172C63.6016 22.1172 63.002 21.957 62.4824 21.6367C61.9668 21.3125 61.5684 20.8535 61.2871 20.2598C61.0059 19.666 60.8594 18.9766 60.8477 18.1914V17.3945C60.8477 16.5898 60.9902 15.8809 61.2754 15.2676C61.5605 14.6543 61.9688 14.1816 62.5 13.8496C63.0352 13.5176 63.6523 13.3516 64.3516 13.3516C65.293 13.3516 66.0508 13.6074 66.625 14.1191C67.1992 14.6309 67.5332 15.3535 67.627 16.2871H66.1504C66.0801 15.6738 65.9004 15.2324 65.6113 14.9629C65.3262 14.6895 64.9062 14.5527 64.3516 14.5527C63.707 14.5527 63.2109 14.7891 62.8633 15.2617C62.5195 15.7305 62.3438 16.4199 62.3359 17.3301V18.0859C62.3359 19.0078 62.5 19.7109 62.8281 20.1953C63.1602 20.6797 63.6445 20.9219 64.2812 20.9219C64.8633 20.9219 65.3008 20.791 65.5938 20.5293C65.8867 20.2676 66.0723 19.832 66.1504 19.2227H67.627ZM68.5527 18.7715C68.5527 18.1504 68.6758 17.5918 68.9219 17.0957C69.168 16.5957 69.5137 16.2129 69.959 15.9473C70.4043 15.6777 70.916 15.543 71.4941 15.543C72.3496 15.543 73.043 15.8184 73.5742 16.3691C74.1094 16.9199 74.3984 17.6504 74.4414 18.5605L74.4473 18.8945C74.4473 19.5195 74.3262 20.0781 74.084 20.5703C73.8457 21.0625 73.502 21.4434 73.0527 21.7129C72.6074 21.9824 72.0918 22.1172 71.5059 22.1172C70.6113 22.1172 69.8945 21.8203 69.3555 21.2266C68.8203 20.6289 68.5527 19.834 68.5527 18.8418V18.7715ZM69.9766 18.8945C69.9766 19.5469 70.1113 20.0586 70.3809 20.4297C70.6504 20.7969 71.0254 20.9805 71.5059 20.9805C71.9863 20.9805 72.3594 20.793 72.625 20.418C72.8945 20.043 73.0293 19.4941 73.0293 18.7715C73.0293 18.1309 72.8906 17.623 72.6133 17.248C72.3398 16.873 71.9668 16.6855 71.4941 16.6855C71.0293 16.6855 70.6602 16.8711 70.3867 17.2422C70.1133 17.6094 69.9766 18.1602 69.9766 18.8945ZM76.9902 15.6602L77.0312 16.3223C77.4766 15.8027 78.0859 15.543 78.8594 15.543C79.707 15.543 80.2871 15.8672 80.5996 16.5156C81.0605 15.8672 81.709 15.543 82.5449 15.543C83.2441 15.543 83.7637 15.7363 84.1035 16.123C84.4473 16.5098 84.623 17.0801 84.6309 17.834V22H83.207V17.875C83.207 17.4727 83.1191 17.1777 82.9434 16.9902C82.7676 16.8027 82.4766 16.709 82.0703 16.709C81.7461 16.709 81.4805 16.7969 81.2734 16.9727C81.0703 17.1445 80.9277 17.3711 80.8457 17.6523L80.8516 22H79.4277V17.8281C79.4082 17.082 79.0273 16.709 78.2852 16.709C77.7148 16.709 77.3105 16.9414 77.0723 17.4062V22H75.6484V15.6602H76.9902ZM91.6445 18.8945C91.6445 19.875 91.4219 20.6582 90.9766 21.2441C90.5312 21.8262 89.9336 22.1172 89.1836 22.1172C88.4883 22.1172 87.9316 21.8887 87.5137 21.4316V24.4375H86.0898V15.6602H87.4023L87.4609 16.3047C87.8789 15.7969 88.4473 15.543 89.166 15.543C89.9395 15.543 90.5449 15.832 90.9824 16.4102C91.4238 16.9844 91.6445 17.7832 91.6445 18.8066V18.8945ZM90.2266 18.7715C90.2266 18.1387 90.0996 17.6367 89.8457 17.2656C89.5957 16.8945 89.2363 16.709 88.7676 16.709C88.1855 16.709 87.7676 16.9492 87.5137 17.4297V20.2422C87.7715 20.7344 88.1934 20.9805 88.7793 20.9805C89.2324 20.9805 89.5859 20.7988 89.8398 20.4355C90.0977 20.0684 90.2266 19.5137 90.2266 18.7715ZM92.5879 18.7715C92.5879 18.1504 92.7109 17.5918 92.957 17.0957C93.2031 16.5957 93.5488 16.2129 93.9941 15.9473C94.4395 15.6777 94.9512 15.543 95.5293 15.543C96.3848 15.543 97.0781 15.8184 97.6094 16.3691C98.1445 16.9199 98.4336 17.6504 98.4766 18.5605L98.4824 18.8945C98.4824 19.5195 98.3613 20.0781 98.1191 20.5703C97.8809 21.0625 97.5371 21.4434 97.0879 21.7129C96.6426 21.9824 96.127 22.1172 95.541 22.1172C94.6465 22.1172 93.9297 21.8203 93.3906 21.2266C92.8555 20.6289 92.5879 19.834 92.5879 18.8418V18.7715ZM94.0117 18.8945C94.0117 19.5469 94.1465 20.0586 94.416 20.4297C94.6855 20.7969 95.0605 20.9805 95.541 20.9805C96.0215 20.9805 96.3945 20.793 96.6602 20.418C96.9297 20.043 97.0645 19.4941 97.0645 18.7715C97.0645 18.1309 96.9258 17.623 96.6484 17.248C96.375 16.873 96.002 16.6855 95.5293 16.6855C95.0645 16.6855 94.6953 16.8711 94.4219 17.2422C94.1484 17.6094 94.0117 18.1602 94.0117 18.8945ZM101.008 15.6602L101.049 16.3926C101.518 15.8262 102.133 15.543 102.895 15.543C104.215 15.543 104.887 16.2988 104.91 17.8105V22H103.486V17.8926C103.486 17.4902 103.398 17.1934 103.223 17.002C103.051 16.8066 102.768 16.709 102.373 16.709C101.799 16.709 101.371 16.9688 101.09 17.4883V22H99.666V15.6602H101.008ZM109.158 22.1172C108.256 22.1172 107.523 21.834 106.961 21.2676C106.402 20.6973 106.123 19.9395 106.123 18.9941V18.8184C106.123 18.1855 106.244 17.6211 106.486 17.125C106.732 16.625 107.076 16.2363 107.518 15.959C107.959 15.6816 108.451 15.543 108.994 15.543C109.857 15.543 110.523 15.8184 110.992 16.3691C111.465 16.9199 111.701 17.6992 111.701 18.707V19.2812H107.559C107.602 19.8047 107.775 20.2188 108.08 20.5234C108.389 20.8281 108.775 20.9805 109.24 20.9805C109.893 20.9805 110.424 20.7168 110.834 20.1895L111.602 20.9219C111.348 21.3008 111.008 21.5957 110.582 21.8066C110.16 22.0137 109.686 22.1172 109.158 22.1172ZM108.988 16.6855C108.598 16.6855 108.281 16.8223 108.039 17.0957C107.801 17.3691 107.648 17.75 107.582 18.2383H110.295V18.1328C110.264 17.6562 110.137 17.2969 109.914 17.0547C109.691 16.8086 109.383 16.6855 108.988 16.6855ZM114.133 15.6602L114.174 16.3926C114.643 15.8262 115.258 15.543 116.02 15.543C117.34 15.543 118.012 16.2988 118.035 17.8105V22H116.611V17.8926C116.611 17.4902 116.523 17.1934 116.348 17.002C116.176 16.8066 115.893 16.709 115.498 16.709C114.924 16.709 114.496 16.9688 114.215 17.4883V22H112.791V15.6602H114.133ZM121.275 14.1191V15.6602H122.395V16.7148H121.275V20.2539C121.275 20.4961 121.322 20.6719 121.416 20.7812C121.514 20.8867 121.686 20.9395 121.932 20.9395C122.096 20.9395 122.262 20.9199 122.43 20.8809V21.9824C122.105 22.0723 121.793 22.1172 121.492 22.1172C120.398 22.1172 119.852 21.5137 119.852 20.3066V16.7148H118.809V15.6602H119.852V14.1191H121.275Z" fill="black"/>
<rect y="164" width="368" height="241" fill="white"/>
<path d="M70.64 243.384H72.048C71.9947 242.893 71.8667 242.472 71.664 242.12C71.4613 241.757 71.2 241.459 70.88 241.224C70.5707 240.989 70.208 240.819 69.792 240.712C69.3867 240.595 68.9493 240.536 68.48 240.536C67.8293 240.536 67.2587 240.653 66.768 240.888C66.2773 241.112 65.8667 241.427 65.536 241.832C65.216 242.227 64.976 242.696 64.816 243.24C64.656 243.773 64.576 244.349 64.576 244.968C64.576 245.587 64.656 246.157 64.816 246.68C64.9867 247.192 65.232 247.635 65.552 248.008C65.8827 248.381 66.288 248.669 66.768 248.872C67.2587 249.075 67.8187 249.176 68.448 249.176C69.504 249.176 70.336 248.899 70.944 248.344C71.5627 247.789 71.9467 247 72.096 245.976H70.704C70.6187 246.616 70.384 247.112 70 247.464C69.6267 247.816 69.104 247.992 68.432 247.992C68.0053 247.992 67.6373 247.907 67.328 247.736C67.0187 247.565 66.768 247.341 66.576 247.064C66.384 246.776 66.24 246.451 66.144 246.088C66.0587 245.725 66.016 245.352 66.016 244.968C66.016 244.552 66.0587 244.152 66.144 243.768C66.2293 243.373 66.368 243.027 66.56 242.728C66.7627 242.429 67.0293 242.189 67.36 242.008C67.6907 241.827 68.1013 241.736 68.592 241.736C69.168 241.736 69.6267 241.88 69.968 242.168C70.3093 242.456 70.5333 242.861 70.64 243.384ZM74.6098 244.872C74.6098 244.371 74.6738 243.928 74.8018 243.544C74.9404 243.149 75.1271 242.819 75.3618 242.552C75.5964 242.285 75.8684 242.083 76.1778 241.944C76.4978 241.805 76.8338 241.736 77.1858 241.736C77.5378 241.736 77.8684 241.805 78.1778 241.944C78.4978 242.083 78.7751 242.285 79.0098 242.552C79.2444 242.819 79.4258 243.149 79.5538 243.544C79.6924 243.928 79.7618 244.371 79.7618 244.872C79.7618 245.373 79.6924 245.821 79.5538 246.216C79.4258 246.6 79.2444 246.925 79.0098 247.192C78.7751 247.448 78.4978 247.645 78.1778 247.784C77.8684 247.923 77.5378 247.992 77.1858 247.992C76.8338 247.992 76.4978 247.923 76.1778 247.784C75.8684 247.645 75.5964 247.448 75.3618 247.192C75.1271 246.925 74.9404 246.6 74.8018 246.216C74.6738 245.821 74.6098 245.373 74.6098 244.872ZM73.1698 244.872C73.1698 245.48 73.2551 246.045 73.4258 246.568C73.5964 247.091 73.8524 247.549 74.1938 247.944C74.5351 248.328 74.9564 248.632 75.4578 248.856C75.9591 249.069 76.5351 249.176 77.1858 249.176C77.8471 249.176 78.4231 249.069 78.9138 248.856C79.4151 248.632 79.8364 248.328 80.1778 247.944C80.5191 247.549 80.7751 247.091 80.9458 246.568C81.1164 246.045 81.2018 245.48 81.2018 244.872C81.2018 244.264 81.1164 243.699 80.9458 243.176C80.7751 242.643 80.5191 242.184 80.1778 241.8C79.8364 241.405 79.4151 241.096 78.9138 240.872C78.4231 240.648 77.8471 240.536 77.1858 240.536C76.5351 240.536 75.9591 240.648 75.4578 240.872C74.9564 241.096 74.5351 241.405 74.1938 241.8C73.8524 242.184 73.5964 242.643 73.4258 243.176C73.2551 243.699 73.1698 244.264 73.1698 244.872ZM82.8853 237.576V249H84.2453V237.576H82.8853ZM87.3441 244.872C87.3441 244.371 87.4081 243.928 87.5361 243.544C87.6748 243.149 87.8615 242.819 88.0961 242.552C88.3308 242.285 88.6028 242.083 88.9121 241.944C89.2321 241.805 89.5681 241.736 89.9201 241.736C90.2721 241.736 90.6028 241.805 90.9121 241.944C91.2321 242.083 91.5095 242.285 91.7441 242.552C91.9788 242.819 92.1601 243.149 92.2881 243.544C92.4268 243.928 92.4961 244.371 92.4961 244.872C92.4961 245.373 92.4268 245.821 92.2881 246.216C92.1601 246.6 91.9788 246.925 91.7441 247.192C91.5095 247.448 91.2321 247.645 90.9121 247.784C90.6028 247.923 90.2721 247.992 89.9201 247.992C89.5681 247.992 89.2321 247.923 88.9121 247.784C88.6028 247.645 88.3308 247.448 88.0961 247.192C87.8615 246.925 87.6748 246.6 87.5361 246.216C87.4081 245.821 87.3441 245.373 87.3441 244.872ZM85.9041 244.872C85.9041 245.48 85.9895 246.045 86.1601 246.568C86.3308 247.091 86.5868 247.549 86.9281 247.944C87.2695 248.328 87.6908 248.632 88.1921 248.856C88.6935 249.069 89.2695 249.176 89.9201 249.176C90.5815 249.176 91.1575 249.069 91.6481 248.856C92.1495 248.632 92.5708 248.328 92.9121 247.944C93.2535 247.549 93.5095 247.091 93.6801 246.568C93.8508 246.045 93.9361 245.48 93.9361 244.872C93.9361 244.264 93.8508 243.699 93.6801 243.176C93.5095 242.643 93.2535 242.184 92.9121 241.8C92.5708 241.405 92.1495 241.096 91.6481 240.872C91.1575 240.648 90.5815 240.536 89.9201 240.536C89.2695 240.536 88.6935 240.648 88.1921 240.872C87.6908 241.096 87.2695 241.405 86.9281 241.8C86.5868 242.184 86.3308 242.643 86.1601 243.176C85.9895 243.699 85.9041 244.264 85.9041 244.872ZM95.4916 240.728V249H96.8516V245.32C96.8516 244.787 96.905 244.317 97.0116 243.912C97.1183 243.496 97.289 243.144 97.5236 242.856C97.7583 242.568 98.0676 242.349 98.4516 242.2C98.8356 242.051 99.2996 241.976 99.8436 241.976V240.536C99.1076 240.515 98.4996 240.664 98.0196 240.984C97.5396 241.304 97.1343 241.8 96.8036 242.472H96.7716V240.728H95.4916ZM101.7 246.392H100.34C100.361 246.904 100.468 247.341 100.66 247.704C100.852 248.056 101.108 248.344 101.428 248.568C101.748 248.781 102.116 248.936 102.532 249.032C102.948 249.128 103.385 249.176 103.844 249.176C104.26 249.176 104.676 249.133 105.092 249.048C105.518 248.973 105.897 248.835 106.228 248.632C106.569 248.429 106.841 248.163 107.044 247.832C107.257 247.501 107.364 247.085 107.364 246.584C107.364 246.189 107.284 245.859 107.124 245.592C106.974 245.325 106.772 245.107 106.516 244.936C106.27 244.755 105.982 244.611 105.652 244.504C105.332 244.397 105.001 244.307 104.66 244.232C104.34 244.157 104.02 244.088 103.7 244.024C103.38 243.949 103.092 243.864 102.836 243.768C102.58 243.661 102.366 243.533 102.196 243.384C102.036 243.224 101.956 243.027 101.956 242.792C101.956 242.579 102.009 242.408 102.116 242.28C102.222 242.141 102.361 242.035 102.532 241.96C102.702 241.875 102.889 241.816 103.092 241.784C103.305 241.752 103.513 241.736 103.716 241.736C103.94 241.736 104.158 241.763 104.372 241.816C104.596 241.859 104.798 241.933 104.98 242.04C105.161 242.147 105.31 242.291 105.428 242.472C105.545 242.643 105.614 242.861 105.636 243.128H106.996C106.964 242.627 106.857 242.211 106.676 241.88C106.494 241.539 106.249 241.272 105.94 241.08C105.641 240.877 105.294 240.739 104.9 240.664C104.505 240.579 104.073 240.536 103.604 240.536C103.241 240.536 102.873 240.584 102.5 240.68C102.137 240.765 101.806 240.904 101.508 241.096C101.22 241.277 100.98 241.517 100.788 241.816C100.606 242.115 100.516 242.472 100.516 242.888C100.516 243.421 100.649 243.837 100.916 244.136C101.182 244.435 101.513 244.669 101.908 244.84C102.313 245 102.75 245.128 103.22 245.224C103.689 245.309 104.121 245.411 104.516 245.528C104.921 245.635 105.257 245.779 105.524 245.96C105.79 246.141 105.924 246.408 105.924 246.76C105.924 247.016 105.86 247.229 105.732 247.4C105.604 247.56 105.438 247.683 105.236 247.768C105.044 247.853 104.83 247.912 104.596 247.944C104.361 247.976 104.137 247.992 103.924 247.992C103.646 247.992 103.374 247.965 103.108 247.912C102.852 247.859 102.617 247.773 102.404 247.656C102.201 247.528 102.036 247.363 101.908 247.16C101.78 246.947 101.71 246.691 101.7 246.392ZM112.292 237.304L107.572 249.256H108.724L113.46 237.304H112.292ZM116.084 240.728V238.248H114.724V240.728H113.316V241.928H114.724V247.192C114.724 247.576 114.761 247.885 114.836 248.12C114.911 248.355 115.023 248.536 115.172 248.664C115.332 248.792 115.535 248.883 115.78 248.936C116.036 248.979 116.34 249 116.692 249H117.732V247.8H117.108C116.895 247.8 116.719 247.795 116.58 247.784C116.452 247.763 116.351 247.725 116.276 247.672C116.201 247.619 116.148 247.544 116.116 247.448C116.095 247.352 116.084 247.224 116.084 247.064V241.928H117.732V240.728H116.084ZM124.987 244.072H120.235C120.256 243.752 120.325 243.453 120.443 243.176C120.56 242.888 120.72 242.637 120.923 242.424C121.125 242.211 121.365 242.045 121.643 241.928C121.931 241.8 122.251 241.736 122.603 241.736C122.944 241.736 123.253 241.8 123.531 241.928C123.819 242.045 124.064 242.211 124.267 242.424C124.48 242.627 124.645 242.872 124.763 243.16C124.891 243.448 124.965 243.752 124.987 244.072ZM126.299 246.376H124.955C124.837 246.92 124.592 247.325 124.219 247.592C123.856 247.859 123.387 247.992 122.811 247.992C122.363 247.992 121.973 247.917 121.643 247.768C121.312 247.619 121.04 247.421 120.827 247.176C120.613 246.92 120.459 246.632 120.363 246.312C120.267 245.981 120.224 245.635 120.235 245.272H126.427C126.448 244.771 126.4 244.243 126.283 243.688C126.176 243.133 125.973 242.621 125.675 242.152C125.387 241.683 124.997 241.299 124.507 241C124.027 240.691 123.419 240.536 122.683 240.536C122.117 240.536 121.595 240.643 121.115 240.856C120.645 241.069 120.235 241.368 119.883 241.752C119.541 242.136 119.275 242.589 119.083 243.112C118.891 243.635 118.795 244.211 118.795 244.84C118.816 245.469 118.907 246.051 119.067 246.584C119.237 247.117 119.488 247.576 119.819 247.96C120.149 248.344 120.555 248.643 121.035 248.856C121.525 249.069 122.101 249.176 122.763 249.176C123.701 249.176 124.48 248.941 125.099 248.472C125.717 248.003 126.117 247.304 126.299 246.376ZM130.061 244.648L126.957 249H128.605L130.909 245.576L133.213 249H134.957L131.757 244.536L134.605 240.728H132.973L130.909 243.624L128.924 240.728H127.181L130.061 244.648ZM138.006 240.728V238.248H136.646V240.728H135.238V241.928H136.646V247.192C136.646 247.576 136.683 247.885 136.758 248.12C136.832 248.355 136.944 248.536 137.094 248.664C137.254 248.792 137.456 248.883 137.702 248.936C137.958 248.979 138.262 249 138.614 249H139.654V247.8H139.03C138.816 247.8 138.64 247.795 138.502 247.784C138.374 247.763 138.272 247.725 138.198 247.672C138.123 247.619 138.07 247.544 138.038 247.448C138.016 247.352 138.006 247.224 138.006 247.064V241.928H139.654V240.728H138.006ZM144.589 237.304L139.869 249.256H141.021L145.757 237.304H144.589ZM146.541 240.728V252.152H147.901V247.896H147.933C148.082 248.141 148.263 248.349 148.477 248.52C148.701 248.68 148.935 248.808 149.181 248.904C149.426 249 149.671 249.069 149.917 249.112C150.173 249.155 150.402 249.176 150.605 249.176C151.234 249.176 151.783 249.064 152.253 248.84C152.733 248.616 153.127 248.312 153.437 247.928C153.757 247.533 153.991 247.075 154.141 246.552C154.301 246.029 154.381 245.475 154.381 244.888C154.381 244.301 154.301 243.747 154.141 243.224C153.981 242.701 153.741 242.243 153.421 241.848C153.111 241.443 152.717 241.123 152.237 240.888C151.767 240.653 151.213 240.536 150.573 240.536C149.997 240.536 149.469 240.643 148.989 240.856C148.509 241.059 148.157 241.389 147.933 241.848H147.901V240.728H146.541ZM152.941 244.792C152.941 245.197 152.898 245.592 152.813 245.976C152.727 246.36 152.589 246.701 152.397 247C152.205 247.299 151.949 247.539 151.629 247.72C151.319 247.901 150.93 247.992 150.461 247.992C149.991 247.992 149.591 247.907 149.261 247.736C148.93 247.555 148.658 247.32 148.445 247.032C148.242 246.744 148.093 246.413 147.997 246.04C147.901 245.656 147.853 245.261 147.853 244.856C147.853 244.472 147.895 244.093 147.981 243.72C148.077 243.347 148.226 243.016 148.429 242.728C148.631 242.429 148.893 242.189 149.213 242.008C149.533 241.827 149.922 241.736 150.381 241.736C150.818 241.736 151.197 241.821 151.517 241.992C151.847 242.163 152.114 242.392 152.317 242.68C152.53 242.968 152.685 243.299 152.781 243.672C152.887 244.035 152.941 244.408 152.941 244.792ZM155.929 240.728V249H157.289V245.32C157.289 244.787 157.342 244.317 157.449 243.912C157.556 243.496 157.726 243.144 157.961 242.856C158.196 242.568 158.505 242.349 158.889 242.2C159.273 242.051 159.737 241.976 160.281 241.976V240.536C159.545 240.515 158.937 240.664 158.457 240.984C157.977 241.304 157.572 241.8 157.241 242.472H157.209V240.728H155.929ZM162.745 239.24V237.576H161.385V239.24H162.745ZM161.385 240.728V249H162.745V240.728H161.385ZM164.852 240.728V249H166.212V243.848C166.212 243.688 166.249 243.491 166.324 243.256C166.409 243.011 166.537 242.776 166.708 242.552C166.889 242.328 167.119 242.136 167.396 241.976C167.684 241.816 168.025 241.736 168.42 241.736C168.729 241.736 168.98 241.784 169.172 241.88C169.375 241.965 169.535 242.093 169.652 242.264C169.769 242.424 169.849 242.616 169.892 242.84C169.945 243.064 169.972 243.309 169.972 243.576V249H171.332V243.848C171.332 243.208 171.524 242.696 171.908 242.312C172.292 241.928 172.82 241.736 173.492 241.736C173.823 241.736 174.089 241.784 174.292 241.88C174.505 241.976 174.671 242.109 174.788 242.28C174.905 242.44 174.985 242.632 175.028 242.856C175.071 243.08 175.092 243.32 175.092 243.576V249H176.452V242.936C176.452 242.509 176.383 242.147 176.244 241.848C176.116 241.539 175.929 241.288 175.684 241.096C175.449 240.904 175.161 240.765 174.82 240.68C174.489 240.584 174.116 240.536 173.7 240.536C173.156 240.536 172.655 240.659 172.196 240.904C171.748 241.149 171.385 241.496 171.108 241.944C170.937 241.432 170.644 241.069 170.228 240.856C169.812 240.643 169.348 240.536 168.836 240.536C167.673 240.536 166.783 241.005 166.164 241.944H166.132V240.728H164.852ZM185.821 248.968C185.586 249.107 185.261 249.176 184.845 249.176C184.493 249.176 184.21 249.08 183.997 248.888C183.794 248.685 183.693 248.36 183.693 247.912C183.319 248.36 182.882 248.685 182.381 248.888C181.89 249.08 181.357 249.176 180.781 249.176C180.407 249.176 180.05 249.133 179.709 249.048C179.378 248.963 179.09 248.829 178.845 248.648C178.599 248.467 178.402 248.232 178.253 247.944C178.114 247.645 178.045 247.288 178.045 246.872C178.045 246.403 178.125 246.019 178.285 245.72C178.445 245.421 178.653 245.181 178.909 245C179.175 244.808 179.474 244.664 179.805 244.568C180.146 244.472 180.493 244.392 180.845 244.328C181.218 244.253 181.57 244.2 181.901 244.168C182.242 244.125 182.541 244.072 182.797 244.008C183.053 243.933 183.255 243.832 183.405 243.704C183.554 243.565 183.629 243.368 183.629 243.112C183.629 242.813 183.57 242.573 183.453 242.392C183.346 242.211 183.202 242.072 183.021 241.976C182.85 241.88 182.653 241.816 182.429 241.784C182.215 241.752 182.002 241.736 181.789 241.736C181.213 241.736 180.733 241.848 180.349 242.072C179.965 242.285 179.757 242.696 179.725 243.304H178.365C178.386 242.792 178.493 242.36 178.685 242.008C178.877 241.656 179.133 241.373 179.453 241.16C179.773 240.936 180.135 240.776 180.541 240.68C180.957 240.584 181.399 240.536 181.869 240.536C182.242 240.536 182.61 240.563 182.973 240.616C183.346 240.669 183.682 240.781 183.981 240.952C184.279 241.112 184.519 241.341 184.701 241.64C184.882 241.939 184.973 242.328 184.973 242.808V247.064C184.973 247.384 184.989 247.619 185.021 247.768C185.063 247.917 185.191 247.992 185.405 247.992C185.522 247.992 185.661 247.965 185.821 247.912V248.968ZM183.613 244.728C183.442 244.856 183.218 244.952 182.941 245.016C182.663 245.069 182.37 245.117 182.061 245.16C181.762 245.192 181.458 245.235 181.149 245.288C180.839 245.331 180.562 245.405 180.317 245.512C180.071 245.619 179.869 245.773 179.709 245.976C179.559 246.168 179.485 246.435 179.485 246.776C179.485 247 179.527 247.192 179.613 247.352C179.709 247.501 179.826 247.624 179.965 247.72C180.114 247.816 180.285 247.885 180.477 247.928C180.669 247.971 180.871 247.992 181.085 247.992C181.533 247.992 181.917 247.933 182.237 247.816C182.557 247.688 182.818 247.533 183.021 247.352C183.223 247.16 183.373 246.957 183.469 246.744C183.565 246.52 183.613 246.312 183.613 246.12V244.728ZM187.039 240.728V249H188.399V245.32C188.399 244.787 188.452 244.317 188.559 243.912C188.665 243.496 188.836 243.144 189.071 242.856C189.305 242.568 189.615 242.349 189.999 242.2C190.383 242.051 190.847 241.976 191.391 241.976V240.536C190.655 240.515 190.047 240.664 189.567 240.984C189.087 241.304 188.681 241.8 188.351 242.472H188.319V240.728H187.039ZM195.663 250.104C195.503 250.509 195.343 250.851 195.183 251.128C195.033 251.405 194.863 251.629 194.671 251.8C194.489 251.981 194.281 252.109 194.047 252.184C193.823 252.269 193.561 252.312 193.263 252.312C193.103 252.312 192.943 252.301 192.783 252.28C192.623 252.259 192.468 252.221 192.319 252.168V250.92C192.436 250.973 192.569 251.016 192.719 251.048C192.879 251.091 193.012 251.112 193.119 251.112C193.396 251.112 193.625 251.043 193.807 250.904C193.999 250.776 194.143 250.589 194.239 250.344L194.799 248.952L191.519 240.728H193.055L195.471 247.496H195.503L197.823 240.728H199.263L195.663 250.104Z" fill="#262626"/>
<circle cx="38" cy="243" r="10" fill="#262626"/>
<path d="M70.64 287.384H72.048C71.9947 286.893 71.8667 286.472 71.664 286.12C71.4613 285.757 71.2 285.459 70.88 285.224C70.5707 284.989 70.208 284.819 69.792 284.712C69.3867 284.595 68.9493 284.536 68.48 284.536C67.8293 284.536 67.2587 284.653 66.768 284.888C66.2773 285.112 65.8667 285.427 65.536 285.832C65.216 286.227 64.976 286.696 64.816 287.24C64.656 287.773 64.576 288.349 64.576 288.968C64.576 289.587 64.656 290.157 64.816 290.68C64.9867 291.192 65.232 291.635 65.552 292.008C65.8827 292.381 66.288 292.669 66.768 292.872C67.2587 293.075 67.8187 293.176 68.448 293.176C69.504 293.176 70.336 292.899 70.944 292.344C71.5627 291.789 71.9467 291 72.096 289.976H70.704C70.6187 290.616 70.384 291.112 70 291.464C69.6267 291.816 69.104 291.992 68.432 291.992C68.0053 291.992 67.6373 291.907 67.328 291.736C67.0187 291.565 66.768 291.341 66.576 291.064C66.384 290.776 66.24 290.451 66.144 290.088C66.0587 289.725 66.016 289.352 66.016 288.968C66.016 288.552 66.0587 288.152 66.144 287.768C66.2293 287.373 66.368 287.027 66.56 286.728C66.7627 286.429 67.0293 286.189 67.36 286.008C67.6907 285.827 68.1013 285.736 68.592 285.736C69.168 285.736 69.6267 285.88 69.968 286.168C70.3093 286.456 70.5333 286.861 70.64 287.384ZM74.6098 288.872C74.6098 288.371 74.6738 287.928 74.8018 287.544C74.9404 287.149 75.1271 286.819 75.3618 286.552C75.5964 286.285 75.8684 286.083 76.1778 285.944C76.4978 285.805 76.8338 285.736 77.1858 285.736C77.5378 285.736 77.8684 285.805 78.1778 285.944C78.4978 286.083 78.7751 286.285 79.0098 286.552C79.2444 286.819 79.4258 287.149 79.5538 287.544C79.6924 287.928 79.7618 288.371 79.7618 288.872C79.7618 289.373 79.6924 289.821 79.5538 290.216C79.4258 290.6 79.2444 290.925 79.0098 291.192C78.7751 291.448 78.4978 291.645 78.1778 291.784C77.8684 291.923 77.5378 291.992 77.1858 291.992C76.8338 291.992 76.4978 291.923 76.1778 291.784C75.8684 291.645 75.5964 291.448 75.3618 291.192C75.1271 290.925 74.9404 290.6 74.8018 290.216C74.6738 289.821 74.6098 289.373 74.6098 288.872ZM73.1698 288.872C73.1698 289.48 73.2551 290.045 73.4258 290.568C73.5964 291.091 73.8524 291.549 74.1938 291.944C74.5351 292.328 74.9564 292.632 75.4578 292.856C75.9591 293.069 76.5351 293.176 77.1858 293.176C77.8471 293.176 78.4231 293.069 78.9138 292.856C79.4151 292.632 79.8364 292.328 80.1778 291.944C80.5191 291.549 80.7751 291.091 80.9458 290.568C81.1164 290.045 81.2018 289.48 81.2018 288.872C81.2018 288.264 81.1164 287.699 80.9458 287.176C80.7751 286.643 80.5191 286.184 80.1778 285.8C79.8364 285.405 79.4151 285.096 78.9138 284.872C78.4231 284.648 77.8471 284.536 77.1858 284.536C76.5351 284.536 75.9591 284.648 75.4578 284.872C74.9564 285.096 74.5351 285.405 74.1938 285.8C73.8524 286.184 73.5964 286.643 73.4258 287.176C73.2551 287.699 73.1698 288.264 73.1698 288.872ZM82.8853 281.576V293H84.2453V281.576H82.8853ZM87.3441 288.872C87.3441 288.371 87.4081 287.928 87.5361 287.544C87.6748 287.149 87.8615 286.819 88.0961 286.552C88.3308 286.285 88.6028 286.083 88.9121 285.944C89.2321 285.805 89.5681 285.736 89.9201 285.736C90.2721 285.736 90.6028 285.805 90.9121 285.944C91.2321 286.083 91.5095 286.285 91.7441 286.552C91.9788 286.819 92.1601 287.149 92.2881 287.544C92.4268 287.928 92.4961 288.371 92.4961 288.872C92.4961 289.373 92.4268 289.821 92.2881 290.216C92.1601 290.6 91.9788 290.925 91.7441 291.192C91.5095 291.448 91.2321 291.645 90.9121 291.784C90.6028 291.923 90.2721 291.992 89.9201 291.992C89.5681 291.992 89.2321 291.923 88.9121 291.784C88.6028 291.645 88.3308 291.448 88.0961 291.192C87.8615 290.925 87.6748 290.6 87.5361 290.216C87.4081 289.821 87.3441 289.373 87.3441 288.872ZM85.9041 288.872C85.9041 289.48 85.9895 290.045 86.1601 290.568C86.3308 291.091 86.5868 291.549 86.9281 291.944C87.2695 292.328 87.6908 292.632 88.1921 292.856C88.6935 293.069 89.2695 293.176 89.9201 293.176C90.5815 293.176 91.1575 293.069 91.6481 292.856C92.1495 292.632 92.5708 292.328 92.9121 291.944C93.2535 291.549 93.5095 291.091 93.6801 290.568C93.8508 290.045 93.9361 289.48 93.9361 288.872C93.9361 288.264 93.8508 287.699 93.6801 287.176C93.5095 286.643 93.2535 286.184 92.9121 285.8C92.5708 285.405 92.1495 285.096 91.6481 284.872C91.1575 284.648 90.5815 284.536 89.9201 284.536C89.2695 284.536 88.6935 284.648 88.1921 284.872C87.6908 285.096 87.2695 285.405 86.9281 285.8C86.5868 286.184 86.3308 286.643 86.1601 287.176C85.9895 287.699 85.9041 288.264 85.9041 288.872ZM95.4916 284.728V293H96.8516V289.32C96.8516 288.787 96.905 288.317 97.0116 287.912C97.1183 287.496 97.289 287.144 97.5236 286.856C97.7583 286.568 98.0676 286.349 98.4516 286.2C98.8356 286.051 99.2996 285.976 99.8436 285.976V284.536C99.1076 284.515 98.4996 284.664 98.0196 284.984C97.5396 285.304 97.1343 285.8 96.8036 286.472H96.7716V284.728H95.4916ZM101.7 290.392H100.34C100.361 290.904 100.468 291.341 100.66 291.704C100.852 292.056 101.108 292.344 101.428 292.568C101.748 292.781 102.116 292.936 102.532 293.032C102.948 293.128 103.385 293.176 103.844 293.176C104.26 293.176 104.676 293.133 105.092 293.048C105.518 292.973 105.897 292.835 106.228 292.632C106.569 292.429 106.841 292.163 107.044 291.832C107.257 291.501 107.364 291.085 107.364 290.584C107.364 290.189 107.284 289.859 107.124 289.592C106.974 289.325 106.772 289.107 106.516 288.936C106.27 288.755 105.982 288.611 105.652 288.504C105.332 288.397 105.001 288.307 104.66 288.232C104.34 288.157 104.02 288.088 103.7 288.024C103.38 287.949 103.092 287.864 102.836 287.768C102.58 287.661 102.366 287.533 102.196 287.384C102.036 287.224 101.956 287.027 101.956 286.792C101.956 286.579 102.009 286.408 102.116 286.28C102.222 286.141 102.361 286.035 102.532 285.96C102.702 285.875 102.889 285.816 103.092 285.784C103.305 285.752 103.513 285.736 103.716 285.736C103.94 285.736 104.158 285.763 104.372 285.816C104.596 285.859 104.798 285.933 104.98 286.04C105.161 286.147 105.31 286.291 105.428 286.472C105.545 286.643 105.614 286.861 105.636 287.128H106.996C106.964 286.627 106.857 286.211 106.676 285.88C106.494 285.539 106.249 285.272 105.94 285.08C105.641 284.877 105.294 284.739 104.9 284.664C104.505 284.579 104.073 284.536 103.604 284.536C103.241 284.536 102.873 284.584 102.5 284.68C102.137 284.765 101.806 284.904 101.508 285.096C101.22 285.277 100.98 285.517 100.788 285.816C100.606 286.115 100.516 286.472 100.516 286.888C100.516 287.421 100.649 287.837 100.916 288.136C101.182 288.435 101.513 288.669 101.908 288.84C102.313 289 102.75 289.128 103.22 289.224C103.689 289.309 104.121 289.411 104.516 289.528C104.921 289.635 105.257 289.779 105.524 289.96C105.79 290.141 105.924 290.408 105.924 290.76C105.924 291.016 105.86 291.229 105.732 291.4C105.604 291.56 105.438 291.683 105.236 291.768C105.044 291.853 104.83 291.912 104.596 291.944C104.361 291.976 104.137 291.992 103.924 291.992C103.646 291.992 103.374 291.965 103.108 291.912C102.852 291.859 102.617 291.773 102.404 291.656C102.201 291.528 102.036 291.363 101.908 291.16C101.78 290.947 101.71 290.691 101.7 290.392ZM112.292 281.304L107.572 293.256H108.724L113.46 281.304H112.292ZM114.244 281.576V293H115.604V291.896H115.636C115.785 292.141 115.967 292.349 116.18 292.52C116.404 292.68 116.639 292.808 116.884 292.904C117.129 293 117.375 293.069 117.62 293.112C117.876 293.155 118.105 293.176 118.308 293.176C118.937 293.176 119.487 293.064 119.956 292.84C120.436 292.616 120.831 292.312 121.14 291.928C121.46 291.533 121.695 291.075 121.844 290.552C122.004 290.029 122.084 289.475 122.084 288.888C122.084 288.301 122.004 287.747 121.844 287.224C121.684 286.701 121.444 286.243 121.124 285.848C120.815 285.443 120.42 285.123 119.94 284.888C119.471 284.653 118.916 284.536 118.276 284.536C117.7 284.536 117.172 284.643 116.692 284.856C116.212 285.059 115.86 285.389 115.636 285.848H115.604V281.576H114.244ZM120.644 288.792C120.644 289.197 120.601 289.592 120.516 289.976C120.431 290.36 120.292 290.701 120.1 291C119.908 291.299 119.652 291.539 119.332 291.72C119.023 291.901 118.633 291.992 118.164 291.992C117.695 291.992 117.295 291.907 116.964 291.736C116.633 291.555 116.361 291.32 116.148 291.032C115.945 290.744 115.796 290.413 115.7 290.04C115.604 289.656 115.556 289.261 115.556 288.856C115.556 288.472 115.599 288.093 115.684 287.72C115.78 287.347 115.929 287.016 116.132 286.728C116.335 286.429 116.596 286.189 116.916 286.008C117.236 285.827 117.625 285.736 118.084 285.736C118.521 285.736 118.9 285.821 119.22 285.992C119.551 286.163 119.817 286.392 120.02 286.68C120.233 286.968 120.388 287.299 120.484 287.672C120.591 288.035 120.644 288.408 120.644 288.792ZM123.632 284.728V293H124.992V289.32C124.992 288.787 125.046 288.317 125.152 287.912C125.259 287.496 125.43 287.144 125.664 286.856C125.899 286.568 126.208 286.349 126.592 286.2C126.976 286.051 127.44 285.976 127.984 285.976V284.536C127.248 284.515 126.64 284.664 126.16 284.984C125.68 285.304 125.275 285.8 124.944 286.472H124.912V284.728H123.632ZM136.336 292.968C136.102 293.107 135.776 293.176 135.36 293.176C135.008 293.176 134.726 293.08 134.512 292.888C134.31 292.685 134.208 292.36 134.208 291.912C133.835 292.36 133.398 292.685 132.896 292.888C132.406 293.08 131.872 293.176 131.296 293.176C130.923 293.176 130.566 293.133 130.224 293.048C129.894 292.963 129.606 292.829 129.36 292.648C129.115 292.467 128.918 292.232 128.768 291.944C128.63 291.645 128.56 291.288 128.56 290.872C128.56 290.403 128.64 290.019 128.8 289.72C128.96 289.421 129.168 289.181 129.424 289C129.691 288.808 129.99 288.664 130.32 288.568C130.662 288.472 131.008 288.392 131.36 288.328C131.734 288.253 132.086 288.2 132.416 288.168C132.758 288.125 133.056 288.072 133.312 288.008C133.568 287.933 133.771 287.832 133.92 287.704C134.07 287.565 134.144 287.368 134.144 287.112C134.144 286.813 134.086 286.573 133.968 286.392C133.862 286.211 133.718 286.072 133.536 285.976C133.366 285.88 133.168 285.816 132.944 285.784C132.731 285.752 132.518 285.736 132.304 285.736C131.728 285.736 131.248 285.848 130.864 286.072C130.48 286.285 130.272 286.696 130.24 287.304H128.88C128.902 286.792 129.008 286.36 129.2 286.008C129.392 285.656 129.648 285.373 129.968 285.16C130.288 284.936 130.651 284.776 131.056 284.68C131.472 284.584 131.915 284.536 132.384 284.536C132.758 284.536 133.126 284.563 133.488 284.616C133.862 284.669 134.198 284.781 134.496 284.952C134.795 285.112 135.035 285.341 135.216 285.64C135.398 285.939 135.488 286.328 135.488 286.808V291.064C135.488 291.384 135.504 291.619 135.536 291.768C135.579 291.917 135.707 291.992 135.92 291.992C136.038 291.992 136.176 291.965 136.336 291.912V292.968ZM134.128 288.728C133.958 288.856 133.734 288.952 133.456 289.016C133.179 289.069 132.886 289.117 132.576 289.16C132.278 289.192 131.974 289.235 131.664 289.288C131.355 289.331 131.078 289.405 130.832 289.512C130.587 289.619 130.384 289.773 130.224 289.976C130.075 290.168 130 290.435 130 290.776C130 291 130.043 291.192 130.128 291.352C130.224 291.501 130.342 291.624 130.48 291.72C130.63 291.816 130.8 291.885 130.992 291.928C131.184 291.971 131.387 291.992 131.6 291.992C132.048 291.992 132.432 291.933 132.752 291.816C133.072 291.688 133.334 291.533 133.536 291.352C133.739 291.16 133.888 290.957 133.984 290.744C134.08 290.52 134.128 290.312 134.128 290.12V288.728ZM137.602 284.728V293H138.962V288.328C138.962 287.955 139.01 287.613 139.106 287.304C139.213 286.984 139.367 286.707 139.57 286.472C139.773 286.237 140.023 286.056 140.322 285.928C140.631 285.8 140.994 285.736 141.41 285.736C141.933 285.736 142.343 285.885 142.642 286.184C142.941 286.483 143.09 286.888 143.09 287.4V293H144.45V287.56C144.45 287.112 144.402 286.707 144.306 286.344C144.221 285.971 144.066 285.651 143.842 285.384C143.618 285.117 143.325 284.909 142.962 284.76C142.599 284.611 142.146 284.536 141.602 284.536C140.375 284.536 139.479 285.037 138.914 286.04H138.882V284.728H137.602ZM147.485 288.936C147.485 288.531 147.527 288.136 147.613 287.752C147.698 287.368 147.837 287.027 148.029 286.728C148.221 286.429 148.477 286.189 148.797 286.008C149.117 285.827 149.506 285.736 149.965 285.736C150.434 285.736 150.834 285.827 151.165 286.008C151.495 286.179 151.762 286.408 151.965 286.696C152.178 286.984 152.333 287.32 152.429 287.704C152.525 288.077 152.573 288.467 152.573 288.872C152.573 289.256 152.525 289.635 152.429 290.008C152.343 290.381 152.199 290.717 151.997 291.016C151.794 291.304 151.533 291.539 151.213 291.72C150.893 291.901 150.503 291.992 150.045 291.992C149.607 291.992 149.223 291.907 148.893 291.736C148.573 291.565 148.306 291.336 148.093 291.048C147.89 290.76 147.735 290.435 147.629 290.072C147.533 289.699 147.485 289.32 147.485 288.936ZM153.885 293V281.576H152.525V285.832H152.493C152.343 285.587 152.157 285.384 151.933 285.224C151.719 285.053 151.49 284.92 151.245 284.824C150.999 284.717 150.754 284.643 150.509 284.6C150.263 284.557 150.034 284.536 149.821 284.536C149.191 284.536 148.637 284.653 148.157 284.888C147.687 285.112 147.293 285.421 146.973 285.816C146.663 286.2 146.429 286.653 146.269 287.176C146.119 287.699 146.045 288.253 146.045 288.84C146.045 289.427 146.125 289.981 146.285 290.504C146.445 291.027 146.679 291.485 146.989 291.88C147.309 292.275 147.703 292.589 148.173 292.824C148.653 293.059 149.213 293.176 149.853 293.176C150.429 293.176 150.957 293.075 151.437 292.872C151.917 292.669 152.269 292.339 152.493 291.88H152.525V293H153.885ZM159.401 281.304L154.681 293.256H155.833L160.569 281.304H159.401ZM162.137 290.392H160.777C160.799 290.904 160.905 291.341 161.097 291.704C161.289 292.056 161.545 292.344 161.865 292.568C162.185 292.781 162.553 292.936 162.969 293.032C163.385 293.128 163.823 293.176 164.281 293.176C164.697 293.176 165.113 293.133 165.529 293.048C165.956 292.973 166.335 292.835 166.665 292.632C167.007 292.429 167.279 292.163 167.481 291.832C167.695 291.501 167.801 291.085 167.801 290.584C167.801 290.189 167.721 289.859 167.561 289.592C167.412 289.325 167.209 289.107 166.953 288.936C166.708 288.755 166.42 288.611 166.089 288.504C165.769 288.397 165.439 288.307 165.097 288.232C164.777 288.157 164.457 288.088 164.137 288.024C163.817 287.949 163.529 287.864 163.273 287.768C163.017 287.661 162.804 287.533 162.633 287.384C162.473 287.224 162.393 287.027 162.393 286.792C162.393 286.579 162.447 286.408 162.553 286.28C162.66 286.141 162.799 286.035 162.969 285.96C163.14 285.875 163.327 285.816 163.529 285.784C163.743 285.752 163.951 285.736 164.153 285.736C164.377 285.736 164.596 285.763 164.809 285.816C165.033 285.859 165.236 285.933 165.417 286.04C165.599 286.147 165.748 286.291 165.865 286.472C165.983 286.643 166.052 286.861 166.073 287.128H167.433C167.401 286.627 167.295 286.211 167.113 285.88C166.932 285.539 166.687 285.272 166.377 285.08C166.079 284.877 165.732 284.739 165.337 284.664C164.943 284.579 164.511 284.536 164.041 284.536C163.679 284.536 163.311 284.584 162.937 284.68C162.575 284.765 162.244 284.904 161.945 285.096C161.657 285.277 161.417 285.517 161.225 285.816C161.044 286.115 160.953 286.472 160.953 286.888C160.953 287.421 161.087 287.837 161.353 288.136C161.62 288.435 161.951 288.669 162.345 288.84C162.751 289 163.188 289.128 163.657 289.224C164.127 289.309 164.559 289.411 164.953 289.528C165.359 289.635 165.695 289.779 165.961 289.96C166.228 290.141 166.361 290.408 166.361 290.76C166.361 291.016 166.297 291.229 166.169 291.4C166.041 291.56 165.876 291.683 165.673 291.768C165.481 291.853 165.268 291.912 165.033 291.944C164.799 291.976 164.575 291.992 164.361 291.992C164.084 291.992 163.812 291.965 163.545 291.912C163.289 291.859 163.055 291.773 162.841 291.656C162.639 291.528 162.473 291.363 162.345 291.16C162.217 290.947 162.148 290.691 162.137 290.392ZM175.049 288.072H170.297C170.319 287.752 170.388 287.453 170.505 287.176C170.623 286.888 170.783 286.637 170.985 286.424C171.188 286.211 171.428 286.045 171.705 285.928C171.993 285.8 172.313 285.736 172.665 285.736C173.007 285.736 173.316 285.8 173.593 285.928C173.881 286.045 174.127 286.211 174.329 286.424C174.543 286.627 174.708 286.872 174.825 287.16C174.953 287.448 175.028 287.752 175.049 288.072ZM176.361 290.376H175.017C174.9 290.92 174.655 291.325 174.281 291.592C173.919 291.859 173.449 291.992 172.873 291.992C172.425 291.992 172.036 291.917 171.705 291.768C171.375 291.619 171.103 291.421 170.889 291.176C170.676 290.92 170.521 290.632 170.425 290.312C170.329 289.981 170.287 289.635 170.297 289.272H176.489C176.511 288.771 176.463 288.243 176.345 287.688C176.239 287.133 176.036 286.621 175.737 286.152C175.449 285.683 175.06 285.299 174.569 285C174.089 284.691 173.481 284.536 172.745 284.536C172.18 284.536 171.657 284.643 171.177 284.856C170.708 285.069 170.297 285.368 169.945 285.752C169.604 286.136 169.337 286.589 169.145 287.112C168.953 287.635 168.857 288.211 168.857 288.84C168.879 289.469 168.969 290.051 169.129 290.584C169.3 291.117 169.551 291.576 169.881 291.96C170.212 292.344 170.617 292.643 171.097 292.856C171.588 293.069 172.164 293.176 172.825 293.176C173.764 293.176 174.543 292.941 175.161 292.472C175.78 292.003 176.18 291.304 176.361 290.376ZM183.515 287.384H184.923C184.87 286.893 184.742 286.472 184.539 286.12C184.336 285.757 184.075 285.459 183.755 285.224C183.446 284.989 183.083 284.819 182.667 284.712C182.262 284.595 181.824 284.536 181.355 284.536C180.704 284.536 180.134 284.653 179.643 284.888C179.152 285.112 178.742 285.427 178.411 285.832C178.091 286.227 177.851 286.696 177.691 287.24C177.531 287.773 177.451 288.349 177.451 288.968C177.451 289.587 177.531 290.157 177.691 290.68C177.862 291.192 178.107 291.635 178.427 292.008C178.758 292.381 179.163 292.669 179.643 292.872C180.134 293.075 180.694 293.176 181.323 293.176C182.379 293.176 183.211 292.899 183.819 292.344C184.438 291.789 184.822 291 184.971 289.976H183.579C183.494 290.616 183.259 291.112 182.875 291.464C182.502 291.816 181.979 291.992 181.307 291.992C180.88 291.992 180.512 291.907 180.203 291.736C179.894 291.565 179.643 291.341 179.451 291.064C179.259 290.776 179.115 290.451 179.019 290.088C178.934 289.725 178.891 289.352 178.891 288.968C178.891 288.552 178.934 288.152 179.019 287.768C179.104 287.373 179.243 287.027 179.435 286.728C179.638 286.429 179.904 286.189 180.235 286.008C180.566 285.827 180.976 285.736 181.467 285.736C182.043 285.736 182.502 285.88 182.843 286.168C183.184 286.456 183.408 286.861 183.515 287.384ZM187.485 288.872C187.485 288.371 187.549 287.928 187.677 287.544C187.815 287.149 188.002 286.819 188.237 286.552C188.471 286.285 188.743 286.083 189.053 285.944C189.373 285.805 189.709 285.736 190.061 285.736C190.413 285.736 190.743 285.805 191.053 285.944C191.373 286.083 191.65 286.285 191.885 286.552C192.119 286.819 192.301 287.149 192.429 287.544C192.567 287.928 192.637 288.371 192.637 288.872C192.637 289.373 192.567 289.821 192.429 290.216C192.301 290.6 192.119 290.925 191.885 291.192C191.65 291.448 191.373 291.645 191.053 291.784C190.743 291.923 190.413 291.992 190.061 291.992C189.709 291.992 189.373 291.923 189.053 291.784C188.743 291.645 188.471 291.448 188.237 291.192C188.002 290.925 187.815 290.6 187.677 290.216C187.549 289.821 187.485 289.373 187.485 288.872ZM186.045 288.872C186.045 289.48 186.13 290.045 186.301 290.568C186.471 291.091 186.727 291.549 187.069 291.944C187.41 292.328 187.831 292.632 188.333 292.856C188.834 293.069 189.41 293.176 190.061 293.176C190.722 293.176 191.298 293.069 191.789 292.856C192.29 292.632 192.711 292.328 193.053 291.944C193.394 291.549 193.65 291.091 193.821 290.568C193.991 290.045 194.077 289.48 194.077 288.872C194.077 288.264 193.991 287.699 193.821 287.176C193.65 286.643 193.394 286.184 193.053 285.8C192.711 285.405 192.29 285.096 191.789 284.872C191.298 284.648 190.722 284.536 190.061 284.536C189.41 284.536 188.834 284.648 188.333 284.872C187.831 285.096 187.41 285.405 187.069 285.8C186.727 286.184 186.471 286.643 186.301 287.176C186.13 287.699 186.045 288.264 186.045 288.872ZM195.68 284.728V293H197.04V288.328C197.04 287.955 197.088 287.613 197.184 287.304C197.291 286.984 197.446 286.707 197.648 286.472C197.851 286.237 198.102 286.056 198.4 285.928C198.71 285.8 199.072 285.736 199.488 285.736C200.011 285.736 200.422 285.885 200.72 286.184C201.019 286.483 201.168 286.888 201.168 287.4V293H202.528V287.56C202.528 287.112 202.48 286.707 202.384 286.344C202.299 285.971 202.144 285.651 201.92 285.384C201.696 285.117 201.403 284.909 201.04 284.76C200.678 284.611 200.224 284.536 199.68 284.536C198.454 284.536 197.558 285.037 196.992 286.04H196.96V284.728H195.68ZM205.563 288.936C205.563 288.531 205.606 288.136 205.691 287.752C205.776 287.368 205.915 287.027 206.107 286.728C206.299 286.429 206.555 286.189 206.875 286.008C207.195 285.827 207.584 285.736 208.043 285.736C208.512 285.736 208.912 285.827 209.243 286.008C209.574 286.179 209.84 286.408 210.043 286.696C210.256 286.984 210.411 287.32 210.507 287.704C210.603 288.077 210.651 288.467 210.651 288.872C210.651 289.256 210.603 289.635 210.507 290.008C210.422 290.381 210.278 290.717 210.075 291.016C209.872 291.304 209.611 291.539 209.291 291.72C208.971 291.901 208.582 291.992 208.123 291.992C207.686 291.992 207.302 291.907 206.971 291.736C206.651 291.565 206.384 291.336 206.171 291.048C205.968 290.76 205.814 290.435 205.707 290.072C205.611 289.699 205.563 289.32 205.563 288.936ZM211.963 293V281.576H210.603V285.832H210.571C210.422 285.587 210.235 285.384 210.011 285.224C209.798 285.053 209.568 284.92 209.323 284.824C209.078 284.717 208.832 284.643 208.587 284.6C208.342 284.557 208.112 284.536 207.899 284.536C207.27 284.536 206.715 284.653 206.235 284.888C205.766 285.112 205.371 285.421 205.051 285.816C204.742 286.2 204.507 286.653 204.347 287.176C204.198 287.699 204.123 288.253 204.123 288.84C204.123 289.427 204.203 289.981 204.363 290.504C204.523 291.027 204.758 291.485 205.067 291.88C205.387 292.275 205.782 292.589 206.251 292.824C206.731 293.059 207.291 293.176 207.931 293.176C208.507 293.176 209.035 293.075 209.515 292.872C209.995 292.669 210.347 292.339 210.571 291.88H210.603V293H211.963ZM221.383 292.968C221.149 293.107 220.823 293.176 220.407 293.176C220.055 293.176 219.773 293.08 219.559 292.888C219.357 292.685 219.255 292.36 219.255 291.912C218.882 292.36 218.445 292.685 217.943 292.888C217.453 293.08 216.919 293.176 216.343 293.176C215.97 293.176 215.613 293.133 215.271 293.048C214.941 292.963 214.653 292.829 214.407 292.648C214.162 292.467 213.965 292.232 213.815 291.944C213.677 291.645 213.607 291.288 213.607 290.872C213.607 290.403 213.687 290.019 213.847 289.72C214.007 289.421 214.215 289.181 214.471 289C214.738 288.808 215.037 288.664 215.367 288.568C215.709 288.472 216.055 288.392 216.407 288.328C216.781 288.253 217.133 288.2 217.463 288.168C217.805 288.125 218.103 288.072 218.359 288.008C218.615 287.933 218.818 287.832 218.967 287.704C219.117 287.565 219.191 287.368 219.191 287.112C219.191 286.813 219.133 286.573 219.015 286.392C218.909 286.211 218.765 286.072 218.583 285.976C218.413 285.88 218.215 285.816 217.991 285.784C217.778 285.752 217.565 285.736 217.351 285.736C216.775 285.736 216.295 285.848 215.911 286.072C215.527 286.285 215.319 286.696 215.287 287.304H213.927C213.949 286.792 214.055 286.36 214.247 286.008C214.439 285.656 214.695 285.373 215.015 285.16C215.335 284.936 215.698 284.776 216.103 284.68C216.519 284.584 216.962 284.536 217.431 284.536C217.805 284.536 218.173 284.563 218.535 284.616C218.909 284.669 219.245 284.781 219.543 284.952C219.842 285.112 220.082 285.341 220.263 285.64C220.445 285.939 220.535 286.328 220.535 286.808V291.064C220.535 291.384 220.551 291.619 220.583 291.768C220.626 291.917 220.754 291.992 220.967 291.992C221.085 291.992 221.223 291.965 221.383 291.912V292.968ZM219.175 288.728C219.005 288.856 218.781 288.952 218.503 289.016C218.226 289.069 217.933 289.117 217.623 289.16C217.325 289.192 217.021 289.235 216.711 289.288C216.402 289.331 216.125 289.405 215.879 289.512C215.634 289.619 215.431 289.773 215.271 289.976C215.122 290.168 215.047 290.435 215.047 290.776C215.047 291 215.09 291.192 215.175 291.352C215.271 291.501 215.389 291.624 215.527 291.72C215.677 291.816 215.847 291.885 216.039 291.928C216.231 291.971 216.434 291.992 216.647 291.992C217.095 291.992 217.479 291.933 217.799 291.816C218.119 291.688 218.381 291.533 218.583 291.352C218.786 291.16 218.935 290.957 219.031 290.744C219.127 290.52 219.175 290.312 219.175 290.12V288.728ZM222.601 284.728V293H223.961V289.32C223.961 288.787 224.014 288.317 224.121 287.912C224.228 287.496 224.398 287.144 224.633 286.856C224.868 286.568 225.177 286.349 225.561 286.2C225.945 286.051 226.409 285.976 226.953 285.976V284.536C226.217 284.515 225.609 284.664 225.129 284.984C224.649 285.304 224.244 285.8 223.913 286.472H223.881V284.728H222.601ZM231.225 294.104C231.065 294.509 230.905 294.851 230.745 295.128C230.596 295.405 230.425 295.629 230.233 295.8C230.052 295.981 229.844 296.109 229.609 296.184C229.385 296.269 229.124 296.312 228.825 296.312C228.665 296.312 228.505 296.301 228.345 296.28C228.185 296.259 228.03 296.221 227.881 296.168V294.92C227.998 294.973 228.132 295.016 228.281 295.048C228.441 295.091 228.574 295.112 228.681 295.112C228.958 295.112 229.188 295.043 229.369 294.904C229.561 294.776 229.705 294.589 229.801 294.344L230.361 292.952L227.081 284.728H228.617L231.033 291.496H231.065L233.385 284.728H234.825L231.225 294.104Z" fill="#262626"/>
<circle cx="38" cy="287" r="10" fill="#0064D9"/>
<path d="M67.84 194.856V205H69.36V194.856H73.168V193.576H64.032V194.856H67.84ZM78.1743 200.072H73.4223C73.4436 199.752 73.5129 199.453 73.6303 199.176C73.7476 198.888 73.9076 198.637 74.1103 198.424C74.3129 198.211 74.5529 198.045 74.8303 197.928C75.1183 197.8 75.4383 197.736 75.7903 197.736C76.1316 197.736 76.4409 197.8 76.7183 197.928C77.0063 198.045 77.2516 198.211 77.4543 198.424C77.6676 198.627 77.8329 198.872 77.9503 199.16C78.0783 199.448 78.1529 199.752 78.1743 200.072ZM79.4862 202.376H78.1423C78.0249 202.92 77.7796 203.325 77.4063 203.592C77.0436 203.859 76.5743 203.992 75.9983 203.992C75.5503 203.992 75.1609 203.917 74.8303 203.768C74.4996 203.619 74.2276 203.421 74.0143 203.176C73.8009 202.92 73.6463 202.632 73.5503 202.312C73.4543 201.981 73.4116 201.635 73.4223 201.272H79.6143C79.6356 200.771 79.5876 200.243 79.4703 199.688C79.3636 199.133 79.1609 198.621 78.8623 198.152C78.5743 197.683 78.1849 197.299 77.6943 197C77.2143 196.691 76.6063 196.536 75.8703 196.536C75.3049 196.536 74.7823 196.643 74.3023 196.856C73.8329 197.069 73.4223 197.368 73.0703 197.752C72.7289 198.136 72.4623 198.589 72.2703 199.112C72.0783 199.635 71.9823 200.211 71.9823 200.84C72.0036 201.469 72.0943 202.051 72.2543 202.584C72.4249 203.117 72.6756 203.576 73.0063 203.96C73.3369 204.344 73.7423 204.643 74.2223 204.856C74.7129 205.069 75.2889 205.176 75.9503 205.176C76.8889 205.176 77.6676 204.941 78.2863 204.472C78.9049 204.003 79.3049 203.304 79.4862 202.376ZM83.248 200.648L80.144 205H81.792L84.096 201.576L86.4 205H88.144L84.944 200.536L87.792 196.728H86.16L84.096 199.624L82.112 196.728H80.368L83.248 200.648ZM91.1933 196.728V194.248H89.8333V196.728H88.4253V197.928H89.8333V203.192C89.8333 203.576 89.8706 203.885 89.9453 204.12C90.0199 204.355 90.1319 204.536 90.2812 204.664C90.4413 204.792 90.6439 204.883 90.8893 204.936C91.1453 204.979 91.4493 205 91.8013 205H92.8413V203.8H92.2173C92.0039 203.8 91.8279 203.795 91.6893 203.784C91.5613 203.763 91.4599 203.725 91.3853 203.672C91.3106 203.619 91.2573 203.544 91.2253 203.448C91.2039 203.352 91.1933 203.224 91.1933 203.064V197.928H92.8413V196.728H91.1933ZM97.7761 193.304L93.0561 205.256H94.2081L98.9441 193.304H97.7761ZM99.9043 193.576V205H107.472V203.72H101.424V193.576H99.9043ZM115.899 204.968C115.664 205.107 115.339 205.176 114.923 205.176C114.571 205.176 114.288 205.08 114.075 204.888C113.872 204.685 113.771 204.36 113.771 203.912C113.398 204.36 112.96 204.685 112.459 204.888C111.968 205.08 111.435 205.176 110.859 205.176C110.486 205.176 110.128 205.133 109.787 205.048C109.456 204.963 109.168 204.829 108.923 204.648C108.678 204.467 108.48 204.232 108.331 203.944C108.192 203.645 108.123 203.288 108.123 202.872C108.123 202.403 108.203 202.019 108.363 201.72C108.523 201.421 108.731 201.181 108.987 201C109.254 200.808 109.552 200.664 109.883 200.568C110.224 200.472 110.571 200.392 110.923 200.328C111.296 200.253 111.648 200.2 111.979 200.168C112.32 200.125 112.619 200.072 112.875 200.008C113.131 199.933 113.334 199.832 113.483 199.704C113.632 199.565 113.707 199.368 113.707 199.112C113.707 198.813 113.648 198.573 113.531 198.392C113.424 198.211 113.28 198.072 113.099 197.976C112.928 197.88 112.731 197.816 112.507 197.784C112.294 197.752 112.08 197.736 111.867 197.736C111.291 197.736 110.811 197.848 110.427 198.072C110.043 198.285 109.835 198.696 109.803 199.304H108.443C108.464 198.792 108.571 198.36 108.763 198.008C108.955 197.656 109.211 197.373 109.531 197.16C109.851 196.936 110.214 196.776 110.619 196.68C111.035 196.584 111.478 196.536 111.947 196.536C112.32 196.536 112.688 196.563 113.051 196.616C113.424 196.669 113.76 196.781 114.059 196.952C114.358 197.112 114.598 197.341 114.779 197.64C114.96 197.939 115.051 198.328 115.051 198.808V203.064C115.051 203.384 115.067 203.619 115.099 203.768C115.142 203.917 115.27 203.992 115.483 203.992C115.6 203.992 115.739 203.965 115.899 203.912V204.968ZM113.691 200.728C113.52 200.856 113.296 200.952 113.019 201.016C112.742 201.069 112.448 201.117 112.139 201.16C111.84 201.192 111.536 201.235 111.227 201.288C110.918 201.331 110.64 201.405 110.395 201.512C110.15 201.619 109.947 201.773 109.787 201.976C109.638 202.168 109.563 202.435 109.563 202.776C109.563 203 109.606 203.192 109.691 203.352C109.787 203.501 109.904 203.624 110.043 203.72C110.192 203.816 110.363 203.885 110.555 203.928C110.747 203.971 110.95 203.992 111.163 203.992C111.611 203.992 111.995 203.933 112.315 203.816C112.635 203.688 112.896 203.533 113.099 203.352C113.302 203.16 113.451 202.957 113.547 202.744C113.643 202.52 113.691 202.312 113.691 202.12V200.728ZM117.213 193.576V205H118.573V203.896H118.605C118.754 204.141 118.935 204.349 119.149 204.52C119.373 204.68 119.607 204.808 119.853 204.904C120.098 205 120.343 205.069 120.589 205.112C120.845 205.155 121.074 205.176 121.277 205.176C121.906 205.176 122.455 205.064 122.925 204.84C123.405 204.616 123.799 204.312 124.109 203.928C124.429 203.533 124.663 203.075 124.813 202.552C124.973 202.029 125.053 201.475 125.053 200.888C125.053 200.301 124.973 199.747 124.813 199.224C124.653 198.701 124.413 198.243 124.093 197.848C123.783 197.443 123.389 197.123 122.909 196.888C122.439 196.653 121.885 196.536 121.245 196.536C120.669 196.536 120.141 196.643 119.661 196.856C119.181 197.059 118.829 197.389 118.605 197.848H118.573V193.576H117.213ZM123.613 200.792C123.613 201.197 123.57 201.592 123.485 201.976C123.399 202.36 123.261 202.701 123.069 203C122.877 203.299 122.621 203.539 122.301 203.72C121.991 203.901 121.602 203.992 121.133 203.992C120.663 203.992 120.263 203.907 119.933 203.736C119.602 203.555 119.33 203.32 119.117 203.032C118.914 202.744 118.765 202.413 118.669 202.04C118.573 201.656 118.525 201.261 118.525 200.856C118.525 200.472 118.567 200.093 118.653 199.72C118.749 199.347 118.898 199.016 119.101 198.728C119.303 198.429 119.565 198.189 119.885 198.008C120.205 197.827 120.594 197.736 121.053 197.736C121.49 197.736 121.869 197.821 122.189 197.992C122.519 198.163 122.786 198.392 122.989 198.68C123.202 198.968 123.357 199.299 123.453 199.672C123.559 200.035 123.613 200.408 123.613 200.792ZM132.393 200.072H127.641C127.662 199.752 127.732 199.453 127.849 199.176C127.966 198.888 128.126 198.637 128.329 198.424C128.532 198.211 128.772 198.045 129.049 197.928C129.337 197.8 129.657 197.736 130.009 197.736C130.35 197.736 130.66 197.8 130.937 197.928C131.225 198.045 131.47 198.211 131.673 198.424C131.886 198.627 132.052 198.872 132.169 199.16C132.297 199.448 132.372 199.752 132.393 200.072ZM133.705 202.376H132.361C132.244 202.92 131.998 203.325 131.625 203.592C131.262 203.859 130.793 203.992 130.217 203.992C129.769 203.992 129.38 203.917 129.049 203.768C128.718 203.619 128.446 203.421 128.233 203.176C128.02 202.92 127.865 202.632 127.769 202.312C127.673 201.981 127.63 201.635 127.641 201.272H133.833C133.854 200.771 133.806 200.243 133.689 199.688C133.582 199.133 133.38 198.621 133.081 198.152C132.793 197.683 132.404 197.299 131.913 197C131.433 196.691 130.825 196.536 130.089 196.536C129.524 196.536 129.001 196.643 128.521 196.856C128.052 197.069 127.641 197.368 127.289 197.752C126.948 198.136 126.681 198.589 126.489 199.112C126.297 199.635 126.201 200.211 126.201 200.84C126.222 201.469 126.313 202.051 126.473 202.584C126.644 203.117 126.894 203.576 127.225 203.96C127.556 204.344 127.961 204.643 128.441 204.856C128.932 205.069 129.508 205.176 130.169 205.176C131.108 205.176 131.886 204.941 132.505 204.472C133.124 204.003 133.524 203.304 133.705 202.376ZM135.323 193.576V205H136.683V193.576H135.323Z" fill="#262626"/>
<path d="M31.486 201.136L32.788 197.468H32.816L34.076 201.136H31.486ZM31.696 195.004L27.916 205H30.128L30.912 202.774H34.65L35.406 205H37.688L33.95 195.004H31.696ZM41.714 203.292C41.406 203.292 41.1493 203.227 40.944 203.096C40.7387 202.965 40.5707 202.797 40.44 202.592C40.3187 202.387 40.23 202.158 40.174 201.906C40.1273 201.645 40.104 201.383 40.104 201.122C40.104 200.851 40.132 200.595 40.188 200.352C40.2533 200.1 40.3513 199.881 40.482 199.694C40.622 199.498 40.79 199.344 40.986 199.232C41.1913 199.12 41.434 199.064 41.714 199.064C42.0407 199.064 42.3113 199.125 42.526 199.246C42.7407 199.367 42.9133 199.531 43.044 199.736C43.1747 199.941 43.268 200.179 43.324 200.45C43.38 200.711 43.408 200.991 43.408 201.29C43.408 201.551 43.3707 201.803 43.296 202.046C43.2307 202.279 43.128 202.489 42.988 202.676C42.848 202.863 42.6707 203.012 42.456 203.124C42.2413 203.236 41.994 203.292 41.714 203.292ZM45.298 204.538V197.762H43.408V198.728H43.38C43.1373 198.308 42.834 198.009 42.47 197.832C42.1153 197.655 41.7 197.566 41.224 197.566C40.72 197.566 40.272 197.664 39.88 197.86C39.4973 198.056 39.1753 198.322 38.914 198.658C38.6527 198.985 38.452 199.367 38.312 199.806C38.1813 200.235 38.116 200.683 38.116 201.15C38.116 201.645 38.172 202.116 38.284 202.564C38.4053 203.003 38.592 203.39 38.844 203.726C39.096 204.053 39.418 204.314 39.81 204.51C40.202 204.697 40.6687 204.79 41.21 204.79C41.6487 204.79 42.064 204.701 42.456 204.524C42.8573 204.337 43.1653 204.053 43.38 203.67H43.408V204.622C43.4173 205.135 43.2913 205.56 43.03 205.896C42.778 206.232 42.372 206.4 41.812 206.4C41.4573 206.4 41.1447 206.325 40.874 206.176C40.6033 206.036 40.4213 205.779 40.328 205.406H38.354C38.382 205.817 38.494 206.167 38.69 206.456C38.8953 206.755 39.1473 206.997 39.446 207.184C39.754 207.371 40.09 207.506 40.454 207.59C40.8273 207.683 41.1913 207.73 41.546 207.73C42.3767 207.73 43.0393 207.618 43.534 207.394C44.0287 207.17 44.4067 206.895 44.668 206.568C44.9293 206.251 45.0973 205.905 45.172 205.532C45.256 205.159 45.298 204.827 45.298 204.538Z" fill="#262626"/>
<rect y="36" width="368" height="128" fill="white"/>
<path d="M30.3496 89.8164H34.2227V91H28.8672V82.4688H30.3496V89.8164ZM39.0098 91C38.9473 90.8789 38.8926 90.6816 38.8457 90.4082C38.3926 90.8809 37.8379 91.1172 37.1816 91.1172C36.5449 91.1172 36.0254 90.9355 35.623 90.5723C35.2207 90.209 35.0195 89.7598 35.0195 89.2246C35.0195 88.5488 35.2695 88.0312 35.7695 87.6719C36.2734 87.3086 36.9922 87.127 37.9258 87.127H38.7988V86.7109C38.7988 86.3828 38.707 86.1211 38.5234 85.9258C38.3398 85.7266 38.0605 85.627 37.6855 85.627C37.3613 85.627 37.0957 85.709 36.8887 85.873C36.6816 86.0332 36.5781 86.2383 36.5781 86.4883H35.1543C35.1543 86.1406 35.2695 85.8164 35.5 85.5156C35.7305 85.2109 36.043 84.9727 36.4375 84.8008C36.8359 84.6289 37.2793 84.543 37.7676 84.543C38.5098 84.543 39.1016 84.7305 39.543 85.1055C39.9844 85.4766 40.2109 86 40.2227 86.6758V89.5352C40.2227 90.1055 40.3027 90.5605 40.4629 90.9004V91H39.0098ZM37.4453 89.9746C37.7266 89.9746 37.9902 89.9062 38.2363 89.7695C38.4863 89.6328 38.6738 89.4492 38.7988 89.2188V88.0234H38.0312C37.5039 88.0234 37.1074 88.1152 36.8418 88.2988C36.5762 88.4824 36.4434 88.7422 36.4434 89.0781C36.4434 89.3516 36.5332 89.5703 36.7129 89.7344C36.8965 89.8945 37.1406 89.9746 37.4453 89.9746ZM47.2773 87.8945C47.2773 88.8789 47.0566 89.6621 46.6152 90.2441C46.1777 90.8262 45.5742 91.1172 44.8047 91.1172C44.0625 91.1172 43.4844 90.8496 43.0703 90.3145L43 91H41.7109V82H43.1348V85.2695C43.5449 84.7852 44.0977 84.543 44.793 84.543C45.5664 84.543 46.1738 84.8301 46.6152 85.4043C47.0566 85.9785 47.2773 86.7812 47.2773 87.8125V87.8945ZM45.8535 87.7715C45.8535 87.084 45.7324 86.5684 45.4902 86.2246C45.248 85.8809 44.8965 85.709 44.4355 85.709C43.8184 85.709 43.3848 85.9785 43.1348 86.5176V89.1309C43.3887 89.6816 43.8262 89.957 44.4473 89.957C44.8926 89.957 45.2363 89.791 45.4785 89.459C45.7207 89.127 45.8457 88.625 45.8535 87.9531V87.7715ZM51.2676 91.1172C50.3652 91.1172 49.6328 90.834 49.0703 90.2676C48.5117 89.6973 48.2324 88.9395 48.2324 87.9941V87.8184C48.2324 87.1855 48.3535 86.6211 48.5957 86.125C48.8418 85.625 49.1855 85.2363 49.627 84.959C50.0684 84.6816 50.5605 84.543 51.1035 84.543C51.9668 84.543 52.6328 84.8184 53.1016 85.3691C53.5742 85.9199 53.8105 86.6992 53.8105 87.707V88.2812H49.668C49.7109 88.8047 49.8848 89.2188 50.1895 89.5234C50.498 89.8281 50.8848 89.9805 51.3496 89.9805C52.002 89.9805 52.5332 89.7168 52.9434 89.1895L53.7109 89.9219C53.457 90.3008 53.1172 90.5957 52.6914 90.8066C52.2695 91.0137 51.7949 91.1172 51.2676 91.1172ZM51.0977 85.6855C50.707 85.6855 50.3906 85.8223 50.1484 86.0957C49.9102 86.3691 49.7578 86.75 49.6914 87.2383H52.4043V87.1328C52.373 86.6562 52.2461 86.2969 52.0234 86.0547C51.8008 85.8086 51.4922 85.6855 51.0977 85.6855ZM56.4355 91H55.0117V82H56.4355V91Z" fill="#262626"/>
<path d="M61.9453 85.3047L60.1582 84.7891L60.4805 83.7988L62.25 84.4844L62.1621 82.4688H63.2109L63.123 84.5195L64.8633 83.8457L65.1797 84.8535L63.3633 85.3691L64.5352 86.9277L63.6855 87.5488L62.6309 85.8613L61.5879 87.4961L60.7324 86.8984L61.9453 85.3047Z" fill="#0064D9"/>
<rect y="164" width="368" height="1" stroke="#DEDEDE"/>
</g>
<defs>
<clipPath id="clip0">
<rect width="368" height="405" fill="white"/>
</clipPath>
</defs>
</svg>
