<svg width="368" height="405" viewBox="0 0 368 405" fill="none" xmlns="http://www.w3.org/2000/svg">
<g clip-path="url(#clip0)">
<rect width="368" height="405" fill="white"/>
<rect width="368" height="36" fill="#F1F1F1"/>
<path d="M35.0312 14.6641H32.3711V22H30.9004V14.6641H28.2637V13.4688H35.0312V14.6641ZM38.2832 22.1172C37.3809 22.1172 36.6484 21.834 36.0859 21.2676C35.5273 20.6973 35.248 19.9395 35.248 18.9941V18.8184C35.248 18.1855 35.3691 17.6211 35.6113 17.125C35.8574 16.625 36.2012 16.2363 36.6426 15.959C37.084 15.6816 37.5762 15.543 38.1191 15.543C38.9824 15.543 39.6484 15.8184 40.1172 16.3691C40.5898 16.9199 40.8262 17.6992 40.8262 18.707V19.2812H36.6836C36.7266 19.8047 36.9004 20.2188 37.2051 20.5234C37.5137 20.8281 37.9004 20.9805 38.3652 20.9805C39.0176 20.9805 39.5488 20.7168 39.959 20.1895L40.7266 20.9219C40.4727 21.3008 40.1328 21.5957 39.707 21.8066C39.2852 22.0137 38.8105 22.1172 38.2832 22.1172ZM38.1133 16.6855C37.7227 16.6855 37.4062 16.8223 37.1641 17.0957C36.9258 17.3691 36.7734 17.75 36.707 18.2383H39.4199V18.1328C39.3887 17.6562 39.2617 17.2969 39.0391 17.0547C38.8164 16.8086 38.5078 16.6855 38.1133 16.6855ZM44.2129 17.7461L45.4199 15.6602H47.002L45.0625 18.7832L47.0664 22H45.4961L44.2305 19.832L42.9707 22H41.3887L43.3926 18.7832L41.459 15.6602H43.0293L44.2129 17.7461ZM49.7559 14.1191V15.6602H50.875V16.7148H49.7559V20.2539C49.7559 20.4961 49.8027 20.6719 49.8965 20.7812C49.9941 20.8867 50.166 20.9395 50.4121 20.9395C50.5762 20.9395 50.7422 20.9199 50.9102 20.8809V21.9824C50.5859 22.0723 50.2734 22.1172 49.9727 22.1172C48.8789 22.1172 48.332 21.5137 48.332 20.3066V16.7148H47.2891V15.6602H48.332V14.1191H49.7559ZM61.6035 19.2227C61.5176 20.1328 61.1816 20.8438 60.5957 21.3555C60.0098 21.8633 59.2305 22.1172 58.2578 22.1172C57.5781 22.1172 56.9785 21.957 56.459 21.6367C55.9434 21.3125 55.5449 20.8535 55.2637 20.2598C54.9824 19.666 54.8359 18.9766 54.8242 18.1914V17.3945C54.8242 16.5898 54.9668 15.8809 55.252 15.2676C55.5371 14.6543 55.9453 14.1816 56.4766 13.8496C57.0117 13.5176 57.6289 13.3516 58.3281 13.3516C59.2695 13.3516 60.0273 13.6074 60.6016 14.1191C61.1758 14.6309 61.5098 15.3535 61.6035 16.2871H60.127C60.0566 15.6738 59.877 15.2324 59.5879 14.9629C59.3027 14.6895 58.8828 14.5527 58.3281 14.5527C57.6836 14.5527 57.1875 14.7891 56.8398 15.2617C56.4961 15.7305 56.3203 16.4199 56.3125 17.3301V18.0859C56.3125 19.0078 56.4766 19.7109 56.8047 20.1953C57.1367 20.6797 57.6211 20.9219 58.2578 20.9219C58.8398 20.9219 59.2773 20.791 59.5703 20.5293C59.8633 20.2676 60.0488 19.832 60.127 19.2227H61.6035ZM62.5293 18.7715C62.5293 18.1504 62.6523 17.5918 62.8984 17.0957C63.1445 16.5957 63.4902 16.2129 63.9355 15.9473C64.3809 15.6777 64.8926 15.543 65.4707 15.543C66.3262 15.543 67.0195 15.8184 67.5508 16.3691C68.0859 16.9199 68.375 17.6504 68.418 18.5605L68.4238 18.8945C68.4238 19.5195 68.3027 20.0781 68.0605 20.5703C67.8223 21.0625 67.4785 21.4434 67.0293 21.7129C66.584 21.9824 66.0684 22.1172 65.4824 22.1172C64.5879 22.1172 63.8711 21.8203 63.332 21.2266C62.7969 20.6289 62.5293 19.834 62.5293 18.8418V18.7715ZM63.9531 18.8945C63.9531 19.5469 64.0879 20.0586 64.3574 20.4297C64.627 20.7969 65.002 20.9805 65.4824 20.9805C65.9629 20.9805 66.3359 20.793 66.6016 20.418C66.8711 20.043 67.0059 19.4941 67.0059 18.7715C67.0059 18.1309 66.8672 17.623 66.5898 17.248C66.3164 16.873 65.9434 16.6855 65.4707 16.6855C65.0059 16.6855 64.6367 16.8711 64.3633 17.2422C64.0898 17.6094 63.9531 18.1602 63.9531 18.8945ZM70.9668 15.6602L71.0078 16.3223C71.4531 15.8027 72.0625 15.543 72.8359 15.543C73.6836 15.543 74.2637 15.8672 74.5762 16.5156C75.0371 15.8672 75.6855 15.543 76.5215 15.543C77.2207 15.543 77.7402 15.7363 78.0801 16.123C78.4238 16.5098 78.5996 17.0801 78.6074 17.834V22H77.1836V17.875C77.1836 17.4727 77.0957 17.1777 76.9199 16.9902C76.7441 16.8027 76.4531 16.709 76.0469 16.709C75.7227 16.709 75.457 16.7969 75.25 16.9727C75.0469 17.1445 74.9043 17.3711 74.8223 17.6523L74.8281 22H73.4043V17.8281C73.3848 17.082 73.0039 16.709 72.2617 16.709C71.6914 16.709 71.2871 16.9414 71.0488 17.4062V22H69.625V15.6602H70.9668ZM85.6211 18.8945C85.6211 19.875 85.3984 20.6582 84.9531 21.2441C84.5078 21.8262 83.9102 22.1172 83.1602 22.1172C82.4648 22.1172 81.9082 21.8887 81.4902 21.4316V24.4375H80.0664V15.6602H81.3789L81.4375 16.3047C81.8555 15.7969 82.4238 15.543 83.1426 15.543C83.916 15.543 84.5215 15.832 84.959 16.4102C85.4004 16.9844 85.6211 17.7832 85.6211 18.8066V18.8945ZM84.2031 18.7715C84.2031 18.1387 84.0762 17.6367 83.8223 17.2656C83.5723 16.8945 83.2129 16.709 82.7441 16.709C82.1621 16.709 81.7441 16.9492 81.4902 17.4297V20.2422C81.748 20.7344 82.1699 20.9805 82.7559 20.9805C83.209 20.9805 83.5625 20.7988 83.8164 20.4355C84.0742 20.0684 84.2031 19.5137 84.2031 18.7715ZM86.5645 18.7715C86.5645 18.1504 86.6875 17.5918 86.9336 17.0957C87.1797 16.5957 87.5254 16.2129 87.9707 15.9473C88.416 15.6777 88.9277 15.543 89.5059 15.543C90.3613 15.543 91.0547 15.8184 91.5859 16.3691C92.1211 16.9199 92.4102 17.6504 92.4531 18.5605L92.459 18.8945C92.459 19.5195 92.3379 20.0781 92.0957 20.5703C91.8574 21.0625 91.5137 21.4434 91.0645 21.7129C90.6191 21.9824 90.1035 22.1172 89.5176 22.1172C88.623 22.1172 87.9062 21.8203 87.3672 21.2266C86.832 20.6289 86.5645 19.834 86.5645 18.8418V18.7715ZM87.9883 18.8945C87.9883 19.5469 88.123 20.0586 88.3926 20.4297C88.6621 20.7969 89.0371 20.9805 89.5176 20.9805C89.998 20.9805 90.3711 20.793 90.6367 20.418C90.9062 20.043 91.041 19.4941 91.041 18.7715C91.041 18.1309 90.9023 17.623 90.625 17.248C90.3516 16.873 89.9785 16.6855 89.5059 16.6855C89.041 16.6855 88.6719 16.8711 88.3984 17.2422C88.125 17.6094 87.9883 18.1602 87.9883 18.8945ZM94.9844 15.6602L95.0254 16.3926C95.4941 15.8262 96.1094 15.543 96.8711 15.543C98.1914 15.543 98.8633 16.2988 98.8867 17.8105V22H97.4629V17.8926C97.4629 17.4902 97.375 17.1934 97.1992 17.002C97.0273 16.8066 96.7441 16.709 96.3496 16.709C95.7754 16.709 95.3477 16.9688 95.0664 17.4883V22H93.6426V15.6602H94.9844ZM103.135 22.1172C102.232 22.1172 101.5 21.834 100.938 21.2676C100.379 20.6973 100.1 19.9395 100.1 18.9941V18.8184C100.1 18.1855 100.221 17.6211 100.463 17.125C100.709 16.625 101.053 16.2363 101.494 15.959C101.936 15.6816 102.428 15.543 102.971 15.543C103.834 15.543 104.5 15.8184 104.969 16.3691C105.441 16.9199 105.678 17.6992 105.678 18.707V19.2812H101.535C101.578 19.8047 101.752 20.2188 102.057 20.5234C102.365 20.8281 102.752 20.9805 103.217 20.9805C103.869 20.9805 104.4 20.7168 104.811 20.1895L105.578 20.9219C105.324 21.3008 104.984 21.5957 104.559 21.8066C104.137 22.0137 103.662 22.1172 103.135 22.1172ZM102.965 16.6855C102.574 16.6855 102.258 16.8223 102.016 17.0957C101.777 17.3691 101.625 17.75 101.559 18.2383H104.271V18.1328C104.24 17.6562 104.113 17.2969 103.891 17.0547C103.668 16.8086 103.359 16.6855 102.965 16.6855ZM108.109 15.6602L108.15 16.3926C108.619 15.8262 109.234 15.543 109.996 15.543C111.316 15.543 111.988 16.2988 112.012 17.8105V22H110.588V17.8926C110.588 17.4902 110.5 17.1934 110.324 17.002C110.152 16.8066 109.869 16.709 109.475 16.709C108.9 16.709 108.473 16.9688 108.191 17.4883V22H106.768V15.6602H108.109ZM115.252 14.1191V15.6602H116.371V16.7148H115.252V20.2539C115.252 20.4961 115.299 20.6719 115.393 20.7812C115.49 20.8867 115.662 20.9395 115.908 20.9395C116.072 20.9395 116.238 20.9199 116.406 20.8809V21.9824C116.082 22.0723 115.77 22.1172 115.469 22.1172C114.375 22.1172 113.828 21.5137 113.828 20.3066V16.7148H112.785V15.6602H113.828V14.1191H115.252ZM128.436 18.3613H120.479V17.2129H128.436V18.3613ZM137.846 18.1914H134.342V20.8164H138.438V22H132.859V13.4688H138.396V14.6641H134.342V17.0195H137.846V18.1914ZM142.826 16.9609C142.639 16.9297 142.445 16.9141 142.246 16.9141C141.594 16.9141 141.154 17.1641 140.928 17.6641V22H139.504V15.6602H140.863L140.898 16.3691C141.242 15.8184 141.719 15.543 142.328 15.543C142.531 15.543 142.699 15.5703 142.832 15.625L142.826 16.9609ZM147.045 16.9609C146.857 16.9297 146.664 16.9141 146.465 16.9141C145.812 16.9141 145.373 17.1641 145.146 17.6641V22H143.723V15.6602H145.082L145.117 16.3691C145.461 15.8184 145.938 15.543 146.547 15.543C146.75 15.543 146.918 15.5703 147.051 15.625L147.045 16.9609ZM147.467 18.7715C147.467 18.1504 147.59 17.5918 147.836 17.0957C148.082 16.5957 148.428 16.2129 148.873 15.9473C149.318 15.6777 149.83 15.543 150.408 15.543C151.264 15.543 151.957 15.8184 152.488 16.3691C153.023 16.9199 153.312 17.6504 153.355 18.5605L153.361 18.8945C153.361 19.5195 153.24 20.0781 152.998 20.5703C152.76 21.0625 152.416 21.4434 151.967 21.7129C151.521 21.9824 151.006 22.1172 150.42 22.1172C149.525 22.1172 148.809 21.8203 148.27 21.2266C147.734 20.6289 147.467 19.834 147.467 18.8418V18.7715ZM148.891 18.8945C148.891 19.5469 149.025 20.0586 149.295 20.4297C149.564 20.7969 149.939 20.9805 150.42 20.9805C150.9 20.9805 151.273 20.793 151.539 20.418C151.809 20.043 151.943 19.4941 151.943 18.7715C151.943 18.1309 151.805 17.623 151.527 17.248C151.254 16.873 150.881 16.6855 150.408 16.6855C149.943 16.6855 149.574 16.8711 149.301 17.2422C149.027 17.6094 148.891 18.1602 148.891 18.8945ZM157.885 16.9609C157.697 16.9297 157.504 16.9141 157.305 16.9141C156.652 16.9141 156.213 17.1641 155.986 17.6641V22H154.562V15.6602H155.922L155.957 16.3691C156.301 15.8184 156.777 15.543 157.387 15.543C157.59 15.543 157.758 15.5703 157.891 15.625L157.885 16.9609Z" fill="black"/>
<rect y="164" width="368" height="241" fill="white"/>
<path d="M67.84 194.856V205H69.36V194.856H73.168V193.576H64.032V194.856H67.84ZM78.1743 200.072H73.4223C73.4436 199.752 73.5129 199.453 73.6303 199.176C73.7476 198.888 73.9076 198.637 74.1103 198.424C74.3129 198.211 74.5529 198.045 74.8303 197.928C75.1183 197.8 75.4383 197.736 75.7903 197.736C76.1316 197.736 76.4409 197.8 76.7183 197.928C77.0063 198.045 77.2516 198.211 77.4543 198.424C77.6676 198.627 77.8329 198.872 77.9503 199.16C78.0783 199.448 78.1529 199.752 78.1743 200.072ZM79.4862 202.376H78.1423C78.0249 202.92 77.7796 203.325 77.4063 203.592C77.0436 203.859 76.5743 203.992 75.9983 203.992C75.5503 203.992 75.1609 203.917 74.8303 203.768C74.4996 203.619 74.2276 203.421 74.0143 203.176C73.8009 202.92 73.6463 202.632 73.5503 202.312C73.4543 201.981 73.4116 201.635 73.4223 201.272H79.6143C79.6356 200.771 79.5876 200.243 79.4703 199.688C79.3636 199.133 79.1609 198.621 78.8623 198.152C78.5743 197.683 78.1849 197.299 77.6943 197C77.2143 196.691 76.6063 196.536 75.8703 196.536C75.3049 196.536 74.7823 196.643 74.3023 196.856C73.8329 197.069 73.4223 197.368 73.0703 197.752C72.7289 198.136 72.4623 198.589 72.2703 199.112C72.0783 199.635 71.9823 200.211 71.9823 200.84C72.0036 201.469 72.0943 202.051 72.2543 202.584C72.4249 203.117 72.6756 203.576 73.0063 203.96C73.3369 204.344 73.7423 204.643 74.2223 204.856C74.7129 205.069 75.2889 205.176 75.9503 205.176C76.8889 205.176 77.6676 204.941 78.2863 204.472C78.9049 204.003 79.3049 203.304 79.4862 202.376ZM83.248 200.648L80.144 205H81.792L84.096 201.576L86.4 205H88.144L84.944 200.536L87.792 196.728H86.16L84.096 199.624L82.112 196.728H80.368L83.248 200.648ZM91.1933 196.728V194.248H89.8333V196.728H88.4253V197.928H89.8333V203.192C89.8333 203.576 89.8706 203.885 89.9453 204.12C90.0199 204.355 90.1319 204.536 90.2812 204.664C90.4413 204.792 90.6439 204.883 90.8893 204.936C91.1453 204.979 91.4493 205 91.8013 205H92.8413V203.8H92.2173C92.0039 203.8 91.8279 203.795 91.6893 203.784C91.5613 203.763 91.4599 203.725 91.3853 203.672C91.3106 203.619 91.2573 203.544 91.2253 203.448C91.2039 203.352 91.1933 203.224 91.1933 203.064V197.928H92.8413V196.728H91.1933ZM97.7761 193.304L93.0561 205.256H94.2081L98.9441 193.304H97.7761ZM99.6803 193.576V205H101.04V200.328C101.04 199.955 101.088 199.613 101.184 199.304C101.291 198.984 101.446 198.707 101.648 198.472C101.851 198.237 102.102 198.056 102.4 197.928C102.71 197.8 103.072 197.736 103.488 197.736C104.011 197.736 104.422 197.885 104.72 198.184C105.019 198.483 105.168 198.888 105.168 199.4V205H106.528V199.56C106.528 199.112 106.48 198.707 106.384 198.344C106.299 197.971 106.144 197.651 105.92 197.384C105.696 197.117 105.403 196.909 105.04 196.76C104.678 196.611 104.224 196.536 103.68 196.536C103.435 196.536 103.179 196.563 102.912 196.616C102.656 196.669 102.406 196.755 102.16 196.872C101.926 196.979 101.712 197.123 101.52 197.304C101.328 197.475 101.179 197.688 101.072 197.944H101.04V193.576H99.6803ZM110.011 195.24V193.576H108.651V195.24H110.011ZM108.651 196.728V205H110.011V196.728H108.651ZM112.118 196.728V205H113.478V200.328C113.478 199.955 113.526 199.613 113.622 199.304C113.728 198.984 113.883 198.707 114.086 198.472C114.288 198.237 114.539 198.056 114.838 197.928C115.147 197.8 115.51 197.736 115.926 197.736C116.448 197.736 116.859 197.885 117.158 198.184C117.456 198.483 117.606 198.888 117.606 199.4V205H118.966V199.56C118.966 199.112 118.918 198.707 118.822 198.344C118.736 197.971 118.582 197.651 118.358 197.384C118.134 197.117 117.84 196.909 117.478 196.76C117.115 196.611 116.662 196.536 116.118 196.536C114.891 196.536 113.995 197.037 113.43 198.04H113.398V196.728H112.118ZM122.896 196.728V194.248H121.536V196.728H120.128V197.928H121.536V203.192C121.536 203.576 121.574 203.885 121.648 204.12C121.723 204.355 121.835 204.536 121.984 204.664C122.144 204.792 122.347 204.883 122.592 204.936C122.848 204.979 123.152 205 123.504 205H124.544V203.8H123.92C123.707 203.8 123.531 203.795 123.392 203.784C123.264 203.763 123.163 203.725 123.088 203.672C123.014 203.619 122.96 203.544 122.928 203.448C122.907 203.352 122.896 203.224 122.896 203.064V197.928H124.544V196.728H122.896Z" fill="#262626"/>
<path d="M31.486 201.136L32.788 197.468H32.816L34.076 201.136H31.486ZM31.696 195.004L27.916 205H30.128L30.912 202.774H34.65L35.406 205H37.688L33.95 195.004H31.696ZM41.714 203.292C41.406 203.292 41.1493 203.227 40.944 203.096C40.7387 202.965 40.5707 202.797 40.44 202.592C40.3187 202.387 40.23 202.158 40.174 201.906C40.1273 201.645 40.104 201.383 40.104 201.122C40.104 200.851 40.132 200.595 40.188 200.352C40.2533 200.1 40.3513 199.881 40.482 199.694C40.622 199.498 40.79 199.344 40.986 199.232C41.1913 199.12 41.434 199.064 41.714 199.064C42.0407 199.064 42.3113 199.125 42.526 199.246C42.7407 199.367 42.9133 199.531 43.044 199.736C43.1747 199.941 43.268 200.179 43.324 200.45C43.38 200.711 43.408 200.991 43.408 201.29C43.408 201.551 43.3707 201.803 43.296 202.046C43.2307 202.279 43.128 202.489 42.988 202.676C42.848 202.863 42.6707 203.012 42.456 203.124C42.2413 203.236 41.994 203.292 41.714 203.292ZM45.298 204.538V197.762H43.408V198.728H43.38C43.1373 198.308 42.834 198.009 42.47 197.832C42.1153 197.655 41.7 197.566 41.224 197.566C40.72 197.566 40.272 197.664 39.88 197.86C39.4973 198.056 39.1753 198.322 38.914 198.658C38.6527 198.985 38.452 199.367 38.312 199.806C38.1813 200.235 38.116 200.683 38.116 201.15C38.116 201.645 38.172 202.116 38.284 202.564C38.4053 203.003 38.592 203.39 38.844 203.726C39.096 204.053 39.418 204.314 39.81 204.51C40.202 204.697 40.6687 204.79 41.21 204.79C41.6487 204.79 42.064 204.701 42.456 204.524C42.8573 204.337 43.1653 204.053 43.38 203.67H43.408V204.622C43.4173 205.135 43.2913 205.56 43.03 205.896C42.778 206.232 42.372 206.4 41.812 206.4C41.4573 206.4 41.1447 206.325 40.874 206.176C40.6033 206.036 40.4213 205.779 40.328 205.406H38.354C38.382 205.817 38.494 206.167 38.69 206.456C38.8953 206.755 39.1473 206.997 39.446 207.184C39.754 207.371 40.09 207.506 40.454 207.59C40.8273 207.683 41.1913 207.73 41.546 207.73C42.3767 207.73 43.0393 207.618 43.534 207.394C44.0287 207.17 44.4067 206.895 44.668 206.568C44.9293 206.251 45.0973 205.905 45.172 205.532C45.256 205.159 45.298 204.827 45.298 204.538Z" fill="#262626"/>
<path d="M70.64 243.384H72.048C71.9947 242.893 71.8667 242.472 71.664 242.12C71.4613 241.757 71.2 241.459 70.88 241.224C70.5707 240.989 70.208 240.819 69.792 240.712C69.3867 240.595 68.9493 240.536 68.48 240.536C67.8293 240.536 67.2587 240.653 66.768 240.888C66.2773 241.112 65.8667 241.427 65.536 241.832C65.216 242.227 64.976 242.696 64.816 243.24C64.656 243.773 64.576 244.349 64.576 244.968C64.576 245.587 64.656 246.157 64.816 246.68C64.9867 247.192 65.232 247.635 65.552 248.008C65.8827 248.381 66.288 248.669 66.768 248.872C67.2587 249.075 67.8187 249.176 68.448 249.176C69.504 249.176 70.336 248.899 70.944 248.344C71.5627 247.789 71.9467 247 72.096 245.976H70.704C70.6187 246.616 70.384 247.112 70 247.464C69.6267 247.816 69.104 247.992 68.432 247.992C68.0053 247.992 67.6373 247.907 67.328 247.736C67.0187 247.565 66.768 247.341 66.576 247.064C66.384 246.776 66.24 246.451 66.144 246.088C66.0587 245.725 66.016 245.352 66.016 244.968C66.016 244.552 66.0587 244.152 66.144 243.768C66.2293 243.373 66.368 243.027 66.56 242.728C66.7627 242.429 67.0293 242.189 67.36 242.008C67.6907 241.827 68.1013 241.736 68.592 241.736C69.168 241.736 69.6267 241.88 69.968 242.168C70.3093 242.456 70.5333 242.861 70.64 243.384ZM74.6098 244.872C74.6098 244.371 74.6738 243.928 74.8018 243.544C74.9404 243.149 75.1271 242.819 75.3618 242.552C75.5964 242.285 75.8684 242.083 76.1778 241.944C76.4978 241.805 76.8338 241.736 77.1858 241.736C77.5378 241.736 77.8684 241.805 78.1778 241.944C78.4978 242.083 78.7751 242.285 79.0098 242.552C79.2444 242.819 79.4258 243.149 79.5538 243.544C79.6924 243.928 79.7618 244.371 79.7618 244.872C79.7618 245.373 79.6924 245.821 79.5538 246.216C79.4258 246.6 79.2444 246.925 79.0098 247.192C78.7751 247.448 78.4978 247.645 78.1778 247.784C77.8684 247.923 77.5378 247.992 77.1858 247.992C76.8338 247.992 76.4978 247.923 76.1778 247.784C75.8684 247.645 75.5964 247.448 75.3618 247.192C75.1271 246.925 74.9404 246.6 74.8018 246.216C74.6738 245.821 74.6098 245.373 74.6098 244.872ZM73.1698 244.872C73.1698 245.48 73.2551 246.045 73.4258 246.568C73.5964 247.091 73.8524 247.549 74.1938 247.944C74.5351 248.328 74.9564 248.632 75.4578 248.856C75.9591 249.069 76.5351 249.176 77.1858 249.176C77.8471 249.176 78.4231 249.069 78.9138 248.856C79.4151 248.632 79.8364 248.328 80.1778 247.944C80.5191 247.549 80.7751 247.091 80.9458 246.568C81.1164 246.045 81.2018 245.48 81.2018 244.872C81.2018 244.264 81.1164 243.699 80.9458 243.176C80.7751 242.643 80.5191 242.184 80.1778 241.8C79.8364 241.405 79.4151 241.096 78.9138 240.872C78.4231 240.648 77.8471 240.536 77.1858 240.536C76.5351 240.536 75.9591 240.648 75.4578 240.872C74.9564 241.096 74.5351 241.405 74.1938 241.8C73.8524 242.184 73.5964 242.643 73.4258 243.176C73.2551 243.699 73.1698 244.264 73.1698 244.872ZM82.8853 237.576V249H84.2453V237.576H82.8853ZM87.3441 244.872C87.3441 244.371 87.4081 243.928 87.5361 243.544C87.6748 243.149 87.8615 242.819 88.0961 242.552C88.3308 242.285 88.6028 242.083 88.9121 241.944C89.2321 241.805 89.5681 241.736 89.9201 241.736C90.2721 241.736 90.6028 241.805 90.9121 241.944C91.2321 242.083 91.5095 242.285 91.7441 242.552C91.9788 242.819 92.1601 243.149 92.2881 243.544C92.4268 243.928 92.4961 244.371 92.4961 244.872C92.4961 245.373 92.4268 245.821 92.2881 246.216C92.1601 246.6 91.9788 246.925 91.7441 247.192C91.5095 247.448 91.2321 247.645 90.9121 247.784C90.6028 247.923 90.2721 247.992 89.9201 247.992C89.5681 247.992 89.2321 247.923 88.9121 247.784C88.6028 247.645 88.3308 247.448 88.0961 247.192C87.8615 246.925 87.6748 246.6 87.5361 246.216C87.4081 245.821 87.3441 245.373 87.3441 244.872ZM85.9041 244.872C85.9041 245.48 85.9895 246.045 86.1601 246.568C86.3308 247.091 86.5868 247.549 86.9281 247.944C87.2695 248.328 87.6908 248.632 88.1921 248.856C88.6935 249.069 89.2695 249.176 89.9201 249.176C90.5815 249.176 91.1575 249.069 91.6481 248.856C92.1495 248.632 92.5708 248.328 92.9121 247.944C93.2535 247.549 93.5095 247.091 93.6801 246.568C93.8508 246.045 93.9361 245.48 93.9361 244.872C93.9361 244.264 93.8508 243.699 93.6801 243.176C93.5095 242.643 93.2535 242.184 92.9121 241.8C92.5708 241.405 92.1495 241.096 91.6481 240.872C91.1575 240.648 90.5815 240.536 89.9201 240.536C89.2695 240.536 88.6935 240.648 88.1921 240.872C87.6908 241.096 87.2695 241.405 86.9281 241.8C86.5868 242.184 86.3308 242.643 86.1601 243.176C85.9895 243.699 85.9041 244.264 85.9041 244.872ZM95.4916 240.728V249H96.8516V245.32C96.8516 244.787 96.905 244.317 97.0116 243.912C97.1183 243.496 97.289 243.144 97.5236 242.856C97.7583 242.568 98.0676 242.349 98.4516 242.2C98.8356 242.051 99.2996 241.976 99.8436 241.976V240.536C99.1076 240.515 98.4996 240.664 98.0196 240.984C97.5396 241.304 97.1343 241.8 96.8036 242.472H96.7716V240.728H95.4916ZM101.7 246.392H100.34C100.361 246.904 100.468 247.341 100.66 247.704C100.852 248.056 101.108 248.344 101.428 248.568C101.748 248.781 102.116 248.936 102.532 249.032C102.948 249.128 103.385 249.176 103.844 249.176C104.26 249.176 104.676 249.133 105.092 249.048C105.518 248.973 105.897 248.835 106.228 248.632C106.569 248.429 106.841 248.163 107.044 247.832C107.257 247.501 107.364 247.085 107.364 246.584C107.364 246.189 107.284 245.859 107.124 245.592C106.974 245.325 106.772 245.107 106.516 244.936C106.27 244.755 105.982 244.611 105.652 244.504C105.332 244.397 105.001 244.307 104.66 244.232C104.34 244.157 104.02 244.088 103.7 244.024C103.38 243.949 103.092 243.864 102.836 243.768C102.58 243.661 102.366 243.533 102.196 243.384C102.036 243.224 101.956 243.027 101.956 242.792C101.956 242.579 102.009 242.408 102.116 242.28C102.222 242.141 102.361 242.035 102.532 241.96C102.702 241.875 102.889 241.816 103.092 241.784C103.305 241.752 103.513 241.736 103.716 241.736C103.94 241.736 104.158 241.763 104.372 241.816C104.596 241.859 104.798 241.933 104.98 242.04C105.161 242.147 105.31 242.291 105.428 242.472C105.545 242.643 105.614 242.861 105.636 243.128H106.996C106.964 242.627 106.857 242.211 106.676 241.88C106.494 241.539 106.249 241.272 105.94 241.08C105.641 240.877 105.294 240.739 104.9 240.664C104.505 240.579 104.073 240.536 103.604 240.536C103.241 240.536 102.873 240.584 102.5 240.68C102.137 240.765 101.806 240.904 101.508 241.096C101.22 241.277 100.98 241.517 100.788 241.816C100.606 242.115 100.516 242.472 100.516 242.888C100.516 243.421 100.649 243.837 100.916 244.136C101.182 244.435 101.513 244.669 101.908 244.84C102.313 245 102.75 245.128 103.22 245.224C103.689 245.309 104.121 245.411 104.516 245.528C104.921 245.635 105.257 245.779 105.524 245.96C105.79 246.141 105.924 246.408 105.924 246.76C105.924 247.016 105.86 247.229 105.732 247.4C105.604 247.56 105.438 247.683 105.236 247.768C105.044 247.853 104.83 247.912 104.596 247.944C104.361 247.976 104.137 247.992 103.924 247.992C103.646 247.992 103.374 247.965 103.108 247.912C102.852 247.859 102.617 247.773 102.404 247.656C102.201 247.528 102.036 247.363 101.908 247.16C101.78 246.947 101.71 246.691 101.7 246.392ZM112.292 237.304L107.572 249.256H108.724L113.46 237.304H112.292ZM116.084 240.728V238.248H114.724V240.728H113.316V241.928H114.724V247.192C114.724 247.576 114.761 247.885 114.836 248.12C114.911 248.355 115.023 248.536 115.172 248.664C115.332 248.792 115.535 248.883 115.78 248.936C116.036 248.979 116.34 249 116.692 249H117.732V247.8H117.108C116.895 247.8 116.719 247.795 116.58 247.784C116.452 247.763 116.351 247.725 116.276 247.672C116.201 247.619 116.148 247.544 116.116 247.448C116.095 247.352 116.084 247.224 116.084 247.064V241.928H117.732V240.728H116.084ZM124.987 244.072H120.235C120.256 243.752 120.325 243.453 120.443 243.176C120.56 242.888 120.72 242.637 120.923 242.424C121.125 242.211 121.365 242.045 121.643 241.928C121.931 241.8 122.251 241.736 122.603 241.736C122.944 241.736 123.253 241.8 123.531 241.928C123.819 242.045 124.064 242.211 124.267 242.424C124.48 242.627 124.645 242.872 124.763 243.16C124.891 243.448 124.965 243.752 124.987 244.072ZM126.299 246.376H124.955C124.837 246.92 124.592 247.325 124.219 247.592C123.856 247.859 123.387 247.992 122.811 247.992C122.363 247.992 121.973 247.917 121.643 247.768C121.312 247.619 121.04 247.421 120.827 247.176C120.613 246.92 120.459 246.632 120.363 246.312C120.267 245.981 120.224 245.635 120.235 245.272H126.427C126.448 244.771 126.4 244.243 126.283 243.688C126.176 243.133 125.973 242.621 125.675 242.152C125.387 241.683 124.997 241.299 124.507 241C124.027 240.691 123.419 240.536 122.683 240.536C122.117 240.536 121.595 240.643 121.115 240.856C120.645 241.069 120.235 241.368 119.883 241.752C119.541 242.136 119.275 242.589 119.083 243.112C118.891 243.635 118.795 244.211 118.795 244.84C118.816 245.469 118.907 246.051 119.067 246.584C119.237 247.117 119.488 247.576 119.819 247.96C120.149 248.344 120.555 248.643 121.035 248.856C121.525 249.069 122.101 249.176 122.763 249.176C123.701 249.176 124.48 248.941 125.099 248.472C125.717 248.003 126.117 247.304 126.299 246.376ZM130.061 244.648L126.957 249H128.605L130.909 245.576L133.213 249H134.957L131.757 244.536L134.605 240.728H132.973L130.909 243.624L128.924 240.728H127.181L130.061 244.648ZM138.006 240.728V238.248H136.646V240.728H135.238V241.928H136.646V247.192C136.646 247.576 136.683 247.885 136.758 248.12C136.832 248.355 136.944 248.536 137.094 248.664C137.254 248.792 137.456 248.883 137.702 248.936C137.958 248.979 138.262 249 138.614 249H139.654V247.8H139.03C138.816 247.8 138.64 247.795 138.502 247.784C138.374 247.763 138.272 247.725 138.198 247.672C138.123 247.619 138.07 247.544 138.038 247.448C138.016 247.352 138.006 247.224 138.006 247.064V241.928H139.654V240.728H138.006ZM144.589 237.304L139.869 249.256H141.021L145.757 237.304H144.589ZM152.237 244.072H147.485C147.506 243.752 147.575 243.453 147.693 243.176C147.81 242.888 147.97 242.637 148.173 242.424C148.375 242.211 148.615 242.045 148.893 241.928C149.181 241.8 149.501 241.736 149.853 241.736C150.194 241.736 150.503 241.8 150.781 241.928C151.069 242.045 151.314 242.211 151.517 242.424C151.73 242.627 151.895 242.872 152.013 243.16C152.141 243.448 152.215 243.752 152.237 244.072ZM153.549 246.376H152.205C152.087 246.92 151.842 247.325 151.469 247.592C151.106 247.859 150.637 247.992 150.061 247.992C149.613 247.992 149.223 247.917 148.893 247.768C148.562 247.619 148.29 247.421 148.077 247.176C147.863 246.92 147.709 246.632 147.613 246.312C147.517 245.981 147.474 245.635 147.485 245.272H153.677C153.698 244.771 153.65 244.243 153.533 243.688C153.426 243.133 153.223 242.621 152.925 242.152C152.637 241.683 152.247 241.299 151.757 241C151.277 240.691 150.669 240.536 149.933 240.536C149.367 240.536 148.845 240.643 148.365 240.856C147.895 241.069 147.485 241.368 147.133 241.752C146.791 242.136 146.525 242.589 146.333 243.112C146.141 243.635 146.045 244.211 146.045 244.84C146.066 245.469 146.157 246.051 146.317 246.584C146.487 247.117 146.738 247.576 147.069 247.96C147.399 248.344 147.805 248.643 148.285 248.856C148.775 249.069 149.351 249.176 150.013 249.176C150.951 249.176 151.73 248.941 152.349 248.472C152.967 248.003 153.367 247.304 153.549 246.376ZM155.039 240.728V249H156.399V245.32C156.399 244.787 156.452 244.317 156.559 243.912C156.665 243.496 156.836 243.144 157.071 242.856C157.305 242.568 157.615 242.349 157.999 242.2C158.383 242.051 158.847 241.976 159.391 241.976V240.536C158.655 240.515 158.047 240.664 157.567 240.984C157.087 241.304 156.681 241.8 156.351 242.472H156.319V240.728H155.039ZM160.367 240.728V249H161.727V245.32C161.727 244.787 161.78 244.317 161.887 243.912C161.993 243.496 162.164 243.144 162.399 242.856C162.633 242.568 162.943 242.349 163.327 242.2C163.711 242.051 164.175 241.976 164.719 241.976V240.536C163.983 240.515 163.375 240.664 162.895 240.984C162.415 241.304 162.009 241.8 161.679 242.472H161.647V240.728H160.367ZM166.454 244.872C166.454 244.371 166.518 243.928 166.646 243.544C166.784 243.149 166.971 242.819 167.206 242.552C167.44 242.285 167.712 242.083 168.022 241.944C168.342 241.805 168.678 241.736 169.03 241.736C169.382 241.736 169.712 241.805 170.022 241.944C170.342 242.083 170.619 242.285 170.854 242.552C171.088 242.819 171.27 243.149 171.398 243.544C171.536 243.928 171.606 244.371 171.606 244.872C171.606 245.373 171.536 245.821 171.398 246.216C171.27 246.6 171.088 246.925 170.854 247.192C170.619 247.448 170.342 247.645 170.022 247.784C169.712 247.923 169.382 247.992 169.03 247.992C168.678 247.992 168.342 247.923 168.022 247.784C167.712 247.645 167.44 247.448 167.206 247.192C166.971 246.925 166.784 246.6 166.646 246.216C166.518 245.821 166.454 245.373 166.454 244.872ZM165.014 244.872C165.014 245.48 165.099 246.045 165.27 246.568C165.44 247.091 165.696 247.549 166.038 247.944C166.379 248.328 166.8 248.632 167.302 248.856C167.803 249.069 168.379 249.176 169.03 249.176C169.691 249.176 170.267 249.069 170.758 248.856C171.259 248.632 171.68 248.328 172.022 247.944C172.363 247.549 172.619 247.091 172.79 246.568C172.96 246.045 173.046 245.48 173.046 244.872C173.046 244.264 172.96 243.699 172.79 243.176C172.619 242.643 172.363 242.184 172.022 241.8C171.68 241.405 171.259 241.096 170.758 240.872C170.267 240.648 169.691 240.536 169.03 240.536C168.379 240.536 167.803 240.648 167.302 240.872C166.8 241.096 166.379 241.405 166.038 241.8C165.696 242.184 165.44 242.643 165.27 243.176C165.099 243.699 165.014 244.264 165.014 244.872ZM174.601 240.728V249H175.961V245.32C175.961 244.787 176.014 244.317 176.121 243.912C176.228 243.496 176.398 243.144 176.633 242.856C176.868 242.568 177.177 242.349 177.561 242.2C177.945 242.051 178.409 241.976 178.953 241.976V240.536C178.217 240.515 177.609 240.664 177.129 240.984C176.649 241.304 176.244 241.8 175.913 242.472H175.881V240.728H174.601Z" fill="#262626"/>
<circle cx="38" cy="243" r="10" fill="#D0421B"/>
<rect y="36" width="368" height="128" fill="white"/>
<path d="M28.78 96.86V104H33.74V103.2H29.73V100.73H33.44V99.93H29.73V97.66H33.71V96.86H28.78ZM34.7233 98.83V104H35.5733V101.7C35.5733 101.367 35.6066 101.073 35.6733 100.82C35.7399 100.56 35.8466 100.34 35.9933 100.16C36.1399 99.98 36.3333 99.8433 36.5733 99.75C36.8133 99.6567 37.1033 99.61 37.4433 99.61V98.71C36.9833 98.6967 36.6033 98.79 36.3033 98.99C36.0033 99.19 35.7499 99.5 35.5433 99.92H35.5233V98.83H34.7233ZM38.0534 98.83V104H38.9034V101.7C38.9034 101.367 38.9367 101.073 39.0034 100.82C39.07 100.56 39.1767 100.34 39.3234 100.16C39.47 99.98 39.6634 99.8433 39.9034 99.75C40.1434 99.6567 40.4334 99.61 40.7734 99.61V98.71C40.3134 98.6967 39.9334 98.79 39.6334 98.99C39.3334 99.19 39.08 99.5 38.8734 99.92H38.8534V98.83H38.0534ZM41.8577 101.42C41.8577 101.107 41.8977 100.83 41.9777 100.59C42.0643 100.343 42.181 100.137 42.3277 99.97C42.4743 99.8033 42.6443 99.6767 42.8377 99.59C43.0377 99.5033 43.2477 99.46 43.4677 99.46C43.6877 99.46 43.8943 99.5033 44.0877 99.59C44.2877 99.6767 44.461 99.8033 44.6077 99.97C44.7543 100.137 44.8677 100.343 44.9477 100.59C45.0343 100.83 45.0777 101.107 45.0777 101.42C45.0777 101.733 45.0343 102.013 44.9477 102.26C44.8677 102.5 44.7543 102.703 44.6077 102.87C44.461 103.03 44.2877 103.153 44.0877 103.24C43.8943 103.327 43.6877 103.37 43.4677 103.37C43.2477 103.37 43.0377 103.327 42.8377 103.24C42.6443 103.153 42.4743 103.03 42.3277 102.87C42.181 102.703 42.0643 102.5 41.9777 102.26C41.8977 102.013 41.8577 101.733 41.8577 101.42ZM40.9577 101.42C40.9577 101.8 41.011 102.153 41.1177 102.48C41.2243 102.807 41.3843 103.093 41.5977 103.34C41.811 103.58 42.0743 103.77 42.3877 103.91C42.701 104.043 43.061 104.11 43.4677 104.11C43.881 104.11 44.241 104.043 44.5477 103.91C44.861 103.77 45.1243 103.58 45.3377 103.34C45.551 103.093 45.711 102.807 45.8177 102.48C45.9243 102.153 45.9777 101.8 45.9777 101.42C45.9777 101.04 45.9243 100.687 45.8177 100.36C45.711 100.027 45.551 99.74 45.3377 99.5C45.1243 99.2533 44.861 99.06 44.5477 98.92C44.241 98.78 43.881 98.71 43.4677 98.71C43.061 98.71 42.701 98.78 42.3877 98.92C42.0743 99.06 41.811 99.2533 41.5977 99.5C41.3843 99.74 41.2243 100.027 41.1177 100.36C41.011 100.687 40.9577 101.04 40.9577 101.42ZM46.9498 98.83V104H47.7998V101.7C47.7998 101.367 47.8332 101.073 47.8998 100.82C47.9665 100.56 48.0732 100.34 48.2198 100.16C48.3665 99.98 48.5598 99.8433 48.7998 99.75C49.0398 99.6567 49.3298 99.61 49.6698 99.61V98.71C49.2098 98.6967 48.8298 98.79 48.5298 98.99C48.2298 99.19 47.9765 99.5 47.7698 99.92H47.7498V98.83H46.9498ZM54.2731 98.83V97.28H53.4231V98.83H52.5431V99.58H53.4231V102.87C53.4231 103.11 53.4465 103.303 53.4931 103.45C53.5398 103.597 53.6098 103.71 53.7031 103.79C53.8031 103.87 53.9298 103.927 54.0831 103.96C54.2431 103.987 54.4331 104 54.6531 104H55.3031V103.25H54.9131C54.7798 103.25 54.6698 103.247 54.5831 103.24C54.5031 103.227 54.4398 103.203 54.3931 103.17C54.3465 103.137 54.3131 103.09 54.2931 103.03C54.2798 102.97 54.2731 102.89 54.2731 102.79V99.58H55.3031V98.83H54.2731ZM59.8374 100.92H56.8674C56.8808 100.72 56.9241 100.533 56.9974 100.36C57.0708 100.18 57.1708 100.023 57.2974 99.89C57.4241 99.7567 57.5741 99.6533 57.7474 99.58C57.9274 99.5 58.1274 99.46 58.3474 99.46C58.5608 99.46 58.7541 99.5 58.9274 99.58C59.1074 99.6533 59.2608 99.7567 59.3874 99.89C59.5208 100.017 59.6241 100.17 59.6974 100.35C59.7774 100.53 59.8241 100.72 59.8374 100.92ZM60.6574 102.36H59.8174C59.7441 102.7 59.5908 102.953 59.3574 103.12C59.1308 103.287 58.8374 103.37 58.4774 103.37C58.1974 103.37 57.9541 103.323 57.7474 103.23C57.5408 103.137 57.3708 103.013 57.2374 102.86C57.1041 102.7 57.0074 102.52 56.9474 102.32C56.8874 102.113 56.8608 101.897 56.8674 101.67H60.7374C60.7508 101.357 60.7208 101.027 60.6474 100.68C60.5808 100.333 60.4541 100.013 60.2674 99.72C60.0874 99.4267 59.8441 99.1867 59.5374 99C59.2374 98.8067 58.8574 98.71 58.3974 98.71C58.0441 98.71 57.7174 98.7767 57.4174 98.91C57.1241 99.0433 56.8674 99.23 56.6474 99.47C56.4341 99.71 56.2674 99.9933 56.1474 100.32C56.0274 100.647 55.9674 101.007 55.9674 101.4C55.9808 101.793 56.0374 102.157 56.1374 102.49C56.2441 102.823 56.4008 103.11 56.6074 103.35C56.8141 103.59 57.0674 103.777 57.3674 103.91C57.6741 104.043 58.0341 104.11 58.4474 104.11C59.0341 104.11 59.5208 103.963 59.9074 103.67C60.2941 103.377 60.5441 102.94 60.6574 102.36ZM63.0085 101.28L61.0685 104H62.0985L63.5385 101.86L64.9785 104H66.0685L64.0685 101.21L65.8485 98.83H64.8285L63.5385 100.64L62.2985 98.83H61.2085L63.0085 101.28ZM67.9743 98.83V97.28H67.1243V98.83H66.2443V99.58H67.1243V102.87C67.1243 103.11 67.1476 103.303 67.1943 103.45C67.241 103.597 67.311 103.71 67.4043 103.79C67.5043 103.87 67.631 103.927 67.7843 103.96C67.9443 103.987 68.1343 104 68.3543 104H69.0043V103.25H68.6143C68.481 103.25 68.371 103.247 68.2843 103.24C68.2043 103.227 68.141 103.203 68.0943 103.17C68.0476 103.137 68.0143 103.09 67.9943 103.03C67.981 102.97 67.9743 102.89 67.9743 102.79V99.58H69.0043V98.83H67.9743Z" fill="#D0421B"/>
<rect y="164" width="368" height="1" stroke="#DEDEDE"/>
</g>
<defs>
<clipPath id="clip0">
<rect width="368" height="405" fill="white"/>
</clipPath>
</defs>
</svg>
