<svg width="368" height="405" viewBox="0 0 368 405" fill="none" xmlns="http://www.w3.org/2000/svg">
<rect width="368" height="405" fill="white"/>
<rect width="368" height="36" fill="#F1F1F1"/>
<path d="M33.7832 18.3848H30.3496V22H28.8672V13.4688H34.2871V14.6641H30.3496V17.2012H33.7832V18.3848ZM36.8418 22H35.418V15.6602H36.8418V22ZM35.3301 14.0137C35.3301 13.7949 35.3984 13.6133 35.5352 13.4688C35.6758 13.3242 35.875 13.252 36.1328 13.252C36.3906 13.252 36.5898 13.3242 36.7305 13.4688C36.8711 13.6133 36.9414 13.7949 36.9414 14.0137C36.9414 14.2285 36.8711 14.4082 36.7305 14.5527C36.5898 14.6934 36.3906 14.7637 36.1328 14.7637C35.875 14.7637 35.6758 14.6934 35.5352 14.5527C35.3984 14.4082 35.3301 14.2285 35.3301 14.0137ZM41.1895 22.1172C40.2871 22.1172 39.5547 21.834 38.9922 21.2676C38.4336 20.6973 38.1543 19.9395 38.1543 18.9941V18.8184C38.1543 18.1855 38.2754 17.6211 38.5176 17.125C38.7637 16.625 39.1074 16.2363 39.5488 15.959C39.9902 15.6816 40.4824 15.543 41.0254 15.543C41.8887 15.543 42.5547 15.8184 43.0234 16.3691C43.4961 16.9199 43.7324 17.6992 43.7324 18.707V19.2812H39.5898C39.6328 19.8047 39.8066 20.2188 40.1113 20.5234C40.4199 20.8281 40.8066 20.9805 41.2715 20.9805C41.9238 20.9805 42.4551 20.7168 42.8652 20.1895L43.6328 20.9219C43.3789 21.3008 43.0391 21.5957 42.6133 21.8066C42.1914 22.0137 41.7168 22.1172 41.1895 22.1172ZM41.0195 16.6855C40.6289 16.6855 40.3125 16.8223 40.0703 17.0957C39.832 17.3691 39.6797 17.75 39.6133 18.2383H42.3262V18.1328C42.2949 17.6562 42.168 17.2969 41.9453 17.0547C41.7227 16.8086 41.4141 16.6855 41.0195 16.6855ZM46.3574 22H44.9336V13H46.3574V22ZM47.6465 18.7832C47.6465 17.8066 47.873 17.0234 48.3262 16.4336C48.7793 15.8398 49.3867 15.543 50.1484 15.543C50.8203 15.543 51.3633 15.7773 51.7773 16.2461V13H53.2012V22H51.9121L51.8418 21.3438C51.416 21.8594 50.8477 22.1172 50.1367 22.1172C49.3945 22.1172 48.793 21.8184 48.332 21.2207C47.875 20.623 47.6465 19.8105 47.6465 18.7832ZM49.0703 18.9062C49.0703 19.5508 49.1934 20.0547 49.4395 20.418C49.6895 20.7773 50.043 20.957 50.5 20.957C51.082 20.957 51.5078 20.6973 51.7773 20.1777V17.4707C51.5156 16.9629 51.0938 16.709 50.5117 16.709C50.0508 16.709 49.6953 16.8926 49.4453 17.2598C49.1953 17.623 49.0703 18.1719 49.0703 18.9062ZM64.3223 19.2227C64.2363 20.1328 63.9004 20.8438 63.3145 21.3555C62.7285 21.8633 61.9492 22.1172 60.9766 22.1172C60.2969 22.1172 59.6973 21.957 59.1777 21.6367C58.6621 21.3125 58.2637 20.8535 57.9824 20.2598C57.7012 19.666 57.5547 18.9766 57.543 18.1914V17.3945C57.543 16.5898 57.6855 15.8809 57.9707 15.2676C58.2559 14.6543 58.6641 14.1816 59.1953 13.8496C59.7305 13.5176 60.3477 13.3516 61.0469 13.3516C61.9883 13.3516 62.7461 13.6074 63.3203 14.1191C63.8945 14.6309 64.2285 15.3535 64.3223 16.2871H62.8457C62.7754 15.6738 62.5957 15.2324 62.3066 14.9629C62.0215 14.6895 61.6016 14.5527 61.0469 14.5527C60.4023 14.5527 59.9062 14.7891 59.5586 15.2617C59.2148 15.7305 59.0391 16.4199 59.0312 17.3301V18.0859C59.0312 19.0078 59.1953 19.7109 59.5234 20.1953C59.8555 20.6797 60.3398 20.9219 60.9766 20.9219C61.5586 20.9219 61.9961 20.791 62.2891 20.5293C62.582 20.2676 62.7676 19.832 62.8457 19.2227H64.3223ZM65.248 18.7715C65.248 18.1504 65.3711 17.5918 65.6172 17.0957C65.8633 16.5957 66.209 16.2129 66.6543 15.9473C67.0996 15.6777 67.6113 15.543 68.1895 15.543C69.0449 15.543 69.7383 15.8184 70.2695 16.3691C70.8047 16.9199 71.0938 17.6504 71.1367 18.5605L71.1426 18.8945C71.1426 19.5195 71.0215 20.0781 70.7793 20.5703C70.541 21.0625 70.1973 21.4434 69.748 21.7129C69.3027 21.9824 68.7871 22.1172 68.2012 22.1172C67.3066 22.1172 66.5898 21.8203 66.0508 21.2266C65.5156 20.6289 65.248 19.834 65.248 18.8418V18.7715ZM66.6719 18.8945C66.6719 19.5469 66.8066 20.0586 67.0762 20.4297C67.3457 20.7969 67.7207 20.9805 68.2012 20.9805C68.6816 20.9805 69.0547 20.793 69.3203 20.418C69.5898 20.043 69.7246 19.4941 69.7246 18.7715C69.7246 18.1309 69.5859 17.623 69.3086 17.248C69.0352 16.873 68.6621 16.6855 68.1895 16.6855C67.7246 16.6855 67.3555 16.8711 67.082 17.2422C66.8086 17.6094 66.6719 18.1602 66.6719 18.8945ZM73.6855 15.6602L73.7266 16.3223C74.1719 15.8027 74.7812 15.543 75.5547 15.543C76.4023 15.543 76.9824 15.8672 77.2949 16.5156C77.7559 15.8672 78.4043 15.543 79.2402 15.543C79.9395 15.543 80.459 15.7363 80.7988 16.123C81.1426 16.5098 81.3184 17.0801 81.3262 17.834V22H79.9023V17.875C79.9023 17.4727 79.8145 17.1777 79.6387 16.9902C79.4629 16.8027 79.1719 16.709 78.7656 16.709C78.4414 16.709 78.1758 16.7969 77.9688 16.9727C77.7656 17.1445 77.623 17.3711 77.541 17.6523L77.5469 22H76.123V17.8281C76.1035 17.082 75.7227 16.709 74.9805 16.709C74.4102 16.709 74.0059 16.9414 73.7676 17.4062V22H72.3438V15.6602H73.6855ZM88.3398 18.8945C88.3398 19.875 88.1172 20.6582 87.6719 21.2441C87.2266 21.8262 86.6289 22.1172 85.8789 22.1172C85.1836 22.1172 84.627 21.8887 84.209 21.4316V24.4375H82.7852V15.6602H84.0977L84.1562 16.3047C84.5742 15.7969 85.1426 15.543 85.8613 15.543C86.6348 15.543 87.2402 15.832 87.6777 16.4102C88.1191 16.9844 88.3398 17.7832 88.3398 18.8066V18.8945ZM86.9219 18.7715C86.9219 18.1387 86.7949 17.6367 86.541 17.2656C86.291 16.8945 85.9316 16.709 85.4629 16.709C84.8809 16.709 84.4629 16.9492 84.209 17.4297V20.2422C84.4668 20.7344 84.8887 20.9805 85.4746 20.9805C85.9277 20.9805 86.2812 20.7988 86.5352 20.4355C86.793 20.0684 86.9219 19.5137 86.9219 18.7715ZM89.2832 18.7715C89.2832 18.1504 89.4062 17.5918 89.6523 17.0957C89.8984 16.5957 90.2441 16.2129 90.6895 15.9473C91.1348 15.6777 91.6465 15.543 92.2246 15.543C93.0801 15.543 93.7734 15.8184 94.3047 16.3691C94.8398 16.9199 95.1289 17.6504 95.1719 18.5605L95.1777 18.8945C95.1777 19.5195 95.0566 20.0781 94.8145 20.5703C94.5762 21.0625 94.2324 21.4434 93.7832 21.7129C93.3379 21.9824 92.8223 22.1172 92.2363 22.1172C91.3418 22.1172 90.625 21.8203 90.0859 21.2266C89.5508 20.6289 89.2832 19.834 89.2832 18.8418V18.7715ZM90.707 18.8945C90.707 19.5469 90.8418 20.0586 91.1113 20.4297C91.3809 20.7969 91.7559 20.9805 92.2363 20.9805C92.7168 20.9805 93.0898 20.793 93.3555 20.418C93.625 20.043 93.7598 19.4941 93.7598 18.7715C93.7598 18.1309 93.6211 17.623 93.3438 17.248C93.0703 16.873 92.6973 16.6855 92.2246 16.6855C91.7598 16.6855 91.3906 16.8711 91.1172 17.2422C90.8438 17.6094 90.707 18.1602 90.707 18.8945ZM97.7031 15.6602L97.7441 16.3926C98.2129 15.8262 98.8281 15.543 99.5898 15.543C100.91 15.543 101.582 16.2988 101.605 17.8105V22H100.182V17.8926C100.182 17.4902 100.094 17.1934 99.918 17.002C99.7461 16.8066 99.4629 16.709 99.0684 16.709C98.4941 16.709 98.0664 16.9688 97.7852 17.4883V22H96.3613V15.6602H97.7031ZM105.854 22.1172C104.951 22.1172 104.219 21.834 103.656 21.2676C103.098 20.6973 102.818 19.9395 102.818 18.9941V18.8184C102.818 18.1855 102.939 17.6211 103.182 17.125C103.428 16.625 103.771 16.2363 104.213 15.959C104.654 15.6816 105.146 15.543 105.689 15.543C106.553 15.543 107.219 15.8184 107.688 16.3691C108.16 16.9199 108.396 17.6992 108.396 18.707V19.2812H104.254C104.297 19.8047 104.471 20.2188 104.775 20.5234C105.084 20.8281 105.471 20.9805 105.936 20.9805C106.588 20.9805 107.119 20.7168 107.529 20.1895L108.297 20.9219C108.043 21.3008 107.703 21.5957 107.277 21.8066C106.855 22.0137 106.381 22.1172 105.854 22.1172ZM105.684 16.6855C105.293 16.6855 104.977 16.8223 104.734 17.0957C104.496 17.3691 104.344 17.75 104.277 18.2383H106.99V18.1328C106.959 17.6562 106.832 17.2969 106.609 17.0547C106.387 16.8086 106.078 16.6855 105.684 16.6855ZM110.828 15.6602L110.869 16.3926C111.338 15.8262 111.953 15.543 112.715 15.543C114.035 15.543 114.707 16.2988 114.73 17.8105V22H113.307V17.8926C113.307 17.4902 113.219 17.1934 113.043 17.002C112.871 16.8066 112.588 16.709 112.193 16.709C111.619 16.709 111.191 16.9688 110.91 17.4883V22H109.486V15.6602H110.828ZM117.971 14.1191V15.6602H119.09V16.7148H117.971V20.2539C117.971 20.4961 118.018 20.6719 118.111 20.7812C118.209 20.8867 118.381 20.9395 118.627 20.9395C118.791 20.9395 118.957 20.9199 119.125 20.8809V21.9824C118.801 22.0723 118.488 22.1172 118.188 22.1172C117.094 22.1172 116.547 21.5137 116.547 20.3066V16.7148H115.504V15.6602H116.547V14.1191H117.971Z" fill="black"/>
<rect y="36" width="368" height="369" fill="white"/>
<path d="M30.3496 165.816H34.2227V167H28.8672V158.469H30.3496V165.816ZM39.0098 167C38.9473 166.879 38.8926 166.682 38.8457 166.408C38.3926 166.881 37.8379 167.117 37.1816 167.117C36.5449 167.117 36.0254 166.936 35.623 166.572C35.2207 166.209 35.0195 165.76 35.0195 165.225C35.0195 164.549 35.2695 164.031 35.7695 163.672C36.2734 163.309 36.9922 163.127 37.9258 163.127H38.7988V162.711C38.7988 162.383 38.707 162.121 38.5234 161.926C38.3398 161.727 38.0605 161.627 37.6855 161.627C37.3613 161.627 37.0957 161.709 36.8887 161.873C36.6816 162.033 36.5781 162.238 36.5781 162.488H35.1543C35.1543 162.141 35.2695 161.816 35.5 161.516C35.7305 161.211 36.043 160.973 36.4375 160.801C36.8359 160.629 37.2793 160.543 37.7676 160.543C38.5098 160.543 39.1016 160.73 39.543 161.105C39.9844 161.477 40.2109 162 40.2227 162.676V165.535C40.2227 166.105 40.3027 166.561 40.4629 166.9V167H39.0098ZM37.4453 165.975C37.7266 165.975 37.9902 165.906 38.2363 165.77C38.4863 165.633 38.6738 165.449 38.7988 165.219V164.023H38.0312C37.5039 164.023 37.1074 164.115 36.8418 164.299C36.5762 164.482 36.4434 164.742 36.4434 165.078C36.4434 165.352 36.5332 165.57 36.7129 165.734C36.8965 165.895 37.1406 165.975 37.4453 165.975ZM47.2773 163.895C47.2773 164.879 47.0566 165.662 46.6152 166.244C46.1777 166.826 45.5742 167.117 44.8047 167.117C44.0625 167.117 43.4844 166.85 43.0703 166.314L43 167H41.7109V158H43.1348V161.27C43.5449 160.785 44.0977 160.543 44.793 160.543C45.5664 160.543 46.1738 160.83 46.6152 161.404C47.0566 161.979 47.2773 162.781 47.2773 163.812V163.895ZM45.8535 163.771C45.8535 163.084 45.7324 162.568 45.4902 162.225C45.248 161.881 44.8965 161.709 44.4355 161.709C43.8184 161.709 43.3848 161.979 43.1348 162.518V165.131C43.3887 165.682 43.8262 165.957 44.4473 165.957C44.8926 165.957 45.2363 165.791 45.4785 165.459C45.7207 165.127 45.8457 164.625 45.8535 163.953V163.771ZM51.2676 167.117C50.3652 167.117 49.6328 166.834 49.0703 166.268C48.5117 165.697 48.2324 164.939 48.2324 163.994V163.818C48.2324 163.186 48.3535 162.621 48.5957 162.125C48.8418 161.625 49.1855 161.236 49.627 160.959C50.0684 160.682 50.5605 160.543 51.1035 160.543C51.9668 160.543 52.6328 160.818 53.1016 161.369C53.5742 161.92 53.8105 162.699 53.8105 163.707V164.281H49.668C49.7109 164.805 49.8848 165.219 50.1895 165.523C50.498 165.828 50.8848 165.98 51.3496 165.98C52.002 165.98 52.5332 165.717 52.9434 165.189L53.7109 165.922C53.457 166.301 53.1172 166.596 52.6914 166.807C52.2695 167.014 51.7949 167.117 51.2676 167.117ZM51.0977 161.686C50.707 161.686 50.3906 161.822 50.1484 162.096C49.9102 162.369 49.7578 162.75 49.6914 163.238H52.4043V163.133C52.373 162.656 52.2461 162.297 52.0234 162.055C51.8008 161.809 51.4922 161.686 51.0977 161.686ZM56.4355 167H55.0117V158H56.4355V167Z" fill="#262626"/>
<path d="M61.9453 161.305L60.1582 160.789L60.4805 159.799L62.25 160.484L62.1621 158.469H63.2109L63.123 160.52L64.8633 159.846L65.1797 160.854L63.3633 161.369L64.5352 162.928L63.6855 163.549L62.6309 161.861L61.5879 163.496L60.7324 162.898L61.9453 161.305Z" fill="#0064D9"/>
<rect x="28.5" y="174.5" width="268" height="41" fill="white"/>
<path d="M39.768 195.048V190.856H42.744C43.608 190.856 44.2373 191.037 44.632 191.4C45.0373 191.752 45.24 192.269 45.24 192.952C45.24 193.635 45.0373 194.157 44.632 194.52C44.2373 194.883 43.608 195.059 42.744 195.048H39.768ZM38.248 189.576V201H39.768V196.328H43.256C44.408 196.339 45.2773 196.045 45.864 195.448C46.4613 194.851 46.76 194.019 46.76 192.952C46.76 191.885 46.4613 191.059 45.864 190.472C45.2773 189.875 44.408 189.576 43.256 189.576H38.248ZM48.479 189.576V201H49.839V189.576H48.479ZM59.2739 200.968C59.0392 201.107 58.7139 201.176 58.2979 201.176C57.9459 201.176 57.6632 201.08 57.4499 200.888C57.2472 200.685 57.1459 200.36 57.1459 199.912C56.7725 200.36 56.3352 200.685 55.8339 200.888C55.3432 201.08 54.8099 201.176 54.2339 201.176C53.8605 201.176 53.5032 201.133 53.1619 201.048C52.8312 200.963 52.5432 200.829 52.2979 200.648C52.0525 200.467 51.8552 200.232 51.7059 199.944C51.5672 199.645 51.4979 199.288 51.4979 198.872C51.4979 198.403 51.5779 198.019 51.7379 197.72C51.8979 197.421 52.1059 197.181 52.3619 197C52.6285 196.808 52.9272 196.664 53.2579 196.568C53.5992 196.472 53.9459 196.392 54.2979 196.328C54.6712 196.253 55.0232 196.2 55.3539 196.168C55.6952 196.125 55.9939 196.072 56.2499 196.008C56.5059 195.933 56.7085 195.832 56.8579 195.704C57.0072 195.565 57.0819 195.368 57.0819 195.112C57.0819 194.813 57.0232 194.573 56.9059 194.392C56.7992 194.211 56.6552 194.072 56.4739 193.976C56.3032 193.88 56.1059 193.816 55.8819 193.784C55.6685 193.752 55.4552 193.736 55.2419 193.736C54.6659 193.736 54.1859 193.848 53.8019 194.072C53.4179 194.285 53.2099 194.696 53.1779 195.304H51.8179C51.8392 194.792 51.9459 194.36 52.1379 194.008C52.3299 193.656 52.5859 193.373 52.9059 193.16C53.2259 192.936 53.5885 192.776 53.9939 192.68C54.4099 192.584 54.8525 192.536 55.3219 192.536C55.6952 192.536 56.0632 192.563 56.4259 192.616C56.7992 192.669 57.1352 192.781 57.4339 192.952C57.7325 193.112 57.9725 193.341 58.1539 193.64C58.3352 193.939 58.4259 194.328 58.4259 194.808V199.064C58.4259 199.384 58.4419 199.619 58.4739 199.768C58.5165 199.917 58.6445 199.992 58.8579 199.992C58.9752 199.992 59.1139 199.965 59.2739 199.912V200.968ZM57.0659 196.728C56.8952 196.856 56.6712 196.952 56.3939 197.016C56.1165 197.069 55.8232 197.117 55.5139 197.16C55.2152 197.192 54.9112 197.235 54.6019 197.288C54.2925 197.331 54.0152 197.405 53.7699 197.512C53.5245 197.619 53.3219 197.773 53.1619 197.976C53.0125 198.168 52.9379 198.435 52.9379 198.776C52.9379 199 52.9805 199.192 53.0659 199.352C53.1619 199.501 53.2792 199.624 53.4179 199.72C53.5672 199.816 53.7379 199.885 53.9299 199.928C54.1219 199.971 54.3245 199.992 54.5379 199.992C54.9859 199.992 55.3699 199.933 55.6899 199.816C56.0099 199.688 56.2712 199.533 56.4739 199.352C56.6765 199.16 56.8259 198.957 56.9219 198.744C57.0179 198.52 57.0659 198.312 57.0659 198.12V196.728ZM66.1556 195.384H67.5636C67.5103 194.893 67.3823 194.472 67.1796 194.12C66.977 193.757 66.7156 193.459 66.3956 193.224C66.0863 192.989 65.7236 192.819 65.3076 192.712C64.9023 192.595 64.465 192.536 63.9956 192.536C63.345 192.536 62.7743 192.653 62.2836 192.888C61.793 193.112 61.3823 193.427 61.0516 193.832C60.7316 194.227 60.4916 194.696 60.3316 195.24C60.1716 195.773 60.0916 196.349 60.0916 196.968C60.0916 197.587 60.1716 198.157 60.3316 198.68C60.5023 199.192 60.7476 199.635 61.0676 200.008C61.3983 200.381 61.8036 200.669 62.2836 200.872C62.7743 201.075 63.3343 201.176 63.9636 201.176C65.0196 201.176 65.8516 200.899 66.4596 200.344C67.0783 199.789 67.4623 199 67.6116 197.976H66.2196C66.1343 198.616 65.8996 199.112 65.5156 199.464C65.1423 199.816 64.6196 199.992 63.9476 199.992C63.521 199.992 63.153 199.907 62.8436 199.736C62.5343 199.565 62.2836 199.341 62.0916 199.064C61.8996 198.776 61.7556 198.451 61.6596 198.088C61.5743 197.725 61.5316 197.352 61.5316 196.968C61.5316 196.552 61.5743 196.152 61.6596 195.768C61.745 195.373 61.8836 195.027 62.0756 194.728C62.2783 194.429 62.545 194.189 62.8756 194.008C63.2063 193.827 63.617 193.736 64.1076 193.736C64.6836 193.736 65.1423 193.88 65.4836 194.168C65.825 194.456 66.049 194.861 66.1556 195.384ZM74.8774 196.072H70.1254C70.1467 195.752 70.216 195.453 70.3334 195.176C70.4507 194.888 70.6107 194.637 70.8134 194.424C71.016 194.211 71.256 194.045 71.5334 193.928C71.8214 193.8 72.1414 193.736 72.4934 193.736C72.8347 193.736 73.144 193.8 73.4214 193.928C73.7094 194.045 73.9547 194.211 74.1574 194.424C74.3707 194.627 74.536 194.872 74.6534 195.16C74.7814 195.448 74.856 195.752 74.8774 196.072ZM76.1894 198.376H74.8454C74.728 198.92 74.4827 199.325 74.1094 199.592C73.7467 199.859 73.2774 199.992 72.7014 199.992C72.2534 199.992 71.864 199.917 71.5334 199.768C71.2027 199.619 70.9307 199.421 70.7174 199.176C70.504 198.92 70.3494 198.632 70.2534 198.312C70.1574 197.981 70.1147 197.635 70.1254 197.272H76.3174C76.3387 196.771 76.2907 196.243 76.1734 195.688C76.0667 195.133 75.864 194.621 75.5654 194.152C75.2774 193.683 74.888 193.299 74.3974 193C73.9174 192.691 73.3094 192.536 72.5734 192.536C72.008 192.536 71.4854 192.643 71.0054 192.856C70.536 193.069 70.1254 193.368 69.7734 193.752C69.432 194.136 69.1654 194.589 68.9734 195.112C68.7814 195.635 68.6854 196.211 68.6854 196.84C68.7067 197.469 68.7974 198.051 68.9574 198.584C69.128 199.117 69.3787 199.576 69.7094 199.96C70.04 200.344 70.4454 200.643 70.9254 200.856C71.416 201.069 71.992 201.176 72.6534 201.176C73.592 201.176 74.3707 200.941 74.9894 200.472C75.608 200.003 76.008 199.304 76.1894 198.376ZM77.7271 189.576V201H79.0871V196.328C79.0871 195.955 79.1351 195.613 79.2311 195.304C79.3378 194.984 79.4925 194.707 79.6951 194.472C79.8978 194.237 80.1485 194.056 80.4471 193.928C80.7565 193.8 81.1191 193.736 81.5351 193.736C82.0578 193.736 82.4685 193.885 82.7671 194.184C83.0658 194.483 83.2151 194.888 83.2151 195.4V201H84.5751V195.56C84.5751 195.112 84.5271 194.707 84.4311 194.344C84.3458 193.971 84.1911 193.651 83.9671 193.384C83.7431 193.117 83.4498 192.909 83.0871 192.76C82.7245 192.611 82.2711 192.536 81.7271 192.536C81.4818 192.536 81.2258 192.563 80.9591 192.616C80.7031 192.669 80.4525 192.755 80.2071 192.872C79.9725 192.979 79.7591 193.123 79.5671 193.304C79.3751 193.475 79.2258 193.688 79.1191 193.944H79.0871V189.576H77.7271ZM87.6098 196.872C87.6098 196.371 87.6738 195.928 87.8018 195.544C87.9404 195.149 88.1271 194.819 88.3618 194.552C88.5964 194.285 88.8684 194.083 89.1778 193.944C89.4978 193.805 89.8338 193.736 90.1858 193.736C90.5378 193.736 90.8684 193.805 91.1778 193.944C91.4978 194.083 91.7751 194.285 92.0098 194.552C92.2444 194.819 92.4258 195.149 92.5538 195.544C92.6924 195.928 92.7618 196.371 92.7618 196.872C92.7618 197.373 92.6924 197.821 92.5538 198.216C92.4258 198.6 92.2444 198.925 92.0098 199.192C91.7751 199.448 91.4978 199.645 91.1778 199.784C90.8684 199.923 90.5378 199.992 90.1858 199.992C89.8338 199.992 89.4978 199.923 89.1778 199.784C88.8684 199.645 88.5964 199.448 88.3618 199.192C88.1271 198.925 87.9404 198.6 87.8018 198.216C87.6738 197.821 87.6098 197.373 87.6098 196.872ZM86.1698 196.872C86.1698 197.48 86.2551 198.045 86.4258 198.568C86.5964 199.091 86.8524 199.549 87.1938 199.944C87.5351 200.328 87.9564 200.632 88.4578 200.856C88.9591 201.069 89.5351 201.176 90.1858 201.176C90.8471 201.176 91.4231 201.069 91.9138 200.856C92.4151 200.632 92.8364 200.328 93.1778 199.944C93.5191 199.549 93.7751 199.091 93.9458 198.568C94.1164 198.045 94.2018 197.48 94.2018 196.872C94.2018 196.264 94.1164 195.699 93.9458 195.176C93.7751 194.643 93.5191 194.184 93.1778 193.8C92.8364 193.405 92.4151 193.096 91.9138 192.872C91.4231 192.648 90.8471 192.536 90.1858 192.536C89.5351 192.536 88.9591 192.648 88.4578 192.872C87.9564 193.096 87.5351 193.405 87.1938 193.8C86.8524 194.184 86.5964 194.643 86.4258 195.176C86.2551 195.699 86.1698 196.264 86.1698 196.872ZM95.8853 189.576V201H97.2453V189.576H95.8853ZM100.344 196.936C100.344 196.531 100.387 196.136 100.472 195.752C100.557 195.368 100.696 195.027 100.888 194.728C101.08 194.429 101.336 194.189 101.656 194.008C101.976 193.827 102.365 193.736 102.824 193.736C103.293 193.736 103.693 193.827 104.024 194.008C104.355 194.179 104.621 194.408 104.824 194.696C105.037 194.984 105.192 195.32 105.288 195.704C105.384 196.077 105.432 196.467 105.432 196.872C105.432 197.256 105.384 197.635 105.288 198.008C105.203 198.381 105.059 198.717 104.856 199.016C104.653 199.304 104.392 199.539 104.072 199.72C103.752 199.901 103.363 199.992 102.904 199.992C102.467 199.992 102.083 199.907 101.752 199.736C101.432 199.565 101.165 199.336 100.952 199.048C100.749 198.76 100.595 198.435 100.488 198.072C100.392 197.699 100.344 197.32 100.344 196.936ZM106.744 201V189.576H105.384V193.832H105.352C105.203 193.587 105.016 193.384 104.792 193.224C104.579 193.053 104.349 192.92 104.104 192.824C103.859 192.717 103.613 192.643 103.368 192.6C103.123 192.557 102.893 192.536 102.68 192.536C102.051 192.536 101.496 192.653 101.016 192.888C100.547 193.112 100.152 193.421 99.8321 193.816C99.5228 194.2 99.2881 194.653 99.1281 195.176C98.9788 195.699 98.9041 196.253 98.9041 196.84C98.9041 197.427 98.9841 197.981 99.1441 198.504C99.3041 199.027 99.5388 199.485 99.8481 199.88C100.168 200.275 100.563 200.589 101.032 200.824C101.512 201.059 102.072 201.176 102.712 201.176C103.288 201.176 103.816 201.075 104.296 200.872C104.776 200.669 105.128 200.339 105.352 199.88H105.384V201H106.744ZM114.581 196.072H109.829C109.85 195.752 109.919 195.453 110.037 195.176C110.154 194.888 110.314 194.637 110.517 194.424C110.719 194.211 110.959 194.045 111.237 193.928C111.525 193.8 111.845 193.736 112.197 193.736C112.538 193.736 112.847 193.8 113.125 193.928C113.413 194.045 113.658 194.211 113.861 194.424C114.074 194.627 114.239 194.872 114.357 195.16C114.485 195.448 114.559 195.752 114.581 196.072ZM115.892 198.376H114.549C114.431 198.92 114.186 199.325 113.813 199.592C113.45 199.859 112.981 199.992 112.405 199.992C111.957 199.992 111.567 199.917 111.237 199.768C110.906 199.619 110.634 199.421 110.421 199.176C110.207 198.92 110.053 198.632 109.957 198.312C109.861 197.981 109.818 197.635 109.829 197.272H116.021C116.042 196.771 115.994 196.243 115.877 195.688C115.77 195.133 115.567 194.621 115.269 194.152C114.981 193.683 114.591 193.299 114.101 193C113.621 192.691 113.013 192.536 112.277 192.536C111.711 192.536 111.189 192.643 110.709 192.856C110.239 193.069 109.829 193.368 109.477 193.752C109.135 194.136 108.869 194.589 108.677 195.112C108.485 195.635 108.389 196.211 108.389 196.84C108.41 197.469 108.501 198.051 108.661 198.584C108.831 199.117 109.082 199.576 109.413 199.96C109.743 200.344 110.149 200.643 110.629 200.856C111.119 201.069 111.695 201.176 112.357 201.176C113.295 201.176 114.074 200.941 114.693 200.472C115.311 200.003 115.711 199.304 115.892 198.376ZM117.382 192.728V201H118.742V197.32C118.742 196.787 118.796 196.317 118.902 195.912C119.009 195.496 119.18 195.144 119.414 194.856C119.649 194.568 119.958 194.349 120.342 194.2C120.726 194.051 121.19 193.976 121.734 193.976V192.536C120.998 192.515 120.39 192.664 119.91 192.984C119.43 193.304 119.025 193.8 118.694 194.472H118.662V192.728H117.382ZM130.028 190.856V201H131.548V190.856H135.356V189.576H126.22V190.856H130.028ZM140.362 196.072H135.61C135.631 195.752 135.7 195.453 135.818 195.176C135.935 194.888 136.095 194.637 136.298 194.424C136.5 194.211 136.74 194.045 137.018 193.928C137.306 193.8 137.626 193.736 137.978 193.736C138.319 193.736 138.628 193.8 138.906 193.928C139.194 194.045 139.439 194.211 139.642 194.424C139.855 194.627 140.02 194.872 140.138 195.16C140.266 195.448 140.34 195.752 140.362 196.072ZM141.674 198.376H140.33C140.212 198.92 139.967 199.325 139.594 199.592C139.231 199.859 138.762 199.992 138.186 199.992C137.738 199.992 137.348 199.917 137.018 199.768C136.687 199.619 136.415 199.421 136.202 199.176C135.988 198.92 135.834 198.632 135.738 198.312C135.642 197.981 135.599 197.635 135.61 197.272H141.802C141.823 196.771 141.775 196.243 141.658 195.688C141.551 195.133 141.348 194.621 141.05 194.152C140.762 193.683 140.372 193.299 139.882 193C139.402 192.691 138.794 192.536 138.058 192.536C137.492 192.536 136.97 192.643 136.49 192.856C136.02 193.069 135.61 193.368 135.258 193.752C134.916 194.136 134.65 194.589 134.458 195.112C134.266 195.635 134.17 196.211 134.17 196.84C134.191 197.469 134.282 198.051 134.442 198.584C134.612 199.117 134.863 199.576 135.194 199.96C135.524 200.344 135.93 200.643 136.41 200.856C136.9 201.069 137.476 201.176 138.138 201.176C139.076 201.176 139.855 200.941 140.474 200.472C141.092 200.003 141.492 199.304 141.674 198.376ZM145.436 196.648L142.332 201H143.98L146.284 197.576L148.588 201H150.332L147.132 196.536L149.98 192.728H148.348L146.284 195.624L144.299 192.728H142.556L145.436 196.648ZM153.381 192.728V190.248H152.021V192.728H150.613V193.928H152.021V199.192C152.021 199.576 152.058 199.885 152.133 200.12C152.207 200.355 152.319 200.536 152.469 200.664C152.629 200.792 152.831 200.883 153.077 200.936C153.333 200.979 153.637 201 153.989 201H155.029V199.8H154.405C154.191 199.8 154.015 199.795 153.877 199.784C153.749 199.763 153.647 199.725 153.573 199.672C153.498 199.619 153.445 199.544 153.413 199.448C153.391 199.352 153.381 199.224 153.381 199.064V193.928H155.029V192.728H153.381Z" fill="#757575"/>
<rect x="28.5" y="174.5" width="268" height="41" stroke="#757575"/>
<path d="M28.78 222.86V230H29.73V226.73H33.49V230H34.44V222.86H33.49V225.93H29.73V222.86H28.78ZM36.7568 223.9V222.86H35.9068V223.9H36.7568ZM35.9068 224.83V230H36.7568V224.83H35.9068ZM38.0736 224.83V230H38.9236V227.08C38.9236 226.847 38.9536 226.633 39.0136 226.44C39.0803 226.24 39.1769 226.067 39.3036 225.92C39.4303 225.773 39.5869 225.66 39.7736 225.58C39.9669 225.5 40.1936 225.46 40.4536 225.46C40.7803 225.46 41.0369 225.553 41.2236 225.74C41.4103 225.927 41.5036 226.18 41.5036 226.5V230H42.3536V226.6C42.3536 226.32 42.3236 226.067 42.2636 225.84C42.2103 225.607 42.1136 225.407 41.9736 225.24C41.8336 225.073 41.6503 224.943 41.4236 224.85C41.1969 224.757 40.9136 224.71 40.5736 224.71C39.8069 224.71 39.2469 225.023 38.8936 225.65H38.8736V224.83H38.0736ZM44.8102 224.83V223.28H43.9602V224.83H43.0802V225.58H43.9602V228.87C43.9602 229.11 43.9836 229.303 44.0302 229.45C44.0769 229.597 44.1469 229.71 44.2402 229.79C44.3402 229.87 44.4669 229.927 44.6202 229.96C44.7802 229.987 44.9702 230 45.1902 230H45.8402V229.25H45.4502C45.3169 229.25 45.2069 229.247 45.1202 229.24C45.0402 229.227 44.9769 229.203 44.9302 229.17C44.8836 229.137 44.8502 229.09 44.8302 229.03C44.8169 228.97 44.8102 228.89 44.8102 228.79V225.58H45.8402V224.83H44.8102ZM50.7477 224.83V223.28H49.8977V224.83H49.0177V225.58H49.8977V228.87C49.8977 229.11 49.9211 229.303 49.9677 229.45C50.0144 229.597 50.0844 229.71 50.1777 229.79C50.2777 229.87 50.4044 229.927 50.5577 229.96C50.7177 229.987 50.9077 230 51.1277 230H51.7777V229.25H51.3877C51.2544 229.25 51.1444 229.247 51.0577 229.24C50.9777 229.227 50.9144 229.203 50.8677 229.17C50.8211 229.137 50.7877 229.09 50.7677 229.03C50.7544 228.97 50.7477 228.89 50.7477 228.79V225.58H51.7777V224.83H50.7477ZM56.312 226.92H53.342C53.3554 226.72 53.3987 226.533 53.472 226.36C53.5454 226.18 53.6454 226.023 53.772 225.89C53.8987 225.757 54.0487 225.653 54.222 225.58C54.402 225.5 54.602 225.46 54.822 225.46C55.0354 225.46 55.2287 225.5 55.402 225.58C55.582 225.653 55.7354 225.757 55.862 225.89C55.9954 226.017 56.0987 226.17 56.172 226.35C56.252 226.53 56.2987 226.72 56.312 226.92ZM57.132 228.36H56.292C56.2187 228.7 56.0654 228.953 55.832 229.12C55.6054 229.287 55.312 229.37 54.952 229.37C54.672 229.37 54.4287 229.323 54.222 229.23C54.0154 229.137 53.8454 229.013 53.712 228.86C53.5787 228.7 53.482 228.52 53.422 228.32C53.362 228.113 53.3354 227.897 53.342 227.67H57.212C57.2254 227.357 57.1954 227.027 57.122 226.68C57.0554 226.333 56.9287 226.013 56.742 225.72C56.562 225.427 56.3187 225.187 56.012 225C55.712 224.807 55.332 224.71 54.872 224.71C54.5187 224.71 54.192 224.777 53.892 224.91C53.5987 225.043 53.342 225.23 53.122 225.47C52.9087 225.71 52.742 225.993 52.622 226.32C52.502 226.647 52.442 227.007 52.442 227.4C52.4554 227.793 52.512 228.157 52.612 228.49C52.7187 228.823 52.8754 229.11 53.082 229.35C53.2887 229.59 53.542 229.777 53.842 229.91C54.1487 230.043 54.5087 230.11 54.922 230.11C55.5087 230.11 55.9954 229.963 56.382 229.67C56.7687 229.377 57.0187 228.94 57.132 228.36ZM59.4831 227.28L57.5431 230H58.5731L60.0131 227.86L61.4531 230H62.5431L60.5431 227.21L62.3231 224.83H61.3031L60.0131 226.64L58.7731 224.83H57.6831L59.4831 227.28ZM64.4489 224.83V223.28H63.5989V224.83H62.7189V225.58H63.5989V228.87C63.5989 229.11 63.6222 229.303 63.6689 229.45C63.7156 229.597 63.7856 229.71 63.8789 229.79C63.9789 229.87 64.1056 229.927 64.2589 229.96C64.4189 229.987 64.6089 230 64.8289 230H65.4789V229.25H65.0889C64.9556 229.25 64.8456 229.247 64.7589 229.24C64.6789 229.227 64.6156 229.203 64.5689 229.17C64.5222 229.137 64.4889 229.09 64.4689 229.03C64.4556 228.97 64.4489 228.89 64.4489 228.79V225.58H65.4789V224.83H64.4489Z" fill="#757575"/>
<path d="M28.78 239.86V247H33.74V246.2H29.73V243.73H33.44V242.93H29.73V240.66H33.71V239.86H28.78ZM34.7233 241.83V247H35.5733V244.7C35.5733 244.367 35.6066 244.073 35.6733 243.82C35.7399 243.56 35.8466 243.34 35.9933 243.16C36.1399 242.98 36.3333 242.843 36.5733 242.75C36.8133 242.657 37.1033 242.61 37.4433 242.61V241.71C36.9833 241.697 36.6033 241.79 36.3033 241.99C36.0033 242.19 35.7499 242.5 35.5433 242.92H35.5233V241.83H34.7233ZM38.0534 241.83V247H38.9034V244.7C38.9034 244.367 38.9367 244.073 39.0034 243.82C39.07 243.56 39.1767 243.34 39.3234 243.16C39.47 242.98 39.6634 242.843 39.9034 242.75C40.1434 242.657 40.4334 242.61 40.7734 242.61V241.71C40.3134 241.697 39.9334 241.79 39.6334 241.99C39.3334 242.19 39.08 242.5 38.8734 242.92H38.8534V241.83H38.0534ZM41.8577 244.42C41.8577 244.107 41.8977 243.83 41.9777 243.59C42.0643 243.343 42.181 243.137 42.3277 242.97C42.4743 242.803 42.6443 242.677 42.8377 242.59C43.0377 242.503 43.2477 242.46 43.4677 242.46C43.6877 242.46 43.8943 242.503 44.0877 242.59C44.2877 242.677 44.461 242.803 44.6077 242.97C44.7543 243.137 44.8677 243.343 44.9477 243.59C45.0343 243.83 45.0777 244.107 45.0777 244.42C45.0777 244.733 45.0343 245.013 44.9477 245.26C44.8677 245.5 44.7543 245.703 44.6077 245.87C44.461 246.03 44.2877 246.153 44.0877 246.24C43.8943 246.327 43.6877 246.37 43.4677 246.37C43.2477 246.37 43.0377 246.327 42.8377 246.24C42.6443 246.153 42.4743 246.03 42.3277 245.87C42.181 245.703 42.0643 245.5 41.9777 245.26C41.8977 245.013 41.8577 244.733 41.8577 244.42ZM40.9577 244.42C40.9577 244.8 41.011 245.153 41.1177 245.48C41.2243 245.807 41.3843 246.093 41.5977 246.34C41.811 246.58 42.0743 246.77 42.3877 246.91C42.701 247.043 43.061 247.11 43.4677 247.11C43.881 247.11 44.241 247.043 44.5477 246.91C44.861 246.77 45.1243 246.58 45.3377 246.34C45.551 246.093 45.711 245.807 45.8177 245.48C45.9243 245.153 45.9777 244.8 45.9777 244.42C45.9777 244.04 45.9243 243.687 45.8177 243.36C45.711 243.027 45.551 242.74 45.3377 242.5C45.1243 242.253 44.861 242.06 44.5477 241.92C44.241 241.78 43.881 241.71 43.4677 241.71C43.061 241.71 42.701 241.78 42.3877 241.92C42.0743 242.06 41.811 242.253 41.5977 242.5C41.3843 242.74 41.2243 243.027 41.1177 243.36C41.011 243.687 40.9577 244.04 40.9577 244.42ZM46.9498 241.83V247H47.7998V244.7C47.7998 244.367 47.8332 244.073 47.8998 243.82C47.9665 243.56 48.0732 243.34 48.2198 243.16C48.3665 242.98 48.5598 242.843 48.7998 242.75C49.0398 242.657 49.3298 242.61 49.6698 242.61V241.71C49.2098 241.697 48.8298 241.79 48.5298 241.99C48.2298 242.19 47.9765 242.5 47.7698 242.92H47.7498V241.83H46.9498ZM54.2731 241.83V240.28H53.4231V241.83H52.5431V242.58H53.4231V245.87C53.4231 246.11 53.4465 246.303 53.4931 246.45C53.5398 246.597 53.6098 246.71 53.7031 246.79C53.8031 246.87 53.9298 246.927 54.0831 246.96C54.2431 246.987 54.4331 247 54.6531 247H55.3031V246.25H54.9131C54.7798 246.25 54.6698 246.247 54.5831 246.24C54.5031 246.227 54.4398 246.203 54.3931 246.17C54.3465 246.137 54.3131 246.09 54.2931 246.03C54.2798 245.97 54.2731 245.89 54.2731 245.79V242.58H55.3031V241.83H54.2731ZM59.8374 243.92H56.8674C56.8808 243.72 56.9241 243.533 56.9974 243.36C57.0708 243.18 57.1708 243.023 57.2974 242.89C57.4241 242.757 57.5741 242.653 57.7474 242.58C57.9274 242.5 58.1274 242.46 58.3474 242.46C58.5608 242.46 58.7541 242.5 58.9274 242.58C59.1074 242.653 59.2608 242.757 59.3874 242.89C59.5208 243.017 59.6241 243.17 59.6974 243.35C59.7774 243.53 59.8241 243.72 59.8374 243.92ZM60.6574 245.36H59.8174C59.7441 245.7 59.5908 245.953 59.3574 246.12C59.1308 246.287 58.8374 246.37 58.4774 246.37C58.1974 246.37 57.9541 246.323 57.7474 246.23C57.5408 246.137 57.3708 246.013 57.2374 245.86C57.1041 245.7 57.0074 245.52 56.9474 245.32C56.8874 245.113 56.8608 244.897 56.8674 244.67H60.7374C60.7508 244.357 60.7208 244.027 60.6474 243.68C60.5808 243.333 60.4541 243.013 60.2674 242.72C60.0874 242.427 59.8441 242.187 59.5374 242C59.2374 241.807 58.8574 241.71 58.3974 241.71C58.0441 241.71 57.7174 241.777 57.4174 241.91C57.1241 242.043 56.8674 242.23 56.6474 242.47C56.4341 242.71 56.2674 242.993 56.1474 243.32C56.0274 243.647 55.9674 244.007 55.9674 244.4C55.9808 244.793 56.0374 245.157 56.1374 245.49C56.2441 245.823 56.4008 246.11 56.6074 246.35C56.8141 246.59 57.0674 246.777 57.3674 246.91C57.6741 247.043 58.0341 247.11 58.4474 247.11C59.0341 247.11 59.5208 246.963 59.9074 246.67C60.2941 246.377 60.5441 245.94 60.6574 245.36ZM63.0085 244.28L61.0685 247H62.0985L63.5385 244.86L64.9785 247H66.0685L64.0685 244.21L65.8485 241.83H64.8285L63.5385 243.64L62.2985 241.83H61.2085L63.0085 244.28ZM67.9743 241.83V240.28H67.1243V241.83H66.2443V242.58H67.1243V245.87C67.1243 246.11 67.1476 246.303 67.1943 246.45C67.241 246.597 67.311 246.71 67.4043 246.79C67.5043 246.87 67.631 246.927 67.7843 246.96C67.9443 246.987 68.1343 247 68.3543 247H69.0043V246.25H68.6143C68.481 246.25 68.371 246.247 68.2843 246.24C68.2043 246.227 68.141 246.203 68.0943 246.17C68.0476 246.137 68.0143 246.09 67.9943 246.03C67.981 245.97 67.9743 245.89 67.9743 245.79V242.58H69.0043V241.83H67.9743Z" fill="#D0421B"/>
</svg>
