<svg width="368" height="405" viewBox="0 0 368 405" fill="none" xmlns="http://www.w3.org/2000/svg">
<g clip-path="url(#clip0)">
<rect width="368" height="405" fill="white"/>
<rect width="368" height="36" fill="#F1F1F1"/>
<path d="M30.4316 22H28.9551V13.4688H30.4316V22ZM33.4375 15.6602L33.4785 16.3926C33.9473 15.8262 34.5625 15.543 35.3242 15.543C36.6445 15.543 37.3164 16.2988 37.3398 17.8105V22H35.916V17.8926C35.916 17.4902 35.8281 17.1934 35.6523 17.002C35.4805 16.8066 35.1973 16.709 34.8027 16.709C34.2285 16.709 33.8008 16.9688 33.5195 17.4883V22H32.0957V15.6602H33.4375ZM44.3477 18.8945C44.3477 19.875 44.125 20.6582 43.6797 21.2441C43.2344 21.8262 42.6367 22.1172 41.8867 22.1172C41.1914 22.1172 40.6348 21.8887 40.2168 21.4316V24.4375H38.793V15.6602H40.1055L40.1641 16.3047C40.582 15.7969 41.1504 15.543 41.8691 15.543C42.6426 15.543 43.248 15.832 43.6855 16.4102C44.127 16.9844 44.3477 17.7832 44.3477 18.8066V18.8945ZM42.9297 18.7715C42.9297 18.1387 42.8027 17.6367 42.5488 17.2656C42.2988 16.8945 41.9395 16.709 41.4707 16.709C40.8887 16.709 40.4707 16.9492 40.2168 17.4297V20.2422C40.4746 20.7344 40.8965 20.9805 41.4824 20.9805C41.9355 20.9805 42.2891 20.7988 42.543 20.4355C42.8008 20.0684 42.9297 19.5137 42.9297 18.7715ZM49.3984 21.3789C48.9805 21.8711 48.3867 22.1172 47.6172 22.1172C46.9297 22.1172 46.4082 21.916 46.0527 21.5137C45.7012 21.1113 45.5254 20.5293 45.5254 19.7676V15.6602H46.9492V19.75C46.9492 20.5547 47.2832 20.957 47.9512 20.957C48.6426 20.957 49.1094 20.709 49.3516 20.2129V15.6602H50.7754V22H49.4336L49.3984 21.3789ZM54.0098 14.1191V15.6602H55.1289V16.7148H54.0098V20.2539C54.0098 20.4961 54.0566 20.6719 54.1504 20.7812C54.248 20.8867 54.4199 20.9395 54.666 20.9395C54.8301 20.9395 54.9961 20.9199 55.1641 20.8809V21.9824C54.8398 22.0723 54.5273 22.1172 54.2266 22.1172C53.1328 22.1172 52.5859 21.5137 52.5859 20.3066V16.7148H51.543V15.6602H52.5859V14.1191H54.0098ZM65.8574 19.2227C65.7715 20.1328 65.4355 20.8438 64.8496 21.3555C64.2637 21.8633 63.4844 22.1172 62.5117 22.1172C61.832 22.1172 61.2324 21.957 60.7129 21.6367C60.1973 21.3125 59.7988 20.8535 59.5176 20.2598C59.2363 19.666 59.0898 18.9766 59.0781 18.1914V17.3945C59.0781 16.5898 59.2207 15.8809 59.5059 15.2676C59.791 14.6543 60.1992 14.1816 60.7305 13.8496C61.2656 13.5176 61.8828 13.3516 62.582 13.3516C63.5234 13.3516 64.2812 13.6074 64.8555 14.1191C65.4297 14.6309 65.7637 15.3535 65.8574 16.2871H64.3809C64.3105 15.6738 64.1309 15.2324 63.8418 14.9629C63.5566 14.6895 63.1367 14.5527 62.582 14.5527C61.9375 14.5527 61.4414 14.7891 61.0938 15.2617C60.75 15.7305 60.5742 16.4199 60.5664 17.3301V18.0859C60.5664 19.0078 60.7305 19.7109 61.0586 20.1953C61.3906 20.6797 61.875 20.9219 62.5117 20.9219C63.0938 20.9219 63.5312 20.791 63.8242 20.5293C64.1172 20.2676 64.3027 19.832 64.3809 19.2227H65.8574ZM66.7832 18.7715C66.7832 18.1504 66.9062 17.5918 67.1523 17.0957C67.3984 16.5957 67.7441 16.2129 68.1895 15.9473C68.6348 15.6777 69.1465 15.543 69.7246 15.543C70.5801 15.543 71.2734 15.8184 71.8047 16.3691C72.3398 16.9199 72.6289 17.6504 72.6719 18.5605L72.6777 18.8945C72.6777 19.5195 72.5566 20.0781 72.3145 20.5703C72.0762 21.0625 71.7324 21.4434 71.2832 21.7129C70.8379 21.9824 70.3223 22.1172 69.7363 22.1172C68.8418 22.1172 68.125 21.8203 67.5859 21.2266C67.0508 20.6289 66.7832 19.834 66.7832 18.8418V18.7715ZM68.207 18.8945C68.207 19.5469 68.3418 20.0586 68.6113 20.4297C68.8809 20.7969 69.2559 20.9805 69.7363 20.9805C70.2168 20.9805 70.5898 20.793 70.8555 20.418C71.125 20.043 71.2598 19.4941 71.2598 18.7715C71.2598 18.1309 71.1211 17.623 70.8438 17.248C70.5703 16.873 70.1973 16.6855 69.7246 16.6855C69.2598 16.6855 68.8906 16.8711 68.6172 17.2422C68.3438 17.6094 68.207 18.1602 68.207 18.8945ZM75.2207 15.6602L75.2617 16.3223C75.707 15.8027 76.3164 15.543 77.0898 15.543C77.9375 15.543 78.5176 15.8672 78.8301 16.5156C79.291 15.8672 79.9395 15.543 80.7754 15.543C81.4746 15.543 81.9941 15.7363 82.334 16.123C82.6777 16.5098 82.8535 17.0801 82.8613 17.834V22H81.4375V17.875C81.4375 17.4727 81.3496 17.1777 81.1738 16.9902C80.998 16.8027 80.707 16.709 80.3008 16.709C79.9766 16.709 79.7109 16.7969 79.5039 16.9727C79.3008 17.1445 79.1582 17.3711 79.0762 17.6523L79.082 22H77.6582V17.8281C77.6387 17.082 77.2578 16.709 76.5156 16.709C75.9453 16.709 75.541 16.9414 75.3027 17.4062V22H73.8789V15.6602H75.2207ZM89.875 18.8945C89.875 19.875 89.6523 20.6582 89.207 21.2441C88.7617 21.8262 88.1641 22.1172 87.4141 22.1172C86.7188 22.1172 86.1621 21.8887 85.7441 21.4316V24.4375H84.3203V15.6602H85.6328L85.6914 16.3047C86.1094 15.7969 86.6777 15.543 87.3965 15.543C88.1699 15.543 88.7754 15.832 89.2129 16.4102C89.6543 16.9844 89.875 17.7832 89.875 18.8066V18.8945ZM88.457 18.7715C88.457 18.1387 88.3301 17.6367 88.0762 17.2656C87.8262 16.8945 87.4668 16.709 86.998 16.709C86.416 16.709 85.998 16.9492 85.7441 17.4297V20.2422C86.002 20.7344 86.4238 20.9805 87.0098 20.9805C87.4629 20.9805 87.8164 20.7988 88.0703 20.4355C88.3281 20.0684 88.457 19.5137 88.457 18.7715ZM90.8184 18.7715C90.8184 18.1504 90.9414 17.5918 91.1875 17.0957C91.4336 16.5957 91.7793 16.2129 92.2246 15.9473C92.6699 15.6777 93.1816 15.543 93.7598 15.543C94.6152 15.543 95.3086 15.8184 95.8398 16.3691C96.375 16.9199 96.6641 17.6504 96.707 18.5605L96.7129 18.8945C96.7129 19.5195 96.5918 20.0781 96.3496 20.5703C96.1113 21.0625 95.7676 21.4434 95.3184 21.7129C94.873 21.9824 94.3574 22.1172 93.7715 22.1172C92.877 22.1172 92.1602 21.8203 91.6211 21.2266C91.0859 20.6289 90.8184 19.834 90.8184 18.8418V18.7715ZM92.2422 18.8945C92.2422 19.5469 92.377 20.0586 92.6465 20.4297C92.916 20.7969 93.291 20.9805 93.7715 20.9805C94.252 20.9805 94.625 20.793 94.8906 20.418C95.1602 20.043 95.2949 19.4941 95.2949 18.7715C95.2949 18.1309 95.1562 17.623 94.8789 17.248C94.6055 16.873 94.2324 16.6855 93.7598 16.6855C93.2949 16.6855 92.9258 16.8711 92.6523 17.2422C92.3789 17.6094 92.2422 18.1602 92.2422 18.8945ZM99.2383 15.6602L99.2793 16.3926C99.748 15.8262 100.363 15.543 101.125 15.543C102.445 15.543 103.117 16.2988 103.141 17.8105V22H101.717V17.8926C101.717 17.4902 101.629 17.1934 101.453 17.002C101.281 16.8066 100.998 16.709 100.604 16.709C100.029 16.709 99.6016 16.9688 99.3203 17.4883V22H97.8965V15.6602H99.2383ZM107.389 22.1172C106.486 22.1172 105.754 21.834 105.191 21.2676C104.633 20.6973 104.354 19.9395 104.354 18.9941V18.8184C104.354 18.1855 104.475 17.6211 104.717 17.125C104.963 16.625 105.307 16.2363 105.748 15.959C106.189 15.6816 106.682 15.543 107.225 15.543C108.088 15.543 108.754 15.8184 109.223 16.3691C109.695 16.9199 109.932 17.6992 109.932 18.707V19.2812H105.789C105.832 19.8047 106.006 20.2188 106.311 20.5234C106.619 20.8281 107.006 20.9805 107.471 20.9805C108.123 20.9805 108.654 20.7168 109.064 20.1895L109.832 20.9219C109.578 21.3008 109.238 21.5957 108.812 21.8066C108.391 22.0137 107.916 22.1172 107.389 22.1172ZM107.219 16.6855C106.828 16.6855 106.512 16.8223 106.27 17.0957C106.031 17.3691 105.879 17.75 105.812 18.2383H108.525V18.1328C108.494 17.6562 108.367 17.2969 108.145 17.0547C107.922 16.8086 107.613 16.6855 107.219 16.6855ZM112.363 15.6602L112.404 16.3926C112.873 15.8262 113.488 15.543 114.25 15.543C115.57 15.543 116.242 16.2988 116.266 17.8105V22H114.842V17.8926C114.842 17.4902 114.754 17.1934 114.578 17.002C114.406 16.8066 114.123 16.709 113.729 16.709C113.154 16.709 112.727 16.9688 112.445 17.4883V22H111.021V15.6602H112.363ZM119.506 14.1191V15.6602H120.625V16.7148H119.506V20.2539C119.506 20.4961 119.553 20.6719 119.646 20.7812C119.744 20.8867 119.916 20.9395 120.162 20.9395C120.326 20.9395 120.492 20.9199 120.66 20.8809V21.9824C120.336 22.0723 120.023 22.1172 119.723 22.1172C118.629 22.1172 118.082 21.5137 118.082 20.3066V16.7148H117.039V15.6602H118.082V14.1191H119.506Z" fill="black"/>
<rect y="164" width="368" height="241" fill="white"/>
<path d="M67.84 194.856V205H69.36V194.856H73.168V193.576H64.032V194.856H67.84ZM78.1743 200.072H73.4223C73.4436 199.752 73.5129 199.453 73.6303 199.176C73.7476 198.888 73.9076 198.637 74.1103 198.424C74.3129 198.211 74.5529 198.045 74.8303 197.928C75.1183 197.8 75.4383 197.736 75.7903 197.736C76.1316 197.736 76.4409 197.8 76.7183 197.928C77.0063 198.045 77.2516 198.211 77.4543 198.424C77.6676 198.627 77.8329 198.872 77.9503 199.16C78.0783 199.448 78.1529 199.752 78.1743 200.072ZM79.4862 202.376H78.1423C78.0249 202.92 77.7796 203.325 77.4063 203.592C77.0436 203.859 76.5743 203.992 75.9983 203.992C75.5503 203.992 75.1609 203.917 74.8303 203.768C74.4996 203.619 74.2276 203.421 74.0143 203.176C73.8009 202.92 73.6463 202.632 73.5503 202.312C73.4543 201.981 73.4116 201.635 73.4223 201.272H79.6143C79.6356 200.771 79.5876 200.243 79.4703 199.688C79.3636 199.133 79.1609 198.621 78.8623 198.152C78.5743 197.683 78.1849 197.299 77.6943 197C77.2143 196.691 76.6063 196.536 75.8703 196.536C75.3049 196.536 74.7823 196.643 74.3023 196.856C73.8329 197.069 73.4223 197.368 73.0703 197.752C72.7289 198.136 72.4623 198.589 72.2703 199.112C72.0783 199.635 71.9823 200.211 71.9823 200.84C72.0036 201.469 72.0943 202.051 72.2543 202.584C72.4249 203.117 72.6756 203.576 73.0063 203.96C73.3369 204.344 73.7423 204.643 74.2223 204.856C74.7129 205.069 75.2889 205.176 75.9503 205.176C76.8889 205.176 77.6676 204.941 78.2863 204.472C78.9049 204.003 79.3049 203.304 79.4862 202.376ZM83.248 200.648L80.144 205H81.792L84.096 201.576L86.4 205H88.144L84.944 200.536L87.792 196.728H86.16L84.096 199.624L82.112 196.728H80.368L83.248 200.648ZM91.1933 196.728V194.248H89.8333V196.728H88.4253V197.928H89.8333V203.192C89.8333 203.576 89.8706 203.885 89.9453 204.12C90.0199 204.355 90.1319 204.536 90.2812 204.664C90.4413 204.792 90.6439 204.883 90.8893 204.936C91.1453 204.979 91.4493 205 91.8013 205H92.8413V203.8H92.2173C92.0039 203.8 91.8279 203.795 91.6893 203.784C91.5613 203.763 91.4599 203.725 91.3853 203.672C91.3106 203.619 91.2573 203.544 91.2253 203.448C91.2039 203.352 91.1933 203.224 91.1933 203.064V197.928H92.8413V196.728H91.1933ZM97.7761 193.304L93.0561 205.256H94.2081L98.9441 193.304H97.7761ZM101.424 198.488V194.856H104.464C104.795 194.856 105.104 194.877 105.392 194.92C105.691 194.952 105.952 195.032 106.176 195.16C106.4 195.288 106.576 195.469 106.704 195.704C106.832 195.939 106.896 196.259 106.896 196.664C106.896 197.272 106.704 197.731 106.32 198.04C105.947 198.339 105.328 198.488 104.464 198.488H101.424ZM99.9043 193.576V205H105.424C105.99 205 106.486 204.909 106.912 204.728C107.35 204.536 107.712 204.291 108 203.992C108.299 203.683 108.523 203.331 108.672 202.936C108.822 202.541 108.896 202.136 108.896 201.72C108.896 201.016 108.71 200.419 108.336 199.928C107.963 199.437 107.424 199.117 106.72 198.968V198.936C107.264 198.723 107.68 198.397 107.968 197.96C108.267 197.512 108.416 196.984 108.416 196.376C108.416 195.8 108.283 195.315 108.016 194.92C107.76 194.525 107.446 194.216 107.072 193.992C106.902 193.885 106.694 193.805 106.448 193.752C106.214 193.699 105.958 193.661 105.68 193.64C105.403 193.608 105.12 193.592 104.832 193.592C104.555 193.581 104.294 193.576 104.048 193.576H99.9043ZM101.424 203.72V199.768H104.896C105.216 199.768 105.526 199.8 105.824 199.864C106.123 199.917 106.384 200.019 106.608 200.168C106.843 200.307 107.03 200.499 107.168 200.744C107.307 200.989 107.376 201.299 107.376 201.672C107.376 202.312 107.184 202.813 106.8 203.176C106.427 203.539 105.904 203.72 105.232 203.72H101.424ZM111.625 200.872C111.625 200.371 111.689 199.928 111.817 199.544C111.956 199.149 112.143 198.819 112.377 198.552C112.612 198.285 112.884 198.083 113.193 197.944C113.513 197.805 113.849 197.736 114.201 197.736C114.553 197.736 114.884 197.805 115.193 197.944C115.513 198.083 115.791 198.285 116.025 198.552C116.26 198.819 116.441 199.149 116.569 199.544C116.708 199.928 116.777 200.371 116.777 200.872C116.777 201.373 116.708 201.821 116.569 202.216C116.441 202.6 116.26 202.925 116.025 203.192C115.791 203.448 115.513 203.645 115.193 203.784C114.884 203.923 114.553 203.992 114.201 203.992C113.849 203.992 113.513 203.923 113.193 203.784C112.884 203.645 112.612 203.448 112.377 203.192C112.143 202.925 111.956 202.6 111.817 202.216C111.689 201.821 111.625 201.373 111.625 200.872ZM110.185 200.872C110.185 201.48 110.271 202.045 110.441 202.568C110.612 203.091 110.868 203.549 111.209 203.944C111.551 204.328 111.972 204.632 112.473 204.856C112.975 205.069 113.551 205.176 114.201 205.176C114.863 205.176 115.439 205.069 115.929 204.856C116.431 204.632 116.852 204.328 117.193 203.944C117.535 203.549 117.791 203.091 117.961 202.568C118.132 202.045 118.217 201.48 118.217 200.872C118.217 200.264 118.132 199.699 117.961 199.176C117.791 198.643 117.535 198.184 117.193 197.8C116.852 197.405 116.431 197.096 115.929 196.872C115.439 196.648 114.863 196.536 114.201 196.536C113.551 196.536 112.975 196.648 112.473 196.872C111.972 197.096 111.551 197.405 111.209 197.8C110.868 198.184 110.612 198.643 110.441 199.176C110.271 199.699 110.185 200.264 110.185 200.872ZM120.813 200.936C120.813 200.531 120.856 200.136 120.941 199.752C121.026 199.368 121.165 199.027 121.357 198.728C121.549 198.429 121.805 198.189 122.125 198.008C122.445 197.827 122.834 197.736 123.293 197.736C123.762 197.736 124.162 197.827 124.493 198.008C124.824 198.179 125.09 198.408 125.293 198.696C125.506 198.984 125.661 199.32 125.757 199.704C125.853 200.077 125.901 200.467 125.901 200.872C125.901 201.256 125.853 201.635 125.757 202.008C125.672 202.381 125.528 202.717 125.325 203.016C125.122 203.304 124.861 203.539 124.541 203.72C124.221 203.901 123.832 203.992 123.373 203.992C122.936 203.992 122.552 203.907 122.221 203.736C121.901 203.565 121.634 203.336 121.421 203.048C121.218 202.76 121.064 202.435 120.957 202.072C120.861 201.699 120.813 201.32 120.813 200.936ZM127.213 205V193.576H125.853V197.832H125.821C125.672 197.587 125.485 197.384 125.261 197.224C125.048 197.053 124.818 196.92 124.573 196.824C124.328 196.717 124.082 196.643 123.837 196.6C123.592 196.557 123.362 196.536 123.149 196.536C122.52 196.536 121.965 196.653 121.485 196.888C121.016 197.112 120.621 197.421 120.301 197.816C119.992 198.2 119.757 198.653 119.597 199.176C119.448 199.699 119.373 200.253 119.373 200.84C119.373 201.427 119.453 201.981 119.613 202.504C119.773 203.027 120.008 203.485 120.317 203.88C120.637 204.275 121.032 204.589 121.501 204.824C121.981 205.059 122.541 205.176 123.181 205.176C123.757 205.176 124.285 205.075 124.765 204.872C125.245 204.669 125.597 204.339 125.821 203.88H125.853V205H127.213ZM132.553 206.104C132.393 206.509 132.233 206.851 132.073 207.128C131.924 207.405 131.753 207.629 131.561 207.8C131.38 207.981 131.172 208.109 130.937 208.184C130.713 208.269 130.452 208.312 130.153 208.312C129.993 208.312 129.833 208.301 129.673 208.28C129.513 208.259 129.359 208.221 129.209 208.168V206.92C129.327 206.973 129.46 207.016 129.609 207.048C129.769 207.091 129.903 207.112 130.009 207.112C130.287 207.112 130.516 207.043 130.697 206.904C130.889 206.776 131.033 206.589 131.129 206.344L131.689 204.952L128.409 196.728H129.945L132.361 203.496H132.393L134.713 196.728H136.153L132.553 206.104Z" fill="#262626"/>
<path d="M31.486 201.136L32.788 197.468H32.816L34.076 201.136H31.486ZM31.696 195.004L27.916 205H30.128L30.912 202.774H34.65L35.406 205H37.688L33.95 195.004H31.696ZM41.714 203.292C41.406 203.292 41.1493 203.227 40.944 203.096C40.7387 202.965 40.5707 202.797 40.44 202.592C40.3187 202.387 40.23 202.158 40.174 201.906C40.1273 201.645 40.104 201.383 40.104 201.122C40.104 200.851 40.132 200.595 40.188 200.352C40.2533 200.1 40.3513 199.881 40.482 199.694C40.622 199.498 40.79 199.344 40.986 199.232C41.1913 199.12 41.434 199.064 41.714 199.064C42.0407 199.064 42.3113 199.125 42.526 199.246C42.7407 199.367 42.9133 199.531 43.044 199.736C43.1747 199.941 43.268 200.179 43.324 200.45C43.38 200.711 43.408 200.991 43.408 201.29C43.408 201.551 43.3707 201.803 43.296 202.046C43.2307 202.279 43.128 202.489 42.988 202.676C42.848 202.863 42.6707 203.012 42.456 203.124C42.2413 203.236 41.994 203.292 41.714 203.292ZM45.298 204.538V197.762H43.408V198.728H43.38C43.1373 198.308 42.834 198.009 42.47 197.832C42.1153 197.655 41.7 197.566 41.224 197.566C40.72 197.566 40.272 197.664 39.88 197.86C39.4973 198.056 39.1753 198.322 38.914 198.658C38.6527 198.985 38.452 199.367 38.312 199.806C38.1813 200.235 38.116 200.683 38.116 201.15C38.116 201.645 38.172 202.116 38.284 202.564C38.4053 203.003 38.592 203.39 38.844 203.726C39.096 204.053 39.418 204.314 39.81 204.51C40.202 204.697 40.6687 204.79 41.21 204.79C41.6487 204.79 42.064 204.701 42.456 204.524C42.8573 204.337 43.1653 204.053 43.38 203.67H43.408V204.622C43.4173 205.135 43.2913 205.56 43.03 205.896C42.778 206.232 42.372 206.4 41.812 206.4C41.4573 206.4 41.1447 206.325 40.874 206.176C40.6033 206.036 40.4213 205.779 40.328 205.406H38.354C38.382 205.817 38.494 206.167 38.69 206.456C38.8953 206.755 39.1473 206.997 39.446 207.184C39.754 207.371 40.09 207.506 40.454 207.59C40.8273 207.683 41.1913 207.73 41.546 207.73C42.3767 207.73 43.0393 207.618 43.534 207.394C44.0287 207.17 44.4067 206.895 44.668 206.568C44.9293 206.251 45.0973 205.905 45.172 205.532C45.256 205.159 45.298 204.827 45.298 204.538Z" fill="#262626"/>
<path d="M70.64 291.384H72.048C71.9947 290.893 71.8667 290.472 71.664 290.12C71.4613 289.757 71.2 289.459 70.88 289.224C70.5707 288.989 70.208 288.819 69.792 288.712C69.3867 288.595 68.9493 288.536 68.48 288.536C67.8293 288.536 67.2587 288.653 66.768 288.888C66.2773 289.112 65.8667 289.427 65.536 289.832C65.216 290.227 64.976 290.696 64.816 291.24C64.656 291.773 64.576 292.349 64.576 292.968C64.576 293.587 64.656 294.157 64.816 294.68C64.9867 295.192 65.232 295.635 65.552 296.008C65.8827 296.381 66.288 296.669 66.768 296.872C67.2587 297.075 67.8187 297.176 68.448 297.176C69.504 297.176 70.336 296.899 70.944 296.344C71.5627 295.789 71.9467 295 72.096 293.976H70.704C70.6187 294.616 70.384 295.112 70 295.464C69.6267 295.816 69.104 295.992 68.432 295.992C68.0053 295.992 67.6373 295.907 67.328 295.736C67.0187 295.565 66.768 295.341 66.576 295.064C66.384 294.776 66.24 294.451 66.144 294.088C66.0587 293.725 66.016 293.352 66.016 292.968C66.016 292.552 66.0587 292.152 66.144 291.768C66.2293 291.373 66.368 291.027 66.56 290.728C66.7627 290.429 67.0293 290.189 67.36 290.008C67.6907 289.827 68.1013 289.736 68.592 289.736C69.168 289.736 69.6267 289.88 69.968 290.168C70.3093 290.456 70.5333 290.861 70.64 291.384ZM74.6098 292.872C74.6098 292.371 74.6738 291.928 74.8018 291.544C74.9404 291.149 75.1271 290.819 75.3618 290.552C75.5964 290.285 75.8684 290.083 76.1778 289.944C76.4978 289.805 76.8338 289.736 77.1858 289.736C77.5378 289.736 77.8684 289.805 78.1778 289.944C78.4978 290.083 78.7751 290.285 79.0098 290.552C79.2444 290.819 79.4258 291.149 79.5538 291.544C79.6924 291.928 79.7618 292.371 79.7618 292.872C79.7618 293.373 79.6924 293.821 79.5538 294.216C79.4258 294.6 79.2444 294.925 79.0098 295.192C78.7751 295.448 78.4978 295.645 78.1778 295.784C77.8684 295.923 77.5378 295.992 77.1858 295.992C76.8338 295.992 76.4978 295.923 76.1778 295.784C75.8684 295.645 75.5964 295.448 75.3618 295.192C75.1271 294.925 74.9404 294.6 74.8018 294.216C74.6738 293.821 74.6098 293.373 74.6098 292.872ZM73.1698 292.872C73.1698 293.48 73.2551 294.045 73.4258 294.568C73.5964 295.091 73.8524 295.549 74.1938 295.944C74.5351 296.328 74.9564 296.632 75.4578 296.856C75.9591 297.069 76.5351 297.176 77.1858 297.176C77.8471 297.176 78.4231 297.069 78.9138 296.856C79.4151 296.632 79.8364 296.328 80.1778 295.944C80.5191 295.549 80.7751 295.091 80.9458 294.568C81.1164 294.045 81.2018 293.48 81.2018 292.872C81.2018 292.264 81.1164 291.699 80.9458 291.176C80.7751 290.643 80.5191 290.184 80.1778 289.8C79.8364 289.405 79.4151 289.096 78.9138 288.872C78.4231 288.648 77.8471 288.536 77.1858 288.536C76.5351 288.536 75.9591 288.648 75.4578 288.872C74.9564 289.096 74.5351 289.405 74.1938 289.8C73.8524 290.184 73.5964 290.643 73.4258 291.176C73.2551 291.699 73.1698 292.264 73.1698 292.872ZM82.8853 285.576V297H84.2453V285.576H82.8853ZM87.3441 292.872C87.3441 292.371 87.4081 291.928 87.5361 291.544C87.6748 291.149 87.8615 290.819 88.0961 290.552C88.3308 290.285 88.6028 290.083 88.9121 289.944C89.2321 289.805 89.5681 289.736 89.9201 289.736C90.2721 289.736 90.6028 289.805 90.9121 289.944C91.2321 290.083 91.5095 290.285 91.7441 290.552C91.9788 290.819 92.1601 291.149 92.2881 291.544C92.4268 291.928 92.4961 292.371 92.4961 292.872C92.4961 293.373 92.4268 293.821 92.2881 294.216C92.1601 294.6 91.9788 294.925 91.7441 295.192C91.5095 295.448 91.2321 295.645 90.9121 295.784C90.6028 295.923 90.2721 295.992 89.9201 295.992C89.5681 295.992 89.2321 295.923 88.9121 295.784C88.6028 295.645 88.3308 295.448 88.0961 295.192C87.8615 294.925 87.6748 294.6 87.5361 294.216C87.4081 293.821 87.3441 293.373 87.3441 292.872ZM85.9041 292.872C85.9041 293.48 85.9895 294.045 86.1601 294.568C86.3308 295.091 86.5868 295.549 86.9281 295.944C87.2695 296.328 87.6908 296.632 88.1921 296.856C88.6935 297.069 89.2695 297.176 89.9201 297.176C90.5815 297.176 91.1575 297.069 91.6481 296.856C92.1495 296.632 92.5708 296.328 92.9121 295.944C93.2535 295.549 93.5095 295.091 93.6801 294.568C93.8508 294.045 93.9361 293.48 93.9361 292.872C93.9361 292.264 93.8508 291.699 93.6801 291.176C93.5095 290.643 93.2535 290.184 92.9121 289.8C92.5708 289.405 92.1495 289.096 91.6481 288.872C91.1575 288.648 90.5815 288.536 89.9201 288.536C89.2695 288.536 88.6935 288.648 88.1921 288.872C87.6908 289.096 87.2695 289.405 86.9281 289.8C86.5868 290.184 86.3308 290.643 86.1601 291.176C85.9895 291.699 85.9041 292.264 85.9041 292.872ZM95.4916 288.728V297H96.8516V293.32C96.8516 292.787 96.905 292.317 97.0116 291.912C97.1183 291.496 97.289 291.144 97.5236 290.856C97.7583 290.568 98.0676 290.349 98.4516 290.2C98.8356 290.051 99.2996 289.976 99.8436 289.976V288.536C99.1076 288.515 98.4996 288.664 98.0196 288.984C97.5396 289.304 97.1343 289.8 96.8036 290.472H96.7716V288.728H95.4916ZM101.7 294.392H100.34C100.361 294.904 100.468 295.341 100.66 295.704C100.852 296.056 101.108 296.344 101.428 296.568C101.748 296.781 102.116 296.936 102.532 297.032C102.948 297.128 103.385 297.176 103.844 297.176C104.26 297.176 104.676 297.133 105.092 297.048C105.518 296.973 105.897 296.835 106.228 296.632C106.569 296.429 106.841 296.163 107.044 295.832C107.257 295.501 107.364 295.085 107.364 294.584C107.364 294.189 107.284 293.859 107.124 293.592C106.974 293.325 106.772 293.107 106.516 292.936C106.27 292.755 105.982 292.611 105.652 292.504C105.332 292.397 105.001 292.307 104.66 292.232C104.34 292.157 104.02 292.088 103.7 292.024C103.38 291.949 103.092 291.864 102.836 291.768C102.58 291.661 102.366 291.533 102.196 291.384C102.036 291.224 101.956 291.027 101.956 290.792C101.956 290.579 102.009 290.408 102.116 290.28C102.222 290.141 102.361 290.035 102.532 289.96C102.702 289.875 102.889 289.816 103.092 289.784C103.305 289.752 103.513 289.736 103.716 289.736C103.94 289.736 104.158 289.763 104.372 289.816C104.596 289.859 104.798 289.933 104.98 290.04C105.161 290.147 105.31 290.291 105.428 290.472C105.545 290.643 105.614 290.861 105.636 291.128H106.996C106.964 290.627 106.857 290.211 106.676 289.88C106.494 289.539 106.249 289.272 105.94 289.08C105.641 288.877 105.294 288.739 104.9 288.664C104.505 288.579 104.073 288.536 103.604 288.536C103.241 288.536 102.873 288.584 102.5 288.68C102.137 288.765 101.806 288.904 101.508 289.096C101.22 289.277 100.98 289.517 100.788 289.816C100.606 290.115 100.516 290.472 100.516 290.888C100.516 291.421 100.649 291.837 100.916 292.136C101.182 292.435 101.513 292.669 101.908 292.84C102.313 293 102.75 293.128 103.22 293.224C103.689 293.309 104.121 293.411 104.516 293.528C104.921 293.635 105.257 293.779 105.524 293.96C105.79 294.141 105.924 294.408 105.924 294.76C105.924 295.016 105.86 295.229 105.732 295.4C105.604 295.56 105.438 295.683 105.236 295.768C105.044 295.853 104.83 295.912 104.596 295.944C104.361 295.976 104.137 295.992 103.924 295.992C103.646 295.992 103.374 295.965 103.108 295.912C102.852 295.859 102.617 295.773 102.404 295.656C102.201 295.528 102.036 295.363 101.908 295.16C101.78 294.947 101.71 294.691 101.7 294.392ZM112.292 285.304L107.572 297.256H108.724L113.46 285.304H112.292ZM121.044 297V288.728H119.684V293.4C119.684 293.773 119.631 294.12 119.524 294.44C119.428 294.749 119.279 295.021 119.076 295.256C118.873 295.491 118.617 295.672 118.308 295.8C118.009 295.928 117.652 295.992 117.236 295.992C116.713 295.992 116.303 295.843 116.004 295.544C115.705 295.245 115.556 294.84 115.556 294.328V288.728H114.196V294.168C114.196 294.616 114.239 295.027 114.324 295.4C114.42 295.763 114.58 296.077 114.804 296.344C115.028 296.611 115.321 296.819 115.684 296.968C116.047 297.107 116.5 297.176 117.044 297.176C117.652 297.176 118.18 297.059 118.628 296.824C119.076 296.579 119.444 296.2 119.732 295.688H119.764V297H121.044ZM124.527 287.24V285.576H123.167V287.24H124.527ZM123.167 288.728V297H124.527V288.728H123.167ZM130.057 285.304L125.337 297.256H126.489L131.225 285.304H130.057ZM132.954 292.936C132.954 292.531 132.996 292.136 133.082 291.752C133.167 291.368 133.306 291.027 133.498 290.728C133.69 290.429 133.946 290.189 134.266 290.008C134.586 289.827 134.975 289.736 135.434 289.736C135.903 289.736 136.303 289.827 136.634 290.008C136.964 290.179 137.231 290.408 137.434 290.696C137.647 290.984 137.802 291.32 137.898 291.704C137.994 292.077 138.042 292.467 138.042 292.872C138.042 293.256 137.994 293.635 137.898 294.008C137.812 294.381 137.668 294.717 137.466 295.016C137.263 295.304 137.002 295.539 136.682 295.72C136.362 295.901 135.972 295.992 135.514 295.992C135.076 295.992 134.692 295.907 134.362 295.736C134.042 295.565 133.775 295.336 133.562 295.048C133.359 294.76 133.204 294.435 133.098 294.072C133.002 293.699 132.954 293.32 132.954 292.936ZM139.354 300.152V288.728H137.994V289.832H137.962C137.812 289.587 137.626 289.384 137.402 289.224C137.188 289.053 136.959 288.92 136.714 288.824C136.468 288.717 136.223 288.643 135.978 288.6C135.732 288.557 135.503 288.536 135.29 288.536C134.66 288.536 134.106 288.653 133.626 288.888C133.156 289.112 132.762 289.421 132.442 289.816C132.132 290.2 131.898 290.653 131.738 291.176C131.588 291.699 131.514 292.253 131.514 292.84C131.514 293.427 131.594 293.981 131.754 294.504C131.914 295.027 132.148 295.485 132.458 295.88C132.778 296.275 133.172 296.589 133.642 296.824C134.122 297.059 134.682 297.176 135.322 297.176C135.898 297.176 136.426 297.075 136.906 296.872C137.386 296.669 137.738 296.339 137.962 295.88H137.994V300.152H139.354ZM148.294 297V288.728H146.934V293.4C146.934 293.773 146.881 294.12 146.774 294.44C146.678 294.749 146.529 295.021 146.326 295.256C146.123 295.491 145.867 295.672 145.558 295.8C145.259 295.928 144.902 295.992 144.486 295.992C143.963 295.992 143.553 295.843 143.254 295.544C142.955 295.245 142.806 294.84 142.806 294.328V288.728H141.446V294.168C141.446 294.616 141.489 295.027 141.574 295.4C141.67 295.763 141.83 296.077 142.054 296.344C142.278 296.611 142.571 296.819 142.934 296.968C143.297 297.107 143.75 297.176 144.294 297.176C144.902 297.176 145.43 297.059 145.878 296.824C146.326 296.579 146.694 296.2 146.982 295.688H147.014V297H148.294ZM157.665 296.968C157.43 297.107 157.105 297.176 156.689 297.176C156.337 297.176 156.054 297.08 155.841 296.888C155.638 296.685 155.537 296.36 155.537 295.912C155.163 296.36 154.726 296.685 154.225 296.888C153.734 297.08 153.201 297.176 152.625 297.176C152.251 297.176 151.894 297.133 151.553 297.048C151.222 296.963 150.934 296.829 150.689 296.648C150.443 296.467 150.246 296.232 150.097 295.944C149.958 295.645 149.889 295.288 149.889 294.872C149.889 294.403 149.969 294.019 150.129 293.72C150.289 293.421 150.497 293.181 150.753 293C151.019 292.808 151.318 292.664 151.649 292.568C151.99 292.472 152.337 292.392 152.689 292.328C153.062 292.253 153.414 292.2 153.745 292.168C154.086 292.125 154.385 292.072 154.641 292.008C154.897 291.933 155.099 291.832 155.249 291.704C155.398 291.565 155.473 291.368 155.473 291.112C155.473 290.813 155.414 290.573 155.297 290.392C155.19 290.211 155.046 290.072 154.865 289.976C154.694 289.88 154.497 289.816 154.273 289.784C154.059 289.752 153.846 289.736 153.633 289.736C153.057 289.736 152.577 289.848 152.193 290.072C151.809 290.285 151.601 290.696 151.569 291.304H150.209C150.23 290.792 150.337 290.36 150.529 290.008C150.721 289.656 150.977 289.373 151.297 289.16C151.617 288.936 151.979 288.776 152.385 288.68C152.801 288.584 153.243 288.536 153.713 288.536C154.086 288.536 154.454 288.563 154.817 288.616C155.19 288.669 155.526 288.781 155.825 288.952C156.123 289.112 156.363 289.341 156.545 289.64C156.726 289.939 156.817 290.328 156.817 290.808V295.064C156.817 295.384 156.833 295.619 156.865 295.768C156.907 295.917 157.035 295.992 157.249 295.992C157.366 295.992 157.505 295.965 157.665 295.912V296.968ZM155.457 292.728C155.286 292.856 155.062 292.952 154.785 293.016C154.507 293.069 154.214 293.117 153.905 293.16C153.606 293.192 153.302 293.235 152.993 293.288C152.683 293.331 152.406 293.405 152.161 293.512C151.915 293.619 151.713 293.773 151.553 293.976C151.403 294.168 151.329 294.435 151.329 294.776C151.329 295 151.371 295.192 151.457 295.352C151.553 295.501 151.67 295.624 151.809 295.72C151.958 295.816 152.129 295.885 152.321 295.928C152.513 295.971 152.715 295.992 152.929 295.992C153.377 295.992 153.761 295.933 154.081 295.816C154.401 295.688 154.662 295.533 154.865 295.352C155.067 295.16 155.217 294.957 155.313 294.744C155.409 294.52 155.457 294.312 155.457 294.12V292.728ZM160.818 288.728V286.248H159.458V288.728H158.05V289.928H159.458V295.192C159.458 295.576 159.496 295.885 159.57 296.12C159.645 296.355 159.757 296.536 159.906 296.664C160.066 296.792 160.269 296.883 160.514 296.936C160.77 296.979 161.074 297 161.426 297H162.466V295.8H161.842C161.629 295.8 161.453 295.795 161.314 295.784C161.186 295.763 161.085 295.725 161.01 295.672C160.936 295.619 160.882 295.544 160.85 295.448C160.829 295.352 160.818 295.224 160.818 295.064V289.928H162.466V288.728H160.818ZM169.721 292.072H164.969C164.99 291.752 165.06 291.453 165.177 291.176C165.294 290.888 165.454 290.637 165.657 290.424C165.86 290.211 166.1 290.045 166.377 289.928C166.665 289.8 166.985 289.736 167.337 289.736C167.678 289.736 167.988 289.8 168.265 289.928C168.553 290.045 168.798 290.211 169.001 290.424C169.214 290.627 169.38 290.872 169.497 291.16C169.625 291.448 169.7 291.752 169.721 292.072ZM171.033 294.376H169.689C169.572 294.92 169.326 295.325 168.953 295.592C168.59 295.859 168.121 295.992 167.545 295.992C167.097 295.992 166.708 295.917 166.377 295.768C166.046 295.619 165.774 295.421 165.561 295.176C165.348 294.92 165.193 294.632 165.097 294.312C165.001 293.981 164.958 293.635 164.969 293.272H171.161C171.182 292.771 171.134 292.243 171.017 291.688C170.91 291.133 170.708 290.621 170.409 290.152C170.121 289.683 169.732 289.299 169.241 289C168.761 288.691 168.153 288.536 167.417 288.536C166.852 288.536 166.329 288.643 165.849 288.856C165.38 289.069 164.969 289.368 164.617 289.752C164.276 290.136 164.009 290.589 163.817 291.112C163.625 291.635 163.529 292.211 163.529 292.84C163.55 293.469 163.641 294.051 163.801 294.584C163.972 295.117 164.222 295.576 164.553 295.96C164.884 296.344 165.289 296.643 165.769 296.856C166.26 297.069 166.836 297.176 167.497 297.176C168.436 297.176 169.214 296.941 169.833 296.472C170.452 296.003 170.852 295.304 171.033 294.376ZM172.523 288.728V297H173.883V293.32C173.883 292.787 173.936 292.317 174.043 291.912C174.15 291.496 174.32 291.144 174.555 290.856C174.79 290.568 175.099 290.349 175.483 290.2C175.867 290.051 176.331 289.976 176.875 289.976V288.536C176.139 288.515 175.531 288.664 175.051 288.984C174.571 289.304 174.166 289.8 173.835 290.472H173.803V288.728H172.523ZM178.18 288.728V297H179.54V292.328C179.54 291.955 179.588 291.613 179.684 291.304C179.791 290.984 179.946 290.707 180.148 290.472C180.351 290.237 180.602 290.056 180.9 289.928C181.21 289.8 181.572 289.736 181.988 289.736C182.511 289.736 182.922 289.885 183.22 290.184C183.519 290.483 183.668 290.888 183.668 291.4V297H185.028V291.56C185.028 291.112 184.98 290.707 184.884 290.344C184.799 289.971 184.644 289.651 184.42 289.384C184.196 289.117 183.903 288.909 183.54 288.76C183.178 288.611 182.724 288.536 182.18 288.536C180.954 288.536 180.058 289.037 179.492 290.04H179.46V288.728H178.18ZM194.399 296.968C194.164 297.107 193.839 297.176 193.423 297.176C193.071 297.176 192.788 297.08 192.575 296.888C192.372 296.685 192.271 296.36 192.271 295.912C191.898 296.36 191.46 296.685 190.959 296.888C190.468 297.08 189.935 297.176 189.359 297.176C188.986 297.176 188.628 297.133 188.287 297.048C187.956 296.963 187.668 296.829 187.423 296.648C187.178 296.467 186.98 296.232 186.831 295.944C186.692 295.645 186.623 295.288 186.623 294.872C186.623 294.403 186.703 294.019 186.863 293.72C187.023 293.421 187.231 293.181 187.487 293C187.754 292.808 188.052 292.664 188.383 292.568C188.724 292.472 189.071 292.392 189.423 292.328C189.796 292.253 190.148 292.2 190.479 292.168C190.82 292.125 191.119 292.072 191.375 292.008C191.631 291.933 191.834 291.832 191.983 291.704C192.132 291.565 192.207 291.368 192.207 291.112C192.207 290.813 192.148 290.573 192.031 290.392C191.924 290.211 191.78 290.072 191.599 289.976C191.428 289.88 191.231 289.816 191.007 289.784C190.794 289.752 190.58 289.736 190.367 289.736C189.791 289.736 189.311 289.848 188.927 290.072C188.543 290.285 188.335 290.696 188.303 291.304H186.943C186.964 290.792 187.071 290.36 187.263 290.008C187.455 289.656 187.711 289.373 188.031 289.16C188.351 288.936 188.714 288.776 189.119 288.68C189.535 288.584 189.978 288.536 190.447 288.536C190.82 288.536 191.188 288.563 191.551 288.616C191.924 288.669 192.26 288.781 192.559 288.952C192.858 289.112 193.098 289.341 193.279 289.64C193.46 289.939 193.551 290.328 193.551 290.808V295.064C193.551 295.384 193.567 295.619 193.599 295.768C193.642 295.917 193.77 295.992 193.983 295.992C194.1 295.992 194.239 295.965 194.399 295.912V296.968ZM192.191 292.728C192.02 292.856 191.796 292.952 191.519 293.016C191.242 293.069 190.948 293.117 190.639 293.16C190.34 293.192 190.036 293.235 189.727 293.288C189.418 293.331 189.14 293.405 188.895 293.512C188.65 293.619 188.447 293.773 188.287 293.976C188.138 294.168 188.063 294.435 188.063 294.776C188.063 295 188.106 295.192 188.191 295.352C188.287 295.501 188.404 295.624 188.543 295.72C188.692 295.816 188.863 295.885 189.055 295.928C189.247 295.971 189.45 295.992 189.663 295.992C190.111 295.992 190.495 295.933 190.815 295.816C191.135 295.688 191.396 295.533 191.599 295.352C191.802 295.16 191.951 294.957 192.047 294.744C192.143 294.52 192.191 294.312 192.191 294.12V292.728ZM195.617 288.728V297H196.977V293.32C196.977 292.787 197.03 292.317 197.137 291.912C197.243 291.496 197.414 291.144 197.649 290.856C197.883 290.568 198.193 290.349 198.577 290.2C198.961 290.051 199.425 289.976 199.969 289.976V288.536C199.233 288.515 198.625 288.664 198.145 288.984C197.665 289.304 197.259 289.8 196.929 290.472H196.897V288.728H195.617ZM204.241 298.104C204.081 298.509 203.921 298.851 203.761 299.128C203.611 299.405 203.441 299.629 203.249 299.8C203.067 299.981 202.859 300.109 202.625 300.184C202.401 300.269 202.139 300.312 201.841 300.312C201.681 300.312 201.521 300.301 201.361 300.28C201.201 300.259 201.046 300.221 200.897 300.168V298.92C201.014 298.973 201.147 299.016 201.297 299.048C201.457 299.091 201.59 299.112 201.697 299.112C201.974 299.112 202.203 299.043 202.385 298.904C202.577 298.776 202.721 298.589 202.817 298.344L203.377 296.952L200.097 288.728H201.633L204.049 295.496H204.081L206.401 288.728H207.841L204.241 298.104Z" fill="#262626"/>
<circle cx="38" cy="291.018" r="10.5" fill="white" stroke="#F1F1F1"/>
<path d="M70.64 245.384H72.048C71.9947 244.893 71.8667 244.472 71.664 244.12C71.4613 243.757 71.2 243.459 70.88 243.224C70.5707 242.989 70.208 242.819 69.792 242.712C69.3867 242.595 68.9493 242.536 68.48 242.536C67.8293 242.536 67.2587 242.653 66.768 242.888C66.2773 243.112 65.8667 243.427 65.536 243.832C65.216 244.227 64.976 244.696 64.816 245.24C64.656 245.773 64.576 246.349 64.576 246.968C64.576 247.587 64.656 248.157 64.816 248.68C64.9867 249.192 65.232 249.635 65.552 250.008C65.8827 250.381 66.288 250.669 66.768 250.872C67.2587 251.075 67.8187 251.176 68.448 251.176C69.504 251.176 70.336 250.899 70.944 250.344C71.5627 249.789 71.9467 249 72.096 247.976H70.704C70.6187 248.616 70.384 249.112 70 249.464C69.6267 249.816 69.104 249.992 68.432 249.992C68.0053 249.992 67.6373 249.907 67.328 249.736C67.0187 249.565 66.768 249.341 66.576 249.064C66.384 248.776 66.24 248.451 66.144 248.088C66.0587 247.725 66.016 247.352 66.016 246.968C66.016 246.552 66.0587 246.152 66.144 245.768C66.2293 245.373 66.368 245.027 66.56 244.728C66.7627 244.429 67.0293 244.189 67.36 244.008C67.6907 243.827 68.1013 243.736 68.592 243.736C69.168 243.736 69.6267 243.88 69.968 244.168C70.3093 244.456 70.5333 244.861 70.64 245.384ZM74.6098 246.872C74.6098 246.371 74.6738 245.928 74.8018 245.544C74.9404 245.149 75.1271 244.819 75.3618 244.552C75.5964 244.285 75.8684 244.083 76.1778 243.944C76.4978 243.805 76.8338 243.736 77.1858 243.736C77.5378 243.736 77.8684 243.805 78.1778 243.944C78.4978 244.083 78.7751 244.285 79.0098 244.552C79.2444 244.819 79.4258 245.149 79.5538 245.544C79.6924 245.928 79.7618 246.371 79.7618 246.872C79.7618 247.373 79.6924 247.821 79.5538 248.216C79.4258 248.6 79.2444 248.925 79.0098 249.192C78.7751 249.448 78.4978 249.645 78.1778 249.784C77.8684 249.923 77.5378 249.992 77.1858 249.992C76.8338 249.992 76.4978 249.923 76.1778 249.784C75.8684 249.645 75.5964 249.448 75.3618 249.192C75.1271 248.925 74.9404 248.6 74.8018 248.216C74.6738 247.821 74.6098 247.373 74.6098 246.872ZM73.1698 246.872C73.1698 247.48 73.2551 248.045 73.4258 248.568C73.5964 249.091 73.8524 249.549 74.1938 249.944C74.5351 250.328 74.9564 250.632 75.4578 250.856C75.9591 251.069 76.5351 251.176 77.1858 251.176C77.8471 251.176 78.4231 251.069 78.9138 250.856C79.4151 250.632 79.8364 250.328 80.1778 249.944C80.5191 249.549 80.7751 249.091 80.9458 248.568C81.1164 248.045 81.2018 247.48 81.2018 246.872C81.2018 246.264 81.1164 245.699 80.9458 245.176C80.7751 244.643 80.5191 244.184 80.1778 243.8C79.8364 243.405 79.4151 243.096 78.9138 242.872C78.4231 242.648 77.8471 242.536 77.1858 242.536C76.5351 242.536 75.9591 242.648 75.4578 242.872C74.9564 243.096 74.5351 243.405 74.1938 243.8C73.8524 244.184 73.5964 244.643 73.4258 245.176C73.2551 245.699 73.1698 246.264 73.1698 246.872ZM82.8853 239.576V251H84.2453V239.576H82.8853ZM87.3441 246.872C87.3441 246.371 87.4081 245.928 87.5361 245.544C87.6748 245.149 87.8615 244.819 88.0961 244.552C88.3308 244.285 88.6028 244.083 88.9121 243.944C89.2321 243.805 89.5681 243.736 89.9201 243.736C90.2721 243.736 90.6028 243.805 90.9121 243.944C91.2321 244.083 91.5095 244.285 91.7441 244.552C91.9788 244.819 92.1601 245.149 92.2881 245.544C92.4268 245.928 92.4961 246.371 92.4961 246.872C92.4961 247.373 92.4268 247.821 92.2881 248.216C92.1601 248.6 91.9788 248.925 91.7441 249.192C91.5095 249.448 91.2321 249.645 90.9121 249.784C90.6028 249.923 90.2721 249.992 89.9201 249.992C89.5681 249.992 89.2321 249.923 88.9121 249.784C88.6028 249.645 88.3308 249.448 88.0961 249.192C87.8615 248.925 87.6748 248.6 87.5361 248.216C87.4081 247.821 87.3441 247.373 87.3441 246.872ZM85.9041 246.872C85.9041 247.48 85.9895 248.045 86.1601 248.568C86.3308 249.091 86.5868 249.549 86.9281 249.944C87.2695 250.328 87.6908 250.632 88.1921 250.856C88.6935 251.069 89.2695 251.176 89.9201 251.176C90.5815 251.176 91.1575 251.069 91.6481 250.856C92.1495 250.632 92.5708 250.328 92.9121 249.944C93.2535 249.549 93.5095 249.091 93.6801 248.568C93.8508 248.045 93.9361 247.48 93.9361 246.872C93.9361 246.264 93.8508 245.699 93.6801 245.176C93.5095 244.643 93.2535 244.184 92.9121 243.8C92.5708 243.405 92.1495 243.096 91.6481 242.872C91.1575 242.648 90.5815 242.536 89.9201 242.536C89.2695 242.536 88.6935 242.648 88.1921 242.872C87.6908 243.096 87.2695 243.405 86.9281 243.8C86.5868 244.184 86.3308 244.643 86.1601 245.176C85.9895 245.699 85.9041 246.264 85.9041 246.872ZM95.4916 242.728V251H96.8516V247.32C96.8516 246.787 96.905 246.317 97.0116 245.912C97.1183 245.496 97.289 245.144 97.5236 244.856C97.7583 244.568 98.0676 244.349 98.4516 244.2C98.8356 244.051 99.2996 243.976 99.8436 243.976V242.536C99.1076 242.515 98.4996 242.664 98.0196 242.984C97.5396 243.304 97.1343 243.8 96.8036 244.472H96.7716V242.728H95.4916ZM101.7 248.392H100.34C100.361 248.904 100.468 249.341 100.66 249.704C100.852 250.056 101.108 250.344 101.428 250.568C101.748 250.781 102.116 250.936 102.532 251.032C102.948 251.128 103.385 251.176 103.844 251.176C104.26 251.176 104.676 251.133 105.092 251.048C105.518 250.973 105.897 250.835 106.228 250.632C106.569 250.429 106.841 250.163 107.044 249.832C107.257 249.501 107.364 249.085 107.364 248.584C107.364 248.189 107.284 247.859 107.124 247.592C106.974 247.325 106.772 247.107 106.516 246.936C106.27 246.755 105.982 246.611 105.652 246.504C105.332 246.397 105.001 246.307 104.66 246.232C104.34 246.157 104.02 246.088 103.7 246.024C103.38 245.949 103.092 245.864 102.836 245.768C102.58 245.661 102.366 245.533 102.196 245.384C102.036 245.224 101.956 245.027 101.956 244.792C101.956 244.579 102.009 244.408 102.116 244.28C102.222 244.141 102.361 244.035 102.532 243.96C102.702 243.875 102.889 243.816 103.092 243.784C103.305 243.752 103.513 243.736 103.716 243.736C103.94 243.736 104.158 243.763 104.372 243.816C104.596 243.859 104.798 243.933 104.98 244.04C105.161 244.147 105.31 244.291 105.428 244.472C105.545 244.643 105.614 244.861 105.636 245.128H106.996C106.964 244.627 106.857 244.211 106.676 243.88C106.494 243.539 106.249 243.272 105.94 243.08C105.641 242.877 105.294 242.739 104.9 242.664C104.505 242.579 104.073 242.536 103.604 242.536C103.241 242.536 102.873 242.584 102.5 242.68C102.137 242.765 101.806 242.904 101.508 243.096C101.22 243.277 100.98 243.517 100.788 243.816C100.606 244.115 100.516 244.472 100.516 244.888C100.516 245.421 100.649 245.837 100.916 246.136C101.182 246.435 101.513 246.669 101.908 246.84C102.313 247 102.75 247.128 103.22 247.224C103.689 247.309 104.121 247.411 104.516 247.528C104.921 247.635 105.257 247.779 105.524 247.96C105.79 248.141 105.924 248.408 105.924 248.76C105.924 249.016 105.86 249.229 105.732 249.4C105.604 249.56 105.438 249.683 105.236 249.768C105.044 249.853 104.83 249.912 104.596 249.944C104.361 249.976 104.137 249.992 103.924 249.992C103.646 249.992 103.374 249.965 103.108 249.912C102.852 249.859 102.617 249.773 102.404 249.656C102.201 249.528 102.036 249.363 101.908 249.16C101.78 248.947 101.71 248.691 101.7 248.392ZM112.292 239.304L107.572 251.256H108.724L113.46 239.304H112.292ZM116.084 242.728V240.248H114.724V242.728H113.316V243.928H114.724V249.192C114.724 249.576 114.761 249.885 114.836 250.12C114.911 250.355 115.023 250.536 115.172 250.664C115.332 250.792 115.535 250.883 115.78 250.936C116.036 250.979 116.34 251 116.692 251H117.732V249.8H117.108C116.895 249.8 116.719 249.795 116.58 249.784C116.452 249.763 116.351 249.725 116.276 249.672C116.201 249.619 116.148 249.544 116.116 249.448C116.095 249.352 116.084 249.224 116.084 249.064V243.928H117.732V242.728H116.084ZM124.987 246.072H120.235C120.256 245.752 120.325 245.453 120.443 245.176C120.56 244.888 120.72 244.637 120.923 244.424C121.125 244.211 121.365 244.045 121.643 243.928C121.931 243.8 122.251 243.736 122.603 243.736C122.944 243.736 123.253 243.8 123.531 243.928C123.819 244.045 124.064 244.211 124.267 244.424C124.48 244.627 124.645 244.872 124.763 245.16C124.891 245.448 124.965 245.752 124.987 246.072ZM126.299 248.376H124.955C124.837 248.92 124.592 249.325 124.219 249.592C123.856 249.859 123.387 249.992 122.811 249.992C122.363 249.992 121.973 249.917 121.643 249.768C121.312 249.619 121.04 249.421 120.827 249.176C120.613 248.92 120.459 248.632 120.363 248.312C120.267 247.981 120.224 247.635 120.235 247.272H126.427C126.448 246.771 126.4 246.243 126.283 245.688C126.176 245.133 125.973 244.621 125.675 244.152C125.387 243.683 124.997 243.299 124.507 243C124.027 242.691 123.419 242.536 122.683 242.536C122.117 242.536 121.595 242.643 121.115 242.856C120.645 243.069 120.235 243.368 119.883 243.752C119.541 244.136 119.275 244.589 119.083 245.112C118.891 245.635 118.795 246.211 118.795 246.84C118.816 247.469 118.907 248.051 119.067 248.584C119.237 249.117 119.488 249.576 119.819 249.96C120.149 250.344 120.555 250.643 121.035 250.856C121.525 251.069 122.101 251.176 122.763 251.176C123.701 251.176 124.48 250.941 125.099 250.472C125.717 250.003 126.117 249.304 126.299 248.376ZM130.061 246.648L126.957 251H128.605L130.909 247.576L133.213 251H134.957L131.757 246.536L134.605 242.728H132.973L130.909 245.624L128.924 242.728H127.181L130.061 246.648ZM138.006 242.728V240.248H136.646V242.728H135.238V243.928H136.646V249.192C136.646 249.576 136.683 249.885 136.758 250.12C136.832 250.355 136.944 250.536 137.094 250.664C137.254 250.792 137.456 250.883 137.702 250.936C137.958 250.979 138.262 251 138.614 251H139.654V249.8H139.03C138.816 249.8 138.64 249.795 138.502 249.784C138.374 249.763 138.272 249.725 138.198 249.672C138.123 249.619 138.07 249.544 138.038 249.448C138.016 249.352 138.006 249.224 138.006 249.064V243.928H139.654V242.728H138.006ZM144.589 239.304L139.869 251.256H141.021L145.757 239.304H144.589ZM147.325 248.392H145.965C145.986 248.904 146.093 249.341 146.285 249.704C146.477 250.056 146.733 250.344 147.053 250.568C147.373 250.781 147.741 250.936 148.157 251.032C148.573 251.128 149.01 251.176 149.469 251.176C149.885 251.176 150.301 251.133 150.717 251.048C151.143 250.973 151.522 250.835 151.853 250.632C152.194 250.429 152.466 250.163 152.669 249.832C152.882 249.501 152.989 249.085 152.989 248.584C152.989 248.189 152.909 247.859 152.749 247.592C152.599 247.325 152.397 247.107 152.141 246.936C151.895 246.755 151.607 246.611 151.277 246.504C150.957 246.397 150.626 246.307 150.285 246.232C149.965 246.157 149.645 246.088 149.325 246.024C149.005 245.949 148.717 245.864 148.461 245.768C148.205 245.661 147.991 245.533 147.821 245.384C147.661 245.224 147.581 245.027 147.581 244.792C147.581 244.579 147.634 244.408 147.741 244.28C147.847 244.141 147.986 244.035 148.157 243.96C148.327 243.875 148.514 243.816 148.717 243.784C148.93 243.752 149.138 243.736 149.341 243.736C149.565 243.736 149.783 243.763 149.997 243.816C150.221 243.859 150.423 243.933 150.605 244.04C150.786 244.147 150.935 244.291 151.053 244.472C151.17 244.643 151.239 244.861 151.261 245.128H152.621C152.589 244.627 152.482 244.211 152.301 243.88C152.119 243.539 151.874 243.272 151.565 243.08C151.266 242.877 150.919 242.739 150.525 242.664C150.13 242.579 149.698 242.536 149.229 242.536C148.866 242.536 148.498 242.584 148.125 242.68C147.762 242.765 147.431 242.904 147.133 243.096C146.845 243.277 146.605 243.517 146.413 243.816C146.231 244.115 146.141 244.472 146.141 244.888C146.141 245.421 146.274 245.837 146.541 246.136C146.807 246.435 147.138 246.669 147.533 246.84C147.938 247 148.375 247.128 148.845 247.224C149.314 247.309 149.746 247.411 150.141 247.528C150.546 247.635 150.882 247.779 151.149 247.96C151.415 248.141 151.549 248.408 151.549 248.76C151.549 249.016 151.485 249.229 151.357 249.4C151.229 249.56 151.063 249.683 150.861 249.768C150.669 249.853 150.455 249.912 150.221 249.944C149.986 249.976 149.762 249.992 149.549 249.992C149.271 249.992 148.999 249.965 148.733 249.912C148.477 249.859 148.242 249.773 148.029 249.656C147.826 249.528 147.661 249.363 147.533 249.16C147.405 248.947 147.335 248.691 147.325 248.392ZM160.237 246.072H155.485C155.506 245.752 155.575 245.453 155.693 245.176C155.81 244.888 155.97 244.637 156.173 244.424C156.375 244.211 156.615 244.045 156.893 243.928C157.181 243.8 157.501 243.736 157.853 243.736C158.194 243.736 158.503 243.8 158.781 243.928C159.069 244.045 159.314 244.211 159.517 244.424C159.73 244.627 159.895 244.872 160.013 245.16C160.141 245.448 160.215 245.752 160.237 246.072ZM161.549 248.376H160.205C160.087 248.92 159.842 249.325 159.469 249.592C159.106 249.859 158.637 249.992 158.061 249.992C157.613 249.992 157.223 249.917 156.893 249.768C156.562 249.619 156.29 249.421 156.077 249.176C155.863 248.92 155.709 248.632 155.613 248.312C155.517 247.981 155.474 247.635 155.485 247.272H161.677C161.698 246.771 161.65 246.243 161.533 245.688C161.426 245.133 161.223 244.621 160.925 244.152C160.637 243.683 160.247 243.299 159.757 243C159.277 242.691 158.669 242.536 157.933 242.536C157.367 242.536 156.845 242.643 156.365 242.856C155.895 243.069 155.485 243.368 155.133 243.752C154.791 244.136 154.525 244.589 154.333 245.112C154.141 245.635 154.045 246.211 154.045 246.84C154.066 247.469 154.157 248.051 154.317 248.584C154.487 249.117 154.738 249.576 155.069 249.96C155.399 250.344 155.805 250.643 156.285 250.856C156.775 251.069 157.351 251.176 158.013 251.176C158.951 251.176 159.73 250.941 160.349 250.472C160.967 250.003 161.367 249.304 161.549 248.376ZM168.703 245.384H170.111C170.057 244.893 169.929 244.472 169.727 244.12C169.524 243.757 169.263 243.459 168.943 243.224C168.633 242.989 168.271 242.819 167.855 242.712C167.449 242.595 167.012 242.536 166.543 242.536C165.892 242.536 165.321 242.653 164.831 242.888C164.34 243.112 163.929 243.427 163.599 243.832C163.279 244.227 163.039 244.696 162.879 245.24C162.719 245.773 162.639 246.349 162.639 246.968C162.639 247.587 162.719 248.157 162.879 248.68C163.049 249.192 163.295 249.635 163.615 250.008C163.945 250.381 164.351 250.669 164.831 250.872C165.321 251.075 165.881 251.176 166.511 251.176C167.567 251.176 168.399 250.899 169.007 250.344C169.625 249.789 170.009 249 170.159 247.976H168.767C168.681 248.616 168.447 249.112 168.063 249.464C167.689 249.816 167.167 249.992 166.495 249.992C166.068 249.992 165.7 249.907 165.391 249.736C165.081 249.565 164.831 249.341 164.639 249.064C164.447 248.776 164.303 248.451 164.207 248.088C164.121 247.725 164.079 247.352 164.079 246.968C164.079 246.552 164.121 246.152 164.207 245.768C164.292 245.373 164.431 245.027 164.623 244.728C164.825 244.429 165.092 244.189 165.423 244.008C165.753 243.827 166.164 243.736 166.655 243.736C167.231 243.736 167.689 243.88 168.031 244.168C168.372 244.456 168.596 244.861 168.703 245.384ZM172.672 246.872C172.672 246.371 172.736 245.928 172.864 245.544C173.003 245.149 173.19 244.819 173.424 244.552C173.659 244.285 173.931 244.083 174.24 243.944C174.56 243.805 174.896 243.736 175.248 243.736C175.6 243.736 175.931 243.805 176.24 243.944C176.56 244.083 176.838 244.285 177.072 244.552C177.307 244.819 177.488 245.149 177.616 245.544C177.755 245.928 177.824 246.371 177.824 246.872C177.824 247.373 177.755 247.821 177.616 248.216C177.488 248.6 177.307 248.925 177.072 249.192C176.838 249.448 176.56 249.645 176.24 249.784C175.931 249.923 175.6 249.992 175.248 249.992C174.896 249.992 174.56 249.923 174.24 249.784C173.931 249.645 173.659 249.448 173.424 249.192C173.19 248.925 173.003 248.6 172.864 248.216C172.736 247.821 172.672 247.373 172.672 246.872ZM171.232 246.872C171.232 247.48 171.318 248.045 171.488 248.568C171.659 249.091 171.915 249.549 172.256 249.944C172.598 250.328 173.019 250.632 173.52 250.856C174.022 251.069 174.598 251.176 175.248 251.176C175.91 251.176 176.486 251.069 176.976 250.856C177.478 250.632 177.899 250.328 178.24 249.944C178.582 249.549 178.838 249.091 179.008 248.568C179.179 248.045 179.264 247.48 179.264 246.872C179.264 246.264 179.179 245.699 179.008 245.176C178.838 244.643 178.582 244.184 178.24 243.8C177.899 243.405 177.478 243.096 176.976 242.872C176.486 242.648 175.91 242.536 175.248 242.536C174.598 242.536 174.022 242.648 173.52 242.872C173.019 243.096 172.598 243.405 172.256 243.8C171.915 244.184 171.659 244.643 171.488 245.176C171.318 245.699 171.232 246.264 171.232 246.872ZM180.868 242.728V251H182.228V246.328C182.228 245.955 182.276 245.613 182.372 245.304C182.478 244.984 182.633 244.707 182.836 244.472C183.038 244.237 183.289 244.056 183.588 243.928C183.897 243.8 184.26 243.736 184.676 243.736C185.198 243.736 185.609 243.885 185.908 244.184C186.206 244.483 186.356 244.888 186.356 245.4V251H187.716V245.56C187.716 245.112 187.668 244.707 187.572 244.344C187.486 243.971 187.332 243.651 187.108 243.384C186.884 243.117 186.59 242.909 186.228 242.76C185.865 242.611 185.412 242.536 184.868 242.536C183.641 242.536 182.745 243.037 182.18 244.04H182.148V242.728H180.868ZM190.75 246.936C190.75 246.531 190.793 246.136 190.878 245.752C190.964 245.368 191.102 245.027 191.294 244.728C191.486 244.429 191.742 244.189 192.062 244.008C192.382 243.827 192.772 243.736 193.23 243.736C193.7 243.736 194.1 243.827 194.43 244.008C194.761 244.179 195.028 244.408 195.23 244.696C195.444 244.984 195.598 245.32 195.694 245.704C195.79 246.077 195.838 246.467 195.838 246.872C195.838 247.256 195.79 247.635 195.694 248.008C195.609 248.381 195.465 248.717 195.262 249.016C195.06 249.304 194.798 249.539 194.478 249.72C194.158 249.901 193.769 249.992 193.31 249.992C192.873 249.992 192.489 249.907 192.158 249.736C191.838 249.565 191.572 249.336 191.358 249.048C191.156 248.76 191.001 248.435 190.894 248.072C190.798 247.699 190.75 247.32 190.75 246.936ZM197.15 251V239.576H195.79V243.832H195.758C195.609 243.587 195.422 243.384 195.198 243.224C194.985 243.053 194.756 242.92 194.51 242.824C194.265 242.717 194.02 242.643 193.774 242.6C193.529 242.557 193.3 242.536 193.086 242.536C192.457 242.536 191.902 242.653 191.422 242.888C190.953 243.112 190.558 243.421 190.238 243.816C189.929 244.2 189.694 244.653 189.534 245.176C189.385 245.699 189.31 246.253 189.31 246.84C189.31 247.427 189.39 247.981 189.55 248.504C189.71 249.027 189.945 249.485 190.254 249.88C190.574 250.275 190.969 250.589 191.438 250.824C191.918 251.059 192.478 251.176 193.118 251.176C193.694 251.176 194.222 251.075 194.702 250.872C195.182 250.669 195.534 250.339 195.758 249.88H195.79V251H197.15ZM206.571 250.968C206.336 251.107 206.011 251.176 205.595 251.176C205.243 251.176 204.96 251.08 204.747 250.888C204.544 250.685 204.443 250.36 204.443 249.912C204.069 250.36 203.632 250.685 203.131 250.888C202.64 251.08 202.107 251.176 201.531 251.176C201.157 251.176 200.8 251.133 200.459 251.048C200.128 250.963 199.84 250.829 199.595 250.648C199.349 250.467 199.152 250.232 199.003 249.944C198.864 249.645 198.795 249.288 198.795 248.872C198.795 248.403 198.875 248.019 199.035 247.72C199.195 247.421 199.403 247.181 199.659 247C199.925 246.808 200.224 246.664 200.555 246.568C200.896 246.472 201.243 246.392 201.595 246.328C201.968 246.253 202.32 246.2 202.651 246.168C202.992 246.125 203.291 246.072 203.547 246.008C203.803 245.933 204.005 245.832 204.155 245.704C204.304 245.565 204.379 245.368 204.379 245.112C204.379 244.813 204.32 244.573 204.203 244.392C204.096 244.211 203.952 244.072 203.771 243.976C203.6 243.88 203.403 243.816 203.179 243.784C202.965 243.752 202.752 243.736 202.539 243.736C201.963 243.736 201.483 243.848 201.099 244.072C200.715 244.285 200.507 244.696 200.475 245.304H199.115C199.136 244.792 199.243 244.36 199.435 244.008C199.627 243.656 199.883 243.373 200.203 243.16C200.523 242.936 200.885 242.776 201.291 242.68C201.707 242.584 202.149 242.536 202.619 242.536C202.992 242.536 203.36 242.563 203.723 242.616C204.096 242.669 204.432 242.781 204.731 242.952C205.029 243.112 205.269 243.341 205.451 243.64C205.632 243.939 205.723 244.328 205.723 244.808V249.064C205.723 249.384 205.739 249.619 205.771 249.768C205.813 249.917 205.941 249.992 206.155 249.992C206.272 249.992 206.411 249.965 206.571 249.912V250.968ZM204.363 246.728C204.192 246.856 203.968 246.952 203.691 247.016C203.413 247.069 203.12 247.117 202.811 247.16C202.512 247.192 202.208 247.235 201.899 247.288C201.589 247.331 201.312 247.405 201.067 247.512C200.821 247.619 200.619 247.773 200.459 247.976C200.309 248.168 200.235 248.435 200.235 248.776C200.235 249 200.277 249.192 200.363 249.352C200.459 249.501 200.576 249.624 200.715 249.72C200.864 249.816 201.035 249.885 201.227 249.928C201.419 249.971 201.621 249.992 201.835 249.992C202.283 249.992 202.667 249.933 202.987 249.816C203.307 249.688 203.568 249.533 203.771 249.352C203.973 249.16 204.123 248.957 204.219 248.744C204.315 248.52 204.363 248.312 204.363 248.12V246.728ZM207.789 242.728V251H209.149V247.32C209.149 246.787 209.202 246.317 209.309 245.912C209.415 245.496 209.586 245.144 209.821 244.856C210.055 244.568 210.365 244.349 210.749 244.2C211.133 244.051 211.597 243.976 212.141 243.976V242.536C211.405 242.515 210.797 242.664 210.317 242.984C209.837 243.304 209.431 243.8 209.101 244.472H209.069V242.728H207.789ZM216.413 252.104C216.253 252.509 216.093 252.851 215.933 253.128C215.783 253.405 215.613 253.629 215.421 253.8C215.239 253.981 215.031 254.109 214.797 254.184C214.573 254.269 214.311 254.312 214.013 254.312C213.853 254.312 213.693 254.301 213.533 254.28C213.373 254.259 213.218 254.221 213.069 254.168V252.92C213.186 252.973 213.319 253.016 213.469 253.048C213.629 253.091 213.762 253.112 213.869 253.112C214.146 253.112 214.375 253.043 214.557 252.904C214.749 252.776 214.893 252.589 214.989 252.344L215.549 250.952L212.269 242.728H213.805L216.221 249.496H216.253L218.573 242.728H220.013L216.413 252.104Z" fill="#262626"/>
<circle cx="38" cy="245.009" r="10.5" fill="#757575" stroke="#F1F1F1"/>
<path d="M70.64 337.384H72.048C71.9947 336.893 71.8667 336.472 71.664 336.12C71.4613 335.757 71.2 335.459 70.88 335.224C70.5707 334.989 70.208 334.819 69.792 334.712C69.3867 334.595 68.9493 334.536 68.48 334.536C67.8293 334.536 67.2587 334.653 66.768 334.888C66.2773 335.112 65.8667 335.427 65.536 335.832C65.216 336.227 64.976 336.696 64.816 337.24C64.656 337.773 64.576 338.349 64.576 338.968C64.576 339.587 64.656 340.157 64.816 340.68C64.9867 341.192 65.232 341.635 65.552 342.008C65.8827 342.381 66.288 342.669 66.768 342.872C67.2587 343.075 67.8187 343.176 68.448 343.176C69.504 343.176 70.336 342.899 70.944 342.344C71.5627 341.789 71.9467 341 72.096 339.976H70.704C70.6187 340.616 70.384 341.112 70 341.464C69.6267 341.816 69.104 341.992 68.432 341.992C68.0053 341.992 67.6373 341.907 67.328 341.736C67.0187 341.565 66.768 341.341 66.576 341.064C66.384 340.776 66.24 340.451 66.144 340.088C66.0587 339.725 66.016 339.352 66.016 338.968C66.016 338.552 66.0587 338.152 66.144 337.768C66.2293 337.373 66.368 337.027 66.56 336.728C66.7627 336.429 67.0293 336.189 67.36 336.008C67.6907 335.827 68.1013 335.736 68.592 335.736C69.168 335.736 69.6267 335.88 69.968 336.168C70.3093 336.456 70.5333 336.861 70.64 337.384ZM74.6098 338.872C74.6098 338.371 74.6738 337.928 74.8018 337.544C74.9404 337.149 75.1271 336.819 75.3618 336.552C75.5964 336.285 75.8684 336.083 76.1778 335.944C76.4978 335.805 76.8338 335.736 77.1858 335.736C77.5378 335.736 77.8684 335.805 78.1778 335.944C78.4978 336.083 78.7751 336.285 79.0098 336.552C79.2444 336.819 79.4258 337.149 79.5538 337.544C79.6924 337.928 79.7618 338.371 79.7618 338.872C79.7618 339.373 79.6924 339.821 79.5538 340.216C79.4258 340.6 79.2444 340.925 79.0098 341.192C78.7751 341.448 78.4978 341.645 78.1778 341.784C77.8684 341.923 77.5378 341.992 77.1858 341.992C76.8338 341.992 76.4978 341.923 76.1778 341.784C75.8684 341.645 75.5964 341.448 75.3618 341.192C75.1271 340.925 74.9404 340.6 74.8018 340.216C74.6738 339.821 74.6098 339.373 74.6098 338.872ZM73.1698 338.872C73.1698 339.48 73.2551 340.045 73.4258 340.568C73.5964 341.091 73.8524 341.549 74.1938 341.944C74.5351 342.328 74.9564 342.632 75.4578 342.856C75.9591 343.069 76.5351 343.176 77.1858 343.176C77.8471 343.176 78.4231 343.069 78.9138 342.856C79.4151 342.632 79.8364 342.328 80.1778 341.944C80.5191 341.549 80.7751 341.091 80.9458 340.568C81.1164 340.045 81.2018 339.48 81.2018 338.872C81.2018 338.264 81.1164 337.699 80.9458 337.176C80.7751 336.643 80.5191 336.184 80.1778 335.8C79.8364 335.405 79.4151 335.096 78.9138 334.872C78.4231 334.648 77.8471 334.536 77.1858 334.536C76.5351 334.536 75.9591 334.648 75.4578 334.872C74.9564 335.096 74.5351 335.405 74.1938 335.8C73.8524 336.184 73.5964 336.643 73.4258 337.176C73.2551 337.699 73.1698 338.264 73.1698 338.872ZM82.8853 331.576V343H84.2453V331.576H82.8853ZM87.3441 338.872C87.3441 338.371 87.4081 337.928 87.5361 337.544C87.6748 337.149 87.8615 336.819 88.0961 336.552C88.3308 336.285 88.6028 336.083 88.9121 335.944C89.2321 335.805 89.5681 335.736 89.9201 335.736C90.2721 335.736 90.6028 335.805 90.9121 335.944C91.2321 336.083 91.5095 336.285 91.7441 336.552C91.9788 336.819 92.1601 337.149 92.2881 337.544C92.4268 337.928 92.4961 338.371 92.4961 338.872C92.4961 339.373 92.4268 339.821 92.2881 340.216C92.1601 340.6 91.9788 340.925 91.7441 341.192C91.5095 341.448 91.2321 341.645 90.9121 341.784C90.6028 341.923 90.2721 341.992 89.9201 341.992C89.5681 341.992 89.2321 341.923 88.9121 341.784C88.6028 341.645 88.3308 341.448 88.0961 341.192C87.8615 340.925 87.6748 340.6 87.5361 340.216C87.4081 339.821 87.3441 339.373 87.3441 338.872ZM85.9041 338.872C85.9041 339.48 85.9895 340.045 86.1601 340.568C86.3308 341.091 86.5868 341.549 86.9281 341.944C87.2695 342.328 87.6908 342.632 88.1921 342.856C88.6935 343.069 89.2695 343.176 89.9201 343.176C90.5815 343.176 91.1575 343.069 91.6481 342.856C92.1495 342.632 92.5708 342.328 92.9121 341.944C93.2535 341.549 93.5095 341.091 93.6801 340.568C93.8508 340.045 93.9361 339.48 93.9361 338.872C93.9361 338.264 93.8508 337.699 93.6801 337.176C93.5095 336.643 93.2535 336.184 92.9121 335.8C92.5708 335.405 92.1495 335.096 91.6481 334.872C91.1575 334.648 90.5815 334.536 89.9201 334.536C89.2695 334.536 88.6935 334.648 88.1921 334.872C87.6908 335.096 87.2695 335.405 86.9281 335.8C86.5868 336.184 86.3308 336.643 86.1601 337.176C85.9895 337.699 85.9041 338.264 85.9041 338.872ZM95.4916 334.728V343H96.8516V339.32C96.8516 338.787 96.905 338.317 97.0116 337.912C97.1183 337.496 97.289 337.144 97.5236 336.856C97.7583 336.568 98.0676 336.349 98.4516 336.2C98.8356 336.051 99.2996 335.976 99.8436 335.976V334.536C99.1076 334.515 98.4996 334.664 98.0196 334.984C97.5396 335.304 97.1343 335.8 96.8036 336.472H96.7716V334.728H95.4916ZM101.7 340.392H100.34C100.361 340.904 100.468 341.341 100.66 341.704C100.852 342.056 101.108 342.344 101.428 342.568C101.748 342.781 102.116 342.936 102.532 343.032C102.948 343.128 103.385 343.176 103.844 343.176C104.26 343.176 104.676 343.133 105.092 343.048C105.518 342.973 105.897 342.835 106.228 342.632C106.569 342.429 106.841 342.163 107.044 341.832C107.257 341.501 107.364 341.085 107.364 340.584C107.364 340.189 107.284 339.859 107.124 339.592C106.974 339.325 106.772 339.107 106.516 338.936C106.27 338.755 105.982 338.611 105.652 338.504C105.332 338.397 105.001 338.307 104.66 338.232C104.34 338.157 104.02 338.088 103.7 338.024C103.38 337.949 103.092 337.864 102.836 337.768C102.58 337.661 102.366 337.533 102.196 337.384C102.036 337.224 101.956 337.027 101.956 336.792C101.956 336.579 102.009 336.408 102.116 336.28C102.222 336.141 102.361 336.035 102.532 335.96C102.702 335.875 102.889 335.816 103.092 335.784C103.305 335.752 103.513 335.736 103.716 335.736C103.94 335.736 104.158 335.763 104.372 335.816C104.596 335.859 104.798 335.933 104.98 336.04C105.161 336.147 105.31 336.291 105.428 336.472C105.545 336.643 105.614 336.861 105.636 337.128H106.996C106.964 336.627 106.857 336.211 106.676 335.88C106.494 335.539 106.249 335.272 105.94 335.08C105.641 334.877 105.294 334.739 104.9 334.664C104.505 334.579 104.073 334.536 103.604 334.536C103.241 334.536 102.873 334.584 102.5 334.68C102.137 334.765 101.806 334.904 101.508 335.096C101.22 335.277 100.98 335.517 100.788 335.816C100.606 336.115 100.516 336.472 100.516 336.888C100.516 337.421 100.649 337.837 100.916 338.136C101.182 338.435 101.513 338.669 101.908 338.84C102.313 339 102.75 339.128 103.22 339.224C103.689 339.309 104.121 339.411 104.516 339.528C104.921 339.635 105.257 339.779 105.524 339.96C105.79 340.141 105.924 340.408 105.924 340.76C105.924 341.016 105.86 341.229 105.732 341.4C105.604 341.56 105.438 341.683 105.236 341.768C105.044 341.853 104.83 341.912 104.596 341.944C104.361 341.976 104.137 341.992 103.924 341.992C103.646 341.992 103.374 341.965 103.108 341.912C102.852 341.859 102.617 341.773 102.404 341.656C102.201 341.528 102.036 341.363 101.908 341.16C101.78 340.947 101.71 340.691 101.7 340.392ZM112.292 331.304L107.572 343.256H108.724L113.46 331.304H112.292ZM121.044 343V334.728H119.684V339.4C119.684 339.773 119.631 340.12 119.524 340.44C119.428 340.749 119.279 341.021 119.076 341.256C118.873 341.491 118.617 341.672 118.308 341.8C118.009 341.928 117.652 341.992 117.236 341.992C116.713 341.992 116.303 341.843 116.004 341.544C115.705 341.245 115.556 340.84 115.556 340.328V334.728H114.196V340.168C114.196 340.616 114.239 341.027 114.324 341.4C114.42 341.763 114.58 342.077 114.804 342.344C115.028 342.611 115.321 342.819 115.684 342.968C116.047 343.107 116.5 343.176 117.044 343.176C117.652 343.176 118.18 343.059 118.628 342.824C119.076 342.579 119.444 342.2 119.732 341.688H119.764V343H121.044ZM124.527 333.24V331.576H123.167V333.24H124.527ZM123.167 334.728V343H124.527V334.728H123.167ZM130.057 331.304L125.337 343.256H126.489L131.225 331.304H130.057ZM132.794 340.392H131.434C131.455 340.904 131.562 341.341 131.754 341.704C131.946 342.056 132.202 342.344 132.522 342.568C132.842 342.781 133.21 342.936 133.626 343.032C134.042 343.128 134.479 343.176 134.938 343.176C135.354 343.176 135.77 343.133 136.186 343.048C136.612 342.973 136.991 342.835 137.322 342.632C137.663 342.429 137.935 342.163 138.138 341.832C138.351 341.501 138.458 341.085 138.458 340.584C138.458 340.189 138.378 339.859 138.218 339.592C138.068 339.325 137.866 339.107 137.61 338.936C137.364 338.755 137.076 338.611 136.746 338.504C136.426 338.397 136.095 338.307 135.754 338.232C135.434 338.157 135.114 338.088 134.794 338.024C134.474 337.949 134.186 337.864 133.93 337.768C133.674 337.661 133.46 337.533 133.289 337.384C133.129 337.224 133.049 337.027 133.049 336.792C133.049 336.579 133.103 336.408 133.21 336.28C133.316 336.141 133.455 336.035 133.626 335.96C133.796 335.875 133.983 335.816 134.186 335.784C134.399 335.752 134.607 335.736 134.81 335.736C135.034 335.736 135.252 335.763 135.466 335.816C135.69 335.859 135.892 335.933 136.074 336.04C136.255 336.147 136.404 336.291 136.522 336.472C136.639 336.643 136.708 336.861 136.73 337.128H138.09C138.058 336.627 137.951 336.211 137.77 335.88C137.588 335.539 137.343 335.272 137.034 335.08C136.735 334.877 136.388 334.739 135.994 334.664C135.599 334.579 135.167 334.536 134.698 334.536C134.335 334.536 133.967 334.584 133.594 334.68C133.231 334.765 132.9 334.904 132.602 335.096C132.314 335.277 132.074 335.517 131.882 335.816C131.7 336.115 131.61 336.472 131.61 336.888C131.61 337.421 131.743 337.837 132.01 338.136C132.276 338.435 132.607 338.669 133.002 338.84C133.407 339 133.844 339.128 134.314 339.224C134.783 339.309 135.215 339.411 135.61 339.528C136.015 339.635 136.351 339.779 136.618 339.96C136.884 340.141 137.018 340.408 137.018 340.76C137.018 341.016 136.954 341.229 136.826 341.4C136.698 341.56 136.532 341.683 136.33 341.768C136.138 341.853 135.924 341.912 135.69 341.944C135.455 341.976 135.231 341.992 135.018 341.992C134.74 341.992 134.468 341.965 134.202 341.912C133.946 341.859 133.711 341.773 133.498 341.656C133.295 341.528 133.13 341.363 133.002 341.16C132.874 340.947 132.804 340.691 132.794 340.392ZM145.706 338.072H140.954C140.975 337.752 141.044 337.453 141.162 337.176C141.279 336.888 141.439 336.637 141.642 336.424C141.844 336.211 142.084 336.045 142.362 335.928C142.65 335.8 142.97 335.736 143.322 335.736C143.663 335.736 143.972 335.8 144.25 335.928C144.538 336.045 144.783 336.211 144.986 336.424C145.199 336.627 145.364 336.872 145.482 337.16C145.61 337.448 145.684 337.752 145.706 338.072ZM147.017 340.376H145.674C145.556 340.92 145.311 341.325 144.938 341.592C144.575 341.859 144.106 341.992 143.53 341.992C143.082 341.992 142.692 341.917 142.362 341.768C142.031 341.619 141.759 341.421 141.546 341.176C141.332 340.92 141.178 340.632 141.082 340.312C140.986 339.981 140.943 339.635 140.954 339.272H147.146C147.167 338.771 147.119 338.243 147.002 337.688C146.895 337.133 146.692 336.621 146.394 336.152C146.106 335.683 145.716 335.299 145.226 335C144.746 334.691 144.138 334.536 143.402 334.536C142.836 334.536 142.314 334.643 141.834 334.856C141.364 335.069 140.954 335.368 140.602 335.752C140.26 336.136 139.994 336.589 139.802 337.112C139.61 337.635 139.514 338.211 139.514 338.84C139.535 339.469 139.626 340.051 139.786 340.584C139.956 341.117 140.207 341.576 140.538 341.96C140.868 342.344 141.274 342.643 141.754 342.856C142.244 343.069 142.82 343.176 143.482 343.176C144.42 343.176 145.199 342.941 145.818 342.472C146.436 342.003 146.836 341.304 147.017 340.376ZM154.171 337.384H155.579C155.526 336.893 155.398 336.472 155.195 336.12C154.993 335.757 154.731 335.459 154.411 335.224C154.102 334.989 153.739 334.819 153.323 334.712C152.918 334.595 152.481 334.536 152.011 334.536C151.361 334.536 150.79 334.653 150.299 334.888C149.809 335.112 149.398 335.427 149.067 335.832C148.747 336.227 148.507 336.696 148.347 337.24C148.187 337.773 148.107 338.349 148.107 338.968C148.107 339.587 148.187 340.157 148.347 340.68C148.518 341.192 148.763 341.635 149.083 342.008C149.414 342.381 149.819 342.669 150.299 342.872C150.79 343.075 151.35 343.176 151.979 343.176C153.035 343.176 153.867 342.899 154.475 342.344C155.094 341.789 155.478 341 155.627 339.976H154.235C154.15 340.616 153.915 341.112 153.531 341.464C153.158 341.816 152.635 341.992 151.963 341.992C151.537 341.992 151.169 341.907 150.859 341.736C150.55 341.565 150.299 341.341 150.107 341.064C149.915 340.776 149.771 340.451 149.675 340.088C149.59 339.725 149.547 339.352 149.547 338.968C149.547 338.552 149.59 338.152 149.675 337.768C149.761 337.373 149.899 337.027 150.091 336.728C150.294 336.429 150.561 336.189 150.891 336.008C151.222 335.827 151.633 335.736 152.123 335.736C152.699 335.736 153.158 335.88 153.499 336.168C153.841 336.456 154.065 336.861 154.171 337.384ZM158.141 338.872C158.141 338.371 158.205 337.928 158.333 337.544C158.472 337.149 158.658 336.819 158.893 336.552C159.128 336.285 159.4 336.083 159.709 335.944C160.029 335.805 160.365 335.736 160.717 335.736C161.069 335.736 161.4 335.805 161.709 335.944C162.029 336.083 162.306 336.285 162.541 336.552C162.776 336.819 162.957 337.149 163.085 337.544C163.224 337.928 163.293 338.371 163.293 338.872C163.293 339.373 163.224 339.821 163.085 340.216C162.957 340.6 162.776 340.925 162.541 341.192C162.306 341.448 162.029 341.645 161.709 341.784C161.4 341.923 161.069 341.992 160.717 341.992C160.365 341.992 160.029 341.923 159.709 341.784C159.4 341.645 159.128 341.448 158.893 341.192C158.658 340.925 158.472 340.6 158.333 340.216C158.205 339.821 158.141 339.373 158.141 338.872ZM156.701 338.872C156.701 339.48 156.786 340.045 156.957 340.568C157.128 341.091 157.384 341.549 157.725 341.944C158.066 342.328 158.488 342.632 158.989 342.856C159.49 343.069 160.066 343.176 160.717 343.176C161.378 343.176 161.954 343.069 162.445 342.856C162.946 342.632 163.368 342.328 163.709 341.944C164.05 341.549 164.306 341.091 164.477 340.568C164.648 340.045 164.733 339.48 164.733 338.872C164.733 338.264 164.648 337.699 164.477 337.176C164.306 336.643 164.05 336.184 163.709 335.8C163.368 335.405 162.946 335.096 162.445 334.872C161.954 334.648 161.378 334.536 160.717 334.536C160.066 334.536 159.49 334.648 158.989 334.872C158.488 335.096 158.066 335.405 157.725 335.8C157.384 336.184 157.128 336.643 156.957 337.176C156.786 337.699 156.701 338.264 156.701 338.872ZM166.337 334.728V343H167.697V338.328C167.697 337.955 167.745 337.613 167.841 337.304C167.947 336.984 168.102 336.707 168.305 336.472C168.507 336.237 168.758 336.056 169.057 335.928C169.366 335.8 169.729 335.736 170.145 335.736C170.667 335.736 171.078 335.885 171.377 336.184C171.675 336.483 171.825 336.888 171.825 337.4V343H173.185V337.56C173.185 337.112 173.137 336.707 173.041 336.344C172.955 335.971 172.801 335.651 172.577 335.384C172.353 335.117 172.059 334.909 171.697 334.76C171.334 334.611 170.881 334.536 170.337 334.536C169.11 334.536 168.214 335.037 167.649 336.04H167.617V334.728H166.337ZM176.219 338.936C176.219 338.531 176.262 338.136 176.347 337.752C176.432 337.368 176.571 337.027 176.763 336.728C176.955 336.429 177.211 336.189 177.531 336.008C177.851 335.827 178.24 335.736 178.699 335.736C179.168 335.736 179.568 335.827 179.899 336.008C180.23 336.179 180.496 336.408 180.699 336.696C180.912 336.984 181.067 337.32 181.163 337.704C181.259 338.077 181.307 338.467 181.307 338.872C181.307 339.256 181.259 339.635 181.163 340.008C181.078 340.381 180.934 340.717 180.731 341.016C180.528 341.304 180.267 341.539 179.947 341.72C179.627 341.901 179.238 341.992 178.779 341.992C178.342 341.992 177.958 341.907 177.627 341.736C177.307 341.565 177.04 341.336 176.827 341.048C176.624 340.76 176.47 340.435 176.363 340.072C176.267 339.699 176.219 339.32 176.219 338.936ZM182.619 343V331.576H181.259V335.832H181.227C181.078 335.587 180.891 335.384 180.667 335.224C180.454 335.053 180.224 334.92 179.979 334.824C179.734 334.717 179.488 334.643 179.243 334.6C178.998 334.557 178.768 334.536 178.555 334.536C177.926 334.536 177.371 334.653 176.891 334.888C176.422 335.112 176.027 335.421 175.707 335.816C175.398 336.2 175.163 336.653 175.003 337.176C174.854 337.699 174.779 338.253 174.779 338.84C174.779 339.427 174.859 339.981 175.019 340.504C175.179 341.027 175.414 341.485 175.723 341.88C176.043 342.275 176.438 342.589 176.907 342.824C177.387 343.059 177.947 343.176 178.587 343.176C179.163 343.176 179.691 343.075 180.171 342.872C180.651 342.669 181.003 342.339 181.227 341.88H181.259V343H182.619ZM192.04 342.968C191.805 343.107 191.48 343.176 191.064 343.176C190.712 343.176 190.429 343.08 190.216 342.888C190.013 342.685 189.912 342.36 189.912 341.912C189.538 342.36 189.101 342.685 188.6 342.888C188.109 343.08 187.576 343.176 187 343.176C186.626 343.176 186.269 343.133 185.928 343.048C185.597 342.963 185.309 342.829 185.064 342.648C184.818 342.467 184.621 342.232 184.472 341.944C184.333 341.645 184.264 341.288 184.264 340.872C184.264 340.403 184.344 340.019 184.504 339.72C184.664 339.421 184.872 339.181 185.128 339C185.394 338.808 185.693 338.664 186.024 338.568C186.365 338.472 186.712 338.392 187.064 338.328C187.437 338.253 187.789 338.2 188.12 338.168C188.461 338.125 188.76 338.072 189.016 338.008C189.272 337.933 189.474 337.832 189.624 337.704C189.773 337.565 189.848 337.368 189.848 337.112C189.848 336.813 189.789 336.573 189.672 336.392C189.565 336.211 189.421 336.072 189.24 335.976C189.069 335.88 188.872 335.816 188.648 335.784C188.434 335.752 188.221 335.736 188.008 335.736C187.432 335.736 186.952 335.848 186.568 336.072C186.184 336.285 185.976 336.696 185.944 337.304H184.584C184.605 336.792 184.712 336.36 184.904 336.008C185.096 335.656 185.352 335.373 185.672 335.16C185.992 334.936 186.354 334.776 186.76 334.68C187.176 334.584 187.618 334.536 188.088 334.536C188.461 334.536 188.829 334.563 189.192 334.616C189.565 334.669 189.901 334.781 190.2 334.952C190.498 335.112 190.738 335.341 190.92 335.64C191.101 335.939 191.192 336.328 191.192 336.808V341.064C191.192 341.384 191.208 341.619 191.24 341.768C191.282 341.917 191.41 341.992 191.624 341.992C191.741 341.992 191.88 341.965 192.04 341.912V342.968ZM189.832 338.728C189.661 338.856 189.437 338.952 189.16 339.016C188.882 339.069 188.589 339.117 188.28 339.16C187.981 339.192 187.677 339.235 187.368 339.288C187.058 339.331 186.781 339.405 186.536 339.512C186.29 339.619 186.088 339.773 185.928 339.976C185.778 340.168 185.704 340.435 185.704 340.776C185.704 341 185.746 341.192 185.832 341.352C185.928 341.501 186.045 341.624 186.184 341.72C186.333 341.816 186.504 341.885 186.696 341.928C186.888 341.971 187.09 341.992 187.304 341.992C187.752 341.992 188.136 341.933 188.456 341.816C188.776 341.688 189.037 341.533 189.24 341.352C189.442 341.16 189.592 340.957 189.688 340.744C189.784 340.52 189.832 340.312 189.832 340.12V338.728ZM193.257 334.728V343H194.617V339.32C194.617 338.787 194.671 338.317 194.777 337.912C194.884 337.496 195.055 337.144 195.289 336.856C195.524 336.568 195.833 336.349 196.217 336.2C196.601 336.051 197.065 335.976 197.609 335.976V334.536C196.873 334.515 196.265 334.664 195.785 334.984C195.305 335.304 194.9 335.8 194.569 336.472H194.537V334.728H193.257ZM201.881 344.104C201.721 344.509 201.561 344.851 201.401 345.128C201.252 345.405 201.081 345.629 200.889 345.8C200.708 345.981 200.5 346.109 200.265 346.184C200.041 346.269 199.78 346.312 199.481 346.312C199.321 346.312 199.161 346.301 199.001 346.28C198.841 346.259 198.687 346.221 198.537 346.168V344.92C198.655 344.973 198.788 345.016 198.937 345.048C199.097 345.091 199.231 345.112 199.337 345.112C199.615 345.112 199.844 345.043 200.025 344.904C200.217 344.776 200.361 344.589 200.457 344.344L201.017 342.952L197.737 334.728H199.273L201.689 341.496H201.721L204.041 334.728H205.481L201.881 344.104Z" fill="#262626"/>
<circle cx="38" cy="337.027" r="10.5" fill="#757575" stroke="#F1F1F1"/>
<rect y="36" width="368" height="128" fill="white"/>
<rect x="28.5" y="79.5" width="268" height="41" fill="white"/>
<path d="M39.768 100.048V95.856H42.744C43.608 95.856 44.2373 96.0373 44.632 96.4C45.0373 96.752 45.24 97.2693 45.24 97.952C45.24 98.6347 45.0373 99.1573 44.632 99.52C44.2373 99.8827 43.608 100.059 42.744 100.048H39.768ZM38.248 94.576V106H39.768V101.328H43.256C44.408 101.339 45.2773 101.045 45.864 100.448C46.4613 99.8507 46.76 99.0187 46.76 97.952C46.76 96.8853 46.4613 96.0587 45.864 95.472C45.2773 94.8747 44.408 94.576 43.256 94.576H38.248ZM48.479 94.576V106H49.839V94.576H48.479ZM59.2739 105.968C59.0392 106.107 58.7139 106.176 58.2979 106.176C57.9459 106.176 57.6632 106.08 57.4499 105.888C57.2472 105.685 57.1459 105.36 57.1459 104.912C56.7725 105.36 56.3352 105.685 55.8339 105.888C55.3432 106.08 54.8099 106.176 54.2339 106.176C53.8605 106.176 53.5032 106.133 53.1619 106.048C52.8312 105.963 52.5432 105.829 52.2979 105.648C52.0525 105.467 51.8552 105.232 51.7059 104.944C51.5672 104.645 51.4979 104.288 51.4979 103.872C51.4979 103.403 51.5779 103.019 51.7379 102.72C51.8979 102.421 52.1059 102.181 52.3619 102C52.6285 101.808 52.9272 101.664 53.2579 101.568C53.5992 101.472 53.9459 101.392 54.2979 101.328C54.6712 101.253 55.0232 101.2 55.3539 101.168C55.6952 101.125 55.9939 101.072 56.2499 101.008C56.5059 100.933 56.7085 100.832 56.8579 100.704C57.0072 100.565 57.0819 100.368 57.0819 100.112C57.0819 99.8133 57.0232 99.5733 56.9059 99.392C56.7992 99.2107 56.6552 99.072 56.4739 98.976C56.3032 98.88 56.1059 98.816 55.8819 98.784C55.6685 98.752 55.4552 98.736 55.2419 98.736C54.6659 98.736 54.1859 98.848 53.8019 99.072C53.4179 99.2853 53.2099 99.696 53.1779 100.304H51.8179C51.8392 99.792 51.9459 99.36 52.1379 99.008C52.3299 98.656 52.5859 98.3733 52.9059 98.16C53.2259 97.936 53.5885 97.776 53.9939 97.68C54.4099 97.584 54.8525 97.536 55.3219 97.536C55.6952 97.536 56.0632 97.5627 56.4259 97.616C56.7992 97.6693 57.1352 97.7813 57.4339 97.952C57.7325 98.112 57.9725 98.3413 58.1539 98.64C58.3352 98.9387 58.4259 99.328 58.4259 99.808V104.064C58.4259 104.384 58.4419 104.619 58.4739 104.768C58.5165 104.917 58.6445 104.992 58.8579 104.992C58.9752 104.992 59.1139 104.965 59.2739 104.912V105.968ZM57.0659 101.728C56.8952 101.856 56.6712 101.952 56.3939 102.016C56.1165 102.069 55.8232 102.117 55.5139 102.16C55.2152 102.192 54.9112 102.235 54.6019 102.288C54.2925 102.331 54.0152 102.405 53.7699 102.512C53.5245 102.619 53.3219 102.773 53.1619 102.976C53.0125 103.168 52.9379 103.435 52.9379 103.776C52.9379 104 52.9805 104.192 53.0659 104.352C53.1619 104.501 53.2792 104.624 53.4179 104.72C53.5672 104.816 53.7379 104.885 53.9299 104.928C54.1219 104.971 54.3245 104.992 54.5379 104.992C54.9859 104.992 55.3699 104.933 55.6899 104.816C56.0099 104.688 56.2712 104.533 56.4739 104.352C56.6765 104.16 56.8259 103.957 56.9219 103.744C57.0179 103.52 57.0659 103.312 57.0659 103.12V101.728ZM66.1556 100.384H67.5636C67.5103 99.8933 67.3823 99.472 67.1796 99.12C66.977 98.7573 66.7156 98.4587 66.3956 98.224C66.0863 97.9893 65.7236 97.8187 65.3076 97.712C64.9023 97.5947 64.465 97.536 63.9956 97.536C63.345 97.536 62.7743 97.6533 62.2836 97.888C61.793 98.112 61.3823 98.4267 61.0516 98.832C60.7316 99.2267 60.4916 99.696 60.3316 100.24C60.1716 100.773 60.0916 101.349 60.0916 101.968C60.0916 102.587 60.1716 103.157 60.3316 103.68C60.5023 104.192 60.7476 104.635 61.0676 105.008C61.3983 105.381 61.8036 105.669 62.2836 105.872C62.7743 106.075 63.3343 106.176 63.9636 106.176C65.0196 106.176 65.8516 105.899 66.4596 105.344C67.0783 104.789 67.4623 104 67.6116 102.976H66.2196C66.1343 103.616 65.8996 104.112 65.5156 104.464C65.1423 104.816 64.6196 104.992 63.9476 104.992C63.521 104.992 63.153 104.907 62.8436 104.736C62.5343 104.565 62.2836 104.341 62.0916 104.064C61.8996 103.776 61.7556 103.451 61.6596 103.088C61.5743 102.725 61.5316 102.352 61.5316 101.968C61.5316 101.552 61.5743 101.152 61.6596 100.768C61.745 100.373 61.8836 100.027 62.0756 99.728C62.2783 99.4293 62.545 99.1893 62.8756 99.008C63.2063 98.8267 63.617 98.736 64.1076 98.736C64.6836 98.736 65.1423 98.88 65.4836 99.168C65.825 99.456 66.049 99.8613 66.1556 100.384ZM74.8774 101.072H70.1254C70.1467 100.752 70.216 100.453 70.3334 100.176C70.4507 99.888 70.6107 99.6373 70.8134 99.424C71.016 99.2107 71.256 99.0453 71.5334 98.928C71.8214 98.8 72.1414 98.736 72.4934 98.736C72.8347 98.736 73.144 98.8 73.4214 98.928C73.7094 99.0453 73.9547 99.2107 74.1574 99.424C74.3707 99.6267 74.536 99.872 74.6534 100.16C74.7814 100.448 74.856 100.752 74.8774 101.072ZM76.1894 103.376H74.8454C74.728 103.92 74.4827 104.325 74.1094 104.592C73.7467 104.859 73.2774 104.992 72.7014 104.992C72.2534 104.992 71.864 104.917 71.5334 104.768C71.2027 104.619 70.9307 104.421 70.7174 104.176C70.504 103.92 70.3494 103.632 70.2534 103.312C70.1574 102.981 70.1147 102.635 70.1254 102.272H76.3174C76.3387 101.771 76.2907 101.243 76.1734 100.688C76.0667 100.133 75.864 99.6213 75.5654 99.152C75.2774 98.6827 74.888 98.2987 74.3974 98C73.9174 97.6907 73.3094 97.536 72.5734 97.536C72.008 97.536 71.4854 97.6427 71.0054 97.856C70.536 98.0693 70.1254 98.368 69.7734 98.752C69.432 99.136 69.1654 99.5893 68.9734 100.112C68.7814 100.635 68.6854 101.211 68.6854 101.84C68.7067 102.469 68.7974 103.051 68.9574 103.584C69.128 104.117 69.3787 104.576 69.7094 104.96C70.04 105.344 70.4454 105.643 70.9254 105.856C71.416 106.069 71.992 106.176 72.6534 106.176C73.592 106.176 74.3707 105.941 74.9894 105.472C75.608 105.003 76.008 104.304 76.1894 103.376ZM77.7271 94.576V106H79.0871V101.328C79.0871 100.955 79.1351 100.613 79.2311 100.304C79.3378 99.984 79.4925 99.7067 79.6951 99.472C79.8978 99.2373 80.1485 99.056 80.4471 98.928C80.7565 98.8 81.1191 98.736 81.5351 98.736C82.0578 98.736 82.4685 98.8853 82.7671 99.184C83.0658 99.4827 83.2151 99.888 83.2151 100.4V106H84.5751V100.56C84.5751 100.112 84.5271 99.7067 84.4311 99.344C84.3458 98.9707 84.1911 98.6507 83.9671 98.384C83.7431 98.1173 83.4498 97.9093 83.0871 97.76C82.7245 97.6107 82.2711 97.536 81.7271 97.536C81.4818 97.536 81.2258 97.5627 80.9591 97.616C80.7031 97.6693 80.4525 97.7547 80.2071 97.872C79.9725 97.9787 79.7591 98.1227 79.5671 98.304C79.3751 98.4747 79.2258 98.688 79.1191 98.944H79.0871V94.576H77.7271ZM87.6098 101.872C87.6098 101.371 87.6738 100.928 87.8018 100.544C87.9404 100.149 88.1271 99.8187 88.3618 99.552C88.5964 99.2853 88.8684 99.0827 89.1778 98.944C89.4978 98.8053 89.8338 98.736 90.1858 98.736C90.5378 98.736 90.8684 98.8053 91.1778 98.944C91.4978 99.0827 91.7751 99.2853 92.0098 99.552C92.2444 99.8187 92.4258 100.149 92.5538 100.544C92.6924 100.928 92.7618 101.371 92.7618 101.872C92.7618 102.373 92.6924 102.821 92.5538 103.216C92.4258 103.6 92.2444 103.925 92.0098 104.192C91.7751 104.448 91.4978 104.645 91.1778 104.784C90.8684 104.923 90.5378 104.992 90.1858 104.992C89.8338 104.992 89.4978 104.923 89.1778 104.784C88.8684 104.645 88.5964 104.448 88.3618 104.192C88.1271 103.925 87.9404 103.6 87.8018 103.216C87.6738 102.821 87.6098 102.373 87.6098 101.872ZM86.1698 101.872C86.1698 102.48 86.2551 103.045 86.4258 103.568C86.5964 104.091 86.8524 104.549 87.1938 104.944C87.5351 105.328 87.9564 105.632 88.4578 105.856C88.9591 106.069 89.5351 106.176 90.1858 106.176C90.8471 106.176 91.4231 106.069 91.9138 105.856C92.4151 105.632 92.8364 105.328 93.1778 104.944C93.5191 104.549 93.7751 104.091 93.9458 103.568C94.1164 103.045 94.2018 102.48 94.2018 101.872C94.2018 101.264 94.1164 100.699 93.9458 100.176C93.7751 99.6427 93.5191 99.184 93.1778 98.8C92.8364 98.4053 92.4151 98.096 91.9138 97.872C91.4231 97.648 90.8471 97.536 90.1858 97.536C89.5351 97.536 88.9591 97.648 88.4578 97.872C87.9564 98.096 87.5351 98.4053 87.1938 98.8C86.8524 99.184 86.5964 99.6427 86.4258 100.176C86.2551 100.699 86.1698 101.264 86.1698 101.872ZM95.8853 94.576V106H97.2453V94.576H95.8853ZM100.344 101.936C100.344 101.531 100.387 101.136 100.472 100.752C100.557 100.368 100.696 100.027 100.888 99.728C101.08 99.4293 101.336 99.1893 101.656 99.008C101.976 98.8267 102.365 98.736 102.824 98.736C103.293 98.736 103.693 98.8267 104.024 99.008C104.355 99.1787 104.621 99.408 104.824 99.696C105.037 99.984 105.192 100.32 105.288 100.704C105.384 101.077 105.432 101.467 105.432 101.872C105.432 102.256 105.384 102.635 105.288 103.008C105.203 103.381 105.059 103.717 104.856 104.016C104.653 104.304 104.392 104.539 104.072 104.72C103.752 104.901 103.363 104.992 102.904 104.992C102.467 104.992 102.083 104.907 101.752 104.736C101.432 104.565 101.165 104.336 100.952 104.048C100.749 103.76 100.595 103.435 100.488 103.072C100.392 102.699 100.344 102.32 100.344 101.936ZM106.744 106V94.576H105.384V98.832H105.352C105.203 98.5867 105.016 98.384 104.792 98.224C104.579 98.0533 104.349 97.92 104.104 97.824C103.859 97.7173 103.613 97.6427 103.368 97.6C103.123 97.5573 102.893 97.536 102.68 97.536C102.051 97.536 101.496 97.6533 101.016 97.888C100.547 98.112 100.152 98.4213 99.8321 98.816C99.5228 99.2 99.2881 99.6533 99.1281 100.176C98.9788 100.699 98.9041 101.253 98.9041 101.84C98.9041 102.427 98.9841 102.981 99.1441 103.504C99.3041 104.027 99.5388 104.485 99.8481 104.88C100.168 105.275 100.563 105.589 101.032 105.824C101.512 106.059 102.072 106.176 102.712 106.176C103.288 106.176 103.816 106.075 104.296 105.872C104.776 105.669 105.128 105.339 105.352 104.88H105.384V106H106.744ZM114.581 101.072H109.829C109.85 100.752 109.919 100.453 110.037 100.176C110.154 99.888 110.314 99.6373 110.517 99.424C110.719 99.2107 110.959 99.0453 111.237 98.928C111.525 98.8 111.845 98.736 112.197 98.736C112.538 98.736 112.847 98.8 113.125 98.928C113.413 99.0453 113.658 99.2107 113.861 99.424C114.074 99.6267 114.239 99.872 114.357 100.16C114.485 100.448 114.559 100.752 114.581 101.072ZM115.892 103.376H114.549C114.431 103.92 114.186 104.325 113.813 104.592C113.45 104.859 112.981 104.992 112.405 104.992C111.957 104.992 111.567 104.917 111.237 104.768C110.906 104.619 110.634 104.421 110.421 104.176C110.207 103.92 110.053 103.632 109.957 103.312C109.861 102.981 109.818 102.635 109.829 102.272H116.021C116.042 101.771 115.994 101.243 115.877 100.688C115.77 100.133 115.567 99.6213 115.269 99.152C114.981 98.6827 114.591 98.2987 114.101 98C113.621 97.6907 113.013 97.536 112.277 97.536C111.711 97.536 111.189 97.6427 110.709 97.856C110.239 98.0693 109.829 98.368 109.477 98.752C109.135 99.136 108.869 99.5893 108.677 100.112C108.485 100.635 108.389 101.211 108.389 101.84C108.41 102.469 108.501 103.051 108.661 103.584C108.831 104.117 109.082 104.576 109.413 104.96C109.743 105.344 110.149 105.643 110.629 105.856C111.119 106.069 111.695 106.176 112.357 106.176C113.295 106.176 114.074 105.941 114.693 105.472C115.311 105.003 115.711 104.304 115.892 103.376ZM117.382 97.728V106H118.742V102.32C118.742 101.787 118.796 101.317 118.902 100.912C119.009 100.496 119.18 100.144 119.414 99.856C119.649 99.568 119.958 99.3493 120.342 99.2C120.726 99.0507 121.19 98.976 121.734 98.976V97.536C120.998 97.5147 120.39 97.664 119.91 97.984C119.43 98.304 119.025 98.8 118.694 99.472H118.662V97.728H117.382ZM130.028 95.856V106H131.548V95.856H135.356V94.576H126.22V95.856H130.028ZM140.362 101.072H135.61C135.631 100.752 135.7 100.453 135.818 100.176C135.935 99.888 136.095 99.6373 136.298 99.424C136.5 99.2107 136.74 99.0453 137.018 98.928C137.306 98.8 137.626 98.736 137.978 98.736C138.319 98.736 138.628 98.8 138.906 98.928C139.194 99.0453 139.439 99.2107 139.642 99.424C139.855 99.6267 140.02 99.872 140.138 100.16C140.266 100.448 140.34 100.752 140.362 101.072ZM141.674 103.376H140.33C140.212 103.92 139.967 104.325 139.594 104.592C139.231 104.859 138.762 104.992 138.186 104.992C137.738 104.992 137.348 104.917 137.018 104.768C136.687 104.619 136.415 104.421 136.202 104.176C135.988 103.92 135.834 103.632 135.738 103.312C135.642 102.981 135.599 102.635 135.61 102.272H141.802C141.823 101.771 141.775 101.243 141.658 100.688C141.551 100.133 141.348 99.6213 141.05 99.152C140.762 98.6827 140.372 98.2987 139.882 98C139.402 97.6907 138.794 97.536 138.058 97.536C137.492 97.536 136.97 97.6427 136.49 97.856C136.02 98.0693 135.61 98.368 135.258 98.752C134.916 99.136 134.65 99.5893 134.458 100.112C134.266 100.635 134.17 101.211 134.17 101.84C134.191 102.469 134.282 103.051 134.442 103.584C134.612 104.117 134.863 104.576 135.194 104.96C135.524 105.344 135.93 105.643 136.41 105.856C136.9 106.069 137.476 106.176 138.138 106.176C139.076 106.176 139.855 105.941 140.474 105.472C141.092 105.003 141.492 104.304 141.674 103.376ZM145.436 101.648L142.332 106H143.98L146.284 102.576L148.588 106H150.332L147.132 101.536L149.98 97.728H148.348L146.284 100.624L144.299 97.728H142.556L145.436 101.648ZM153.381 97.728V95.248H152.021V97.728H150.613V98.928H152.021V104.192C152.021 104.576 152.058 104.885 152.133 105.12C152.207 105.355 152.319 105.536 152.469 105.664C152.629 105.792 152.831 105.883 153.077 105.936C153.333 105.979 153.637 106 153.989 106H155.029V104.8H154.405C154.191 104.8 154.015 104.795 153.877 104.784C153.749 104.763 153.647 104.725 153.573 104.672C153.498 104.619 153.445 104.544 153.413 104.448C153.391 104.352 153.381 104.224 153.381 104.064V98.928H155.029V97.728H153.381Z" fill="#757575"/>
<rect x="28.5" y="79.5" width="268" height="41" stroke="#757575"/>
<rect y="164" width="368" height="1" stroke="#DEDEDE"/>
</g>
<defs>
<clipPath id="clip0">
<rect width="368" height="405" fill="white"/>
</clipPath>
</defs>
</svg>
