<?xml version="1.0" encoding="UTF-8"?>
<svg width="100%" height="auto" viewBox="0 0 925 206" version="1.1" xmlns="http://www.w3.org/2000/svg" xmlns:xlink="http://www.w3.org/1999/xlink">
    <title>component-hierarchy</title>
    <g id="component-hierarchy" stroke="none" stroke-width="1" fill="none" fill-rule="evenodd">
        <polygon id="Path" fill-opacity="0" fill="#000000" points="788 1 924 1 924 169 788 169"></polygon>
        <polygon id="Path" stroke="#8A8D8F" stroke-width="2" stroke-linejoin="round" points="788 1 924 1 924 169 788 169"></polygon>
        <polygon id="Path" fill="#E1E9EE" points="798 66 913 66 913 158 798 158"></polygon>
        <line x1="841" y1="146.5" x2="871" y2="146.5" id="Path" fill-opacity="0" fill="#000000"></line>
        <line x1="841" y1="146.5" x2="871" y2="146.5" id="Path" stroke="#D44527" stroke-width="8" stroke-linejoin="round"></line>
        <polygon id="Path" fill="#D44527" points="0 22 136 22 136 153 4.44397936e-15 153"></polygon>
        <path d="M55.307854,57 C56.0781039,57 56.7322888,57.2144993 57.2704086,57.6434978 C57.8085284,58.0724963 58.1250694,58.6584454 58.2200317,59.4013453 L56.7797699,59.4013453 C56.7164617,59.0455904 56.5423641,58.7630792 56.2574772,58.5538117 C55.9725902,58.3340807 55.6560492,58.2242152 55.307854,58.2242152 C54.7275288,58.2242152 54.2738199,58.4334828 53.9467275,58.8520179 C53.6301864,59.2705531 53.4719159,59.8303438 53.4719159,60.5313901 C53.4719159,61.190583 53.6301864,61.7294469 53.9467275,62.1479821 C54.2738199,62.5560538 54.7275288,62.7600897 55.307854,62.7600897 C55.7404601,62.7600897 56.0886553,62.6292975 56.3524395,62.367713 C56.6162237,62.1061286 56.7797699,61.7399103 56.8430781,61.2690583 L58.2833399,61.2690583 C58.198929,62.1165919 57.8876636,62.7862481 57.3495438,63.2780269 C56.811424,63.7593423 56.1308608,64 55.307854,64 C54.6642205,64 54.089171,63.8535127 53.5827053,63.5605381 C53.0762396,63.2675635 52.685839,62.8542601 52.4115034,62.3206278 C52.1371678,61.7765321 52,61.1801196 52,60.5313901 C52,59.4955157 52.300714,58.6479821 52.902142,57.9887892 C53.5141214,57.3295964 54.3160254,57 55.307854,57 Z M62.3113713,57 C63.3137513,57 64.1156527,57.3348281 64.7170756,58.0044843 C65.329055,58.6636771 65.6350446,59.5059791 65.6350446,60.5313901 C65.6350446,61.5254111 65.329055,62.3520179 64.7170756,63.0112108 C64.1156527,63.6704036 63.3137513,64 62.3113713,64 C61.6677378,64 61.0926882,63.8535127 60.5862225,63.5605381 C60.0797568,63.2675635 59.6893562,62.8542601 59.4150206,62.3206278 C59.140685,61.7765321 59.0035172,61.1801196 59.0035172,60.5313901 C59.0035172,59.4955157 59.3042312,58.6479821 59.9056592,57.9887892 C60.5176386,57.3295964 61.3195426,57 62.3113713,57 Z M60.4754331,60.5313901 C60.4754331,61.190583 60.6337037,61.7294469 60.9502447,62.1479821 C61.2773372,62.5560538 61.731046,62.7600897 62.3113713,62.7600897 C62.8916965,62.7600897 63.3401297,62.5560538 63.6566707,62.1479821 C63.9837632,61.7399103 64.1473094,61.2010463 64.1473094,60.5313901 C64.1473094,59.8198804 63.9837632,59.2600897 63.6566707,58.8520179 C63.3401297,58.4334828 62.8916965,58.2242152 62.3113713,58.2242152 C61.731046,58.2242152 61.2773372,58.4334828 60.9502447,58.8520179 C60.6337037,59.2705531 60.4754331,59.8303438 60.4754331,60.5313901 Z M68.1256879,57.1569507 L68.1256879,62.603139 L71.4177149,62.603139 L71.4177149,63.8430493 L66.637945,63.8430493 L66.637945,57.1569507 L68.1256879,57.1569507 Z M74.8648902,57 C75.8672702,57 76.6691743,57.3348281 77.2706023,58.0044843 C77.8825816,58.6636771 78.1885713,59.5059791 78.1885713,60.5313901 C78.1885713,61.5254111 77.8825816,62.3520179 77.2706023,63.0112108 C76.6691743,63.6704036 75.8672702,64 74.8648902,64 C74.2212568,64 73.6462072,63.8535127 73.1397415,63.5605381 C72.6332758,63.2675635 72.2428752,62.8542601 71.9685396,62.3206278 C71.694204,61.7765321 71.5570362,61.1801196 71.5570362,60.5313901 C71.5570362,59.4955157 71.8577502,58.6479821 72.4591782,57.9887892 C73.0711576,57.3295964 73.8730616,57 74.8648902,57 Z M73.0289521,60.5313901 C73.0289521,61.190583 73.1872226,61.7294469 73.5037637,62.1479821 C73.8308561,62.5560538 74.284565,62.7600897 74.8648902,62.7600897 C75.4452155,62.7600897 75.8936487,62.5560538 76.2101897,62.1479821 C76.5372821,61.7399103 76.7008284,61.2010463 76.7008284,60.5313901 C76.7008284,59.8198804 76.5372821,59.2600897 76.2101897,58.8520179 C75.8936487,58.4334828 75.4452155,58.2242152 74.8648902,58.2242152 C74.284565,58.2242152 73.8308561,58.4334828 73.5037637,58.8520179 C73.1872226,59.2705531 73.0289521,59.8303438 73.0289521,60.5313901 Z M82.8633479,57.1569507 C83.412019,57.1569507 83.8710036,57.3295964 84.2403015,57.6748879 C84.6201507,58.0201794 84.8100754,58.4648729 84.8100754,59.0089686 C84.8100754,59.4275037 84.7203887,59.7780269 84.5410155,60.0605381 C84.3616422,60.3325859 84.0925823,60.5366218 83.7338358,60.6726457 L83.7338358,60.6883408 C84.0503768,60.7720478 84.2930583,60.9603886 84.4618802,61.2533632 C84.6307021,61.5463378 84.7256644,61.9962631 84.7467672,62.603139 C84.7573185,63.2100149 84.8417295,63.6233184 85,63.8430493 L83.5280841,63.8430493 C83.4331218,63.6233184 83.3698136,63.2727952 83.3381595,62.7914798 C83.295954,62.132287 83.1851646,61.7085202 83.0057914,61.5201794 C82.8369695,61.3318386 82.5679096,61.2376682 82.1986117,61.2376682 L80.6792146,61.2376682 L80.6792146,63.8430493 L79.1914716,63.8430493 L79.1914716,57.1569507 L82.8633479,57.1569507 Z M82.3410551,60.1860987 C82.6470448,60.1860987 82.8844506,60.112855 83.0532725,59.9663677 C83.2326458,59.809417 83.3223324,59.5635277 83.3223324,59.2286996 C83.3223324,58.9043348 83.2379215,58.6689088 83.0690996,58.5224215 C82.9002777,58.3759342 82.6575962,58.3026906 82.3410551,58.3026906 L80.6792146,58.3026906 L80.6792146,60.1860987 L82.3410551,60.1860987 Z" id="Shape" fill="#FFFFFF" fill-rule="nonzero"></path>
        <path d="M41.4599245,70.1569507 L41.4599245,71.396861 L39.4574307,71.396861 L39.4574307,76.8430493 L38.0024938,76.8430493 L38.0024938,71.396861 L36,71.396861 L36,70.1569507 L41.4599245,70.1569507 Z M43.1535162,70.1569507 L44.7179645,72.793722 L46.2667683,70.1569507 L47.8937945,70.1569507 L45.4219662,74.2690583 L45.4219662,76.8430493 L43.9670293,76.8430493 L43.9670293,74.2376682 L41.5108455,70.1569507 L43.1535162,70.1569507 Z M51.5107103,70.1569507 C52.2094972,70.1569507 52.762269,70.3557549 53.1690255,70.7533632 C53.5757821,71.1405082 53.7791603,71.6584454 53.7791603,72.3071749 C53.7791603,72.945441 53.5757821,73.4633782 53.1690255,73.8609865 C52.762269,74.2481315 52.2094972,74.441704 51.5107103,74.441704 L49.9306175,74.441704 L49.9306175,76.8430493 L48.4600362,76.8430493 L48.4600362,70.1569507 L51.5107103,70.1569507 Z M51.1039538,73.2959641 C51.5315696,73.2959641 51.8444593,73.2174888 52.0426227,73.0605381 C52.2512158,72.9035874 52.3555124,72.6524664 52.3555124,72.3071749 C52.3555124,71.9618834 52.2564307,71.7107623 52.0582672,71.5538117 C51.8601038,71.3863976 51.5472141,71.3026906 51.1195982,71.3026906 L49.9306175,71.3026906 L49.9306175,73.2959641 L51.1039538,73.2959641 Z M57.6776769,70 C58.6684941,70 59.4611479,70.3348281 60.0556383,71.0044843 C60.6605583,71.6636771 60.9630183,72.5059791 60.9630183,73.5313901 C60.9630183,74.5254111 60.6605583,75.3520179 60.0556383,76.0112108 C59.4611479,76.6704036 58.6684941,77 57.6776769,77 C57.0414679,77 56.4730517,76.8535127 55.9724282,76.5605381 C55.4718048,76.2675635 55.0859075,75.8542601 54.8147365,75.3206278 C54.5435655,74.7765321 54.4079799,74.1801196 54.4079799,73.5313901 C54.4079799,72.4955157 54.7052251,71.6479821 55.2997155,70.9887892 C55.9046355,70.3295964 56.6972893,70 57.6776769,70 Z M55.8629169,73.5313901 C55.8629169,74.190583 56.0193617,74.7294469 56.3322513,75.1479821 C56.6555707,75.5560538 57.1040458,75.7600897 57.6776769,75.7600897 C58.2513079,75.7600897 58.6945683,75.5560538 59.0074579,75.1479821 C59.3307772,74.7399103 59.4924369,74.2010463 59.4924369,73.5313901 C59.4924369,72.8198804 59.3307772,72.2600897 59.0074579,71.8520179 C58.6945683,71.4334828 58.2513079,71.2242152 57.6776769,71.2242152 C57.1040458,71.2242152 56.6555707,71.4334828 56.3322513,71.8520179 C56.0193617,72.2705531 55.8629169,72.8303438 55.8629169,73.5313901 Z M64.9424461,70 C65.6620923,70 66.2878716,70.2092676 66.819784,70.6278027 C67.3621261,71.0463378 67.6750158,71.6218236 67.758453,72.3542601 L66.3504495,72.3542601 C66.2565827,71.9775785 66.0844933,71.6950673 65.8341816,71.5067265 C65.5942995,71.3183857 65.2970544,71.2242152 64.9424461,71.2242152 C64.368815,71.2242152 63.9203399,71.4387145 63.5970206,71.867713 C63.2841309,72.2862481 63.1276861,72.8408072 63.1276861,73.5313901 C63.1276861,74.1801196 63.2841309,74.7137519 63.5970206,75.132287 C63.9099102,75.5508221 64.3583854,75.7600897 64.9424461,75.7600897 C65.4117806,75.7600897 65.7820333,75.6397608 66.0532044,75.3991031 C66.3243754,75.1584454 66.4860351,74.7974589 66.5381833,74.3161435 L65.0519575,74.3161435 L65.0519575,73.2174888 L67.8679644,73.2174888 L67.8679644,76.8430493 L66.9292954,76.8430493 L66.7728506,76.0896861 C66.5329685,76.3931241 66.2617975,76.6233184 65.9593375,76.7802691 C65.6568775,76.9267564 65.3179137,77 64.9424461,77 C64.3062371,77 63.7378209,76.8535127 63.2371974,76.5605381 C62.736574,76.2675635 62.3506767,75.8542601 62.0795057,75.3206278 C61.8083347,74.7765321 61.6727492,74.1801196 61.6727492,73.5313901 C61.6727492,72.4955157 61.9699943,71.6479821 62.5644847,70.9887892 C63.1694047,70.3295964 63.9620585,70 64.9424461,70 Z M72.6707746,70.1569507 C73.2131167,70.1569507 73.6668067,70.3295964 74.0318446,70.6748879 C74.4073122,71.0201794 74.595046,71.4648729 74.595046,72.0089686 C74.595046,72.4275037 74.5063939,72.7780269 74.3290898,73.0605381 C74.1517856,73.3325859 73.8858294,73.5366218 73.5312212,73.6726457 L73.5312212,73.6883408 C73.8441108,73.7720478 74.0839929,73.9603886 74.2508674,74.2533632 C74.4177418,74.5463378 74.5116087,74.9962631 74.5324681,75.603139 C74.5428977,76.2100149 74.626335,76.6233184 74.7827798,76.8430493 L73.3278429,76.8430493 C73.233976,76.6233184 73.171398,76.2727952 73.1401091,75.7914798 C73.0983905,75.132287 72.9888791,74.7085202 72.8115749,74.5201794 C72.6447005,74.3318386 72.3787442,74.2376682 72.0137063,74.2376682 L70.5118359,74.2376682 L70.5118359,76.8430493 L69.0412546,76.8430493 L69.0412546,70.1569507 L72.6707746,70.1569507 Z M72.1545067,73.1860987 C72.4569667,73.1860987 72.6916339,73.112855 72.8585084,72.9663677 C73.0358125,72.809417 73.1244646,72.5635277 73.1244646,72.2286996 C73.1244646,71.9043348 73.0410274,71.6689088 72.8741529,71.5224215 C72.7072784,71.3759342 72.4673963,71.3026906 72.1545067,71.3026906 L70.5118359,71.3026906 L70.5118359,73.1860987 L72.1545067,73.1860987 Z M79.1184099,70.1569507 L81.6058827,76.8430493 L80.0883678,76.8430493 L79.5877444,75.3520179 L77.0846271,75.3520179 L76.5683592,76.8430493 L75.0821333,76.8430493 L77.6165395,70.1569507 L79.1184099,70.1569507 Z M78.3361857,71.8049327 L77.4757392,74.2533632 L79.1966323,74.2533632 L78.3674747,71.8049327 L78.3361857,71.8049327 Z M85.2350973,70.1569507 C85.9338842,70.1569507 86.486656,70.3557549 86.8934125,70.7533632 C87.3001691,71.1405082 87.5035473,71.6584454 87.5035473,72.3071749 C87.5035473,72.945441 87.3001691,73.4633782 86.8934125,73.8609865 C86.486656,74.2481315 85.9338842,74.441704 85.2350973,74.441704 L83.6550045,74.441704 L83.6550045,76.8430493 L82.1844231,76.8430493 L82.1844231,70.1569507 L85.2350973,70.1569507 Z M84.8283408,73.2959641 C85.2559566,73.2959641 85.5688463,73.2174888 85.7670097,73.0605381 C85.9756028,72.9035874 86.0798994,72.6524664 86.0798994,72.3071749 C86.0798994,71.9618834 85.9808177,71.7107623 85.7826542,71.5538117 C85.5844908,71.3863976 85.2716011,71.3026906 84.8439852,71.3026906 L83.6550045,71.3026906 L83.6550045,73.2959641 L84.8283408,73.2959641 Z M89.884549,70.1569507 L89.884549,72.7152466 L92.5910446,72.7152466 L92.5910446,70.1569507 L94.0459815,70.1569507 L94.0459815,76.8430493 L92.5910446,76.8430493 L92.5910446,73.955157 L89.884549,73.955157 L89.884549,76.8430493 L88.4139676,76.8430493 L88.4139676,70.1569507 L89.884549,70.1569507 Z M96.2597217,70.1569507 L97.82417,72.793722 L99.3729738,70.1569507 L101,70.1569507 L98.5281717,74.2690583 L98.5281717,76.8430493 L97.0732348,76.8430493 L97.0732348,74.2376682 L94.617051,70.1569507 L96.2597217,70.1569507 Z" id="Shape" fill="#FFFFFF" fill-rule="nonzero"></path>
        <path d="M50.732819,83 C51.539053,83 52.1882284,83.1883408 52.6803453,83.5650224 C53.1724621,83.9312407 53.4185205,84.4596413 53.4185205,85.1502242 L51.9892876,85.1502242 C51.9683464,84.8153961 51.8531701,84.564275 51.6437587,84.396861 C51.4343473,84.2189836 51.1097596,84.1300448 50.6699956,84.1300448 C50.3768196,84.1300448 50.1307612,84.1980568 49.9318204,84.3340807 C49.7433501,84.4701046 49.6491149,84.6584454 49.6491149,84.8991031 C49.6491149,85.0665172 49.6857619,85.1920777 49.7590559,85.2757848 C49.8428205,85.3594918 50.0051144,85.4484305 50.2459375,85.5426009 C50.4972312,85.6263079 51.0364656,85.7675635 51.8636407,85.9663677 C52.418581,86.0919283 52.8531097,86.3168909 53.1672268,86.6412556 C53.4813439,86.9656203 53.6384025,87.3684604 53.6384025,87.8497758 C53.6384025,88.4985052 53.3923441,89.0216741 52.9002272,89.4192825 C52.418581,89.8064275 51.7379939,90 50.8584659,90 C50.0103496,90 49.3192919,89.7959641 48.7852928,89.3878924 C48.2617643,88.9693572 48,88.3938714 48,87.661435 L48,87.6300448 L49.4292329,87.6300448 C49.4292329,88.0381166 49.5653504,88.3467862 49.8375852,88.5560538 C50.1098201,88.754858 50.4658195,88.8542601 50.9055835,88.8542601 C51.3034652,88.8542601 51.6175823,88.7862481 51.8479349,88.6502242 C52.088758,88.5037369 52.2091696,88.2944694 52.2091696,88.0224215 C52.2091696,87.813154 52.1149344,87.6405082 51.9264641,87.5044843 C51.7484644,87.357997 51.4605237,87.2324365 51.062642,87.1278027 C50.549584,87.0127055 50.0836436,86.8923767 49.6648208,86.7668161 C49.245998,86.6412556 48.9004691,86.431988 48.6282343,86.1390135 C48.3559994,85.8460389 48.219882,85.4693572 48.219882,85.0089686 C48.219882,84.4125561 48.4607051,83.9312407 48.9423514,83.5650224 C49.4239977,83.1883408 50.0208202,83 50.732819,83 Z M57.5712931,83.1569507 C58.2728214,83.1569507 58.8277616,83.3557549 59.2361139,83.7533632 C59.6444662,84.1405082 59.8486423,84.6584454 59.8486423,85.3071749 C59.8486423,85.945441 59.6444662,86.4633782 59.2361139,86.8609865 C58.8277616,87.2481315 58.2728214,87.441704 57.5712931,87.441704 L55.9850016,87.441704 L55.9850016,89.8430493 L54.5086511,89.8430493 L54.5086511,83.1569507 L57.5712931,83.1569507 Z M57.1629409,86.2959641 C57.5922343,86.2959641 57.9063514,86.2174888 58.1052922,86.0605381 C58.3147037,85.9035874 58.4194094,85.6524664 58.4194094,85.3071749 C58.4194094,84.9618834 58.3199389,84.7107623 58.1209981,84.5538117 C57.9220573,84.3863976 57.6079401,84.3026906 57.1786467,84.3026906 L55.9850016,84.3026906 L55.9850016,86.2959641 L57.1629409,86.2959641 Z M63.4895634,83.1569507 L65.9867946,89.8430493 L64.4633265,89.8430493 L63.9607391,88.3520179 L61.4478021,88.3520179 L60.9295088,89.8430493 L59.4374524,89.8430493 L61.9818012,83.1569507 L63.4895634,83.1569507 Z M62.7042706,84.8049327 L61.8404485,87.2533632 L63.5680927,87.2533632 L62.7356823,84.8049327 L62.7042706,84.8049327 Z M69.3979257,83 C70.1622774,83 70.8114528,83.2144993 71.3454519,83.6434978 C71.8794511,84.0724963 72.1935682,84.6584454 72.2878033,85.4013453 L70.8585704,85.4013453 C70.795747,85.0455904 70.6229825,84.7630792 70.3402771,84.5538117 C70.0575717,84.3340807 69.7434546,84.2242152 69.3979257,84.2242152 C68.8220443,84.2242152 68.3718098,84.4334828 68.0472221,84.8520179 C67.7331049,85.2705531 67.5760464,85.8303438 67.5760464,86.5313901 C67.5760464,87.190583 67.7331049,87.7294469 68.0472221,88.1479821 C68.3718098,88.5560538 68.8220443,88.7600897 69.3979257,88.7600897 C69.8272191,88.7600897 70.172748,88.6292975 70.4345123,88.367713 C70.6962765,88.1061286 70.8585704,87.7399103 70.9213938,87.2690583 L72.3506268,87.2690583 C72.2668622,88.1165919 71.9579803,88.7862481 71.4239812,89.2780269 C70.8899821,89.7593423 70.2146303,90 69.3979257,90 C68.7592209,90 68.1885748,89.8535127 67.6859874,89.5605381 C67.1834,89.2675635 66.7959888,88.8542601 66.523754,88.3206278 C66.2515191,87.7765321 66.1154017,87.1801196 66.1154017,86.5313901 C66.1154017,85.4955157 66.413813,84.6479821 67.0106355,83.9887892 C67.6179287,83.3295964 68.4136921,83 69.3979257,83 Z M74.8243452,83.1569507 L74.8243452,89.8430493 L73.3479947,89.8430493 L73.3479947,83.1569507 L74.8243452,83.1569507 Z M77.5739436,83.1569507 L80.3695861,87.6457399 L80.3852919,87.6457399 L80.3852919,83.1569507 L81.7674073,83.1569507 L81.7674073,89.8430493 L80.3067627,89.8430493 L77.5111202,85.3699552 L77.4954143,85.3699552 L77.4954143,89.8430493 L76.113299,89.8430493 L76.113299,83.1569507 L77.5739436,83.1569507 Z M86.0630048,83 C86.7854742,83 87.4137085,83.2092676 87.9477076,83.6278027 C88.4921773,84.0463378 88.8062944,84.6218236 88.890059,85.3542601 L87.4765319,85.3542601 C87.3822968,84.9775785 87.2095324,84.6950673 86.9582386,84.5067265 C86.7174155,84.3183857 86.4190042,84.2242152 86.0630048,84.2242152 C85.4871234,84.2242152 85.0368889,84.4387145 84.7123012,84.867713 C84.398184,85.2862481 84.2411255,85.8408072 84.2411255,86.5313901 C84.2411255,87.1801196 84.398184,87.7137519 84.7123012,88.132287 C85.0264183,88.5508221 85.4766528,88.7600897 86.0630048,88.7600897 C86.5341805,88.7600897 86.9058858,88.6397608 87.1781206,88.3991031 C87.4503555,88.1584454 87.6126493,87.7974589 87.6650022,87.3161435 L86.1729458,87.3161435 L86.1729458,86.2174888 L89,86.2174888 L89,89.8430493 L88.0576486,89.8430493 L87.90059,89.0896861 C87.6597669,89.3931241 87.3875321,89.6233184 87.0838855,89.7802691 C86.7802389,89.9267564 86.4399454,90 86.0630048,90 C85.4243,90 84.8536539,89.8535127 84.3510665,89.5605381 C83.8484791,89.2675635 83.4610679,88.8542601 83.1888331,88.3206278 C82.9165982,87.7765321 82.7804808,87.1801196 82.7804808,86.5313901 C82.7804808,85.4955157 83.0788921,84.6479821 83.6757146,83.9887892 C84.2830078,83.3295964 85.0787711,83 86.0630048,83 Z" id="Shape" fill="#FFFFFF" fill-rule="nonzero"></path>
        <path d="M60.3010572,96 C61.0276056,96 61.6593869,96.2092676 62.196401,96.6278027 C62.7439447,97.0463378 63.0598354,97.6218236 63.1440729,98.3542601 L61.722565,98.3542601 C61.6277978,97.9775785 61.454058,97.6950673 61.2013455,97.5067265 C60.9591626,97.3183857 60.6590665,97.2242152 60.3010572,97.2242152 C59.7219243,97.2242152 59.2691477,97.4387145 58.9427274,97.867713 C58.6268368,98.2862481 58.4688915,98.8408072 58.4688915,99.5313901 C58.4688915,100.18012 58.6268368,100.713752 58.9427274,101.132287 C59.2586181,101.550822 59.7113946,101.76009 60.3010572,101.76009 C60.7748931,101.76009 61.148697,101.639761 61.4224689,101.399103 C61.6962408,101.158445 61.859451,100.797459 61.9120994,100.316143 L60.4116189,100.316143 L60.4116189,99.2174888 L63.2546346,99.2174888 L63.2546346,102.843049 L62.3069627,102.843049 L62.1490174,102.089686 C61.9068346,102.393124 61.6330627,102.623318 61.3277017,102.780269 C61.0223408,102.926756 60.6801259,103 60.3010572,103 C59.6587462,103 59.0848782,102.853513 58.5794532,102.560538 C58.0740282,102.267564 57.6844297,101.85426 57.4106578,101.320628 C57.1368859,100.776532 57,100.18012 57,99.5313901 C57,98.4955157 57.3000961,97.6479821 57.9002883,96.9887892 C58.5110102,96.3295964 59.3112665,96 60.3010572,96 Z M68.1035094,96.1569507 C68.6510532,96.1569507 69.1090946,96.3295964 69.4776337,96.6748879 C69.8567024,97.0201794 70.0462368,97.4648729 70.0462368,98.0089686 C70.0462368,98.4275037 69.9567345,98.7780269 69.7777298,99.0605381 C69.5987251,99.3325859 69.330218,99.5366218 68.9722086,99.6726457 L68.9722086,99.6883408 C69.2880993,99.7720478 69.5302821,99.9603886 69.6987571,100.253363 C69.8672321,100.546338 69.9619993,100.996263 69.9830587,101.603139 C69.9935884,102.210015 70.0778259,102.623318 70.2357712,102.843049 L68.7668797,102.843049 C68.6721125,102.623318 68.6089344,102.272795 68.5773453,101.79148 C68.5352266,101.132287 68.4246649,100.70852 68.2456602,100.520179 C68.0771852,100.331839 67.8086781,100.237668 67.440139,100.237668 L65.923864,100.237668 L65.923864,102.843049 L64.439178,102.843049 L64.439178,96.1569507 L68.1035094,96.1569507 Z M67.5822898,99.1860987 C67.8876508,99.1860987 68.1245688,99.112855 68.2930438,98.9663677 C68.4720485,98.809417 68.5615508,98.5635277 68.5615508,98.2286996 C68.5615508,97.9043348 68.4773133,97.6689088 68.3088383,97.5224215 C68.1403633,97.3759342 67.8981805,97.3026906 67.5822898,97.3026906 L65.923864,97.3026906 L65.923864,99.1860987 L67.5822898,99.1860987 Z M72.7334358,96.1569507 L72.7334358,102.843049 L71.2487498,102.843049 L71.2487498,96.1569507 L72.7334358,96.1569507 Z M76.9832444,96.1569507 C77.8782679,96.1569507 78.6048164,96.4499253 79.1628898,97.0358744 C79.7209633,97.6113602 80,98.422272 80,99.4686099 C80,100.504484 79.7262281,101.325859 79.1786843,101.932735 C78.6311406,102.539611 77.8993273,102.843049 76.9832444,102.843049 L74.029667,102.843049 L74.029667,96.1569507 L76.9832444,96.1569507 Z M76.8726827,101.603139 C77.3465187,101.603139 77.7361171,101.435725 78.0414781,101.100897 C78.3573687,100.766069 78.515314,100.263827 78.515314,99.5941704 C78.515314,98.8198804 78.3521038,98.2600897 78.0256835,97.9147982 C77.6992632,97.5695067 77.2254272,97.396861 76.6041757,97.396861 L75.514353,97.396861 L75.514353,101.603139 L76.8726827,101.603139 Z" id="Shape" fill="#FFFFFF" fill-rule="nonzero"></path>
        <path d="M55.467611,109.156951 L55.467611,115.843049 L54,115.843049 L54,109.156951 L55.467611,109.156951 Z M59.7309952,109 C60.4908222,109 61.1361547,109.214499 61.6669927,109.643498 C62.1978307,110.072496 62.5100884,110.658445 62.6037657,111.401345 L61.1829934,111.401345 C61.1205418,111.04559 60.9488001,110.763079 60.6677682,110.553812 C60.3867363,110.334081 60.0744787,110.224215 59.7309952,110.224215 C59.1585229,110.224215 58.7109535,110.433483 58.3882873,110.852018 C58.0760296,111.270553 57.9199008,111.830344 57.9199008,112.53139 C57.9199008,113.190583 58.0760296,113.729447 58.3882873,114.147982 C58.7109535,114.556054 59.1585229,114.76009 59.7309952,114.76009 C60.1577474,114.76009 60.5012308,114.629297 60.7614455,114.367713 C61.0216602,114.106129 61.1829934,113.73991 61.2454449,113.269058 L62.6662172,113.269058 C62.5829485,114.116592 62.2758952,114.786248 61.7450571,115.278027 C61.2142191,115.759342 60.5428652,116 59.7309952,116 C59.0960713,116 58.5288032,115.853513 58.029191,115.560538 C57.5295787,115.267564 57.1444609,114.85426 56.8738376,114.320628 C56.6032143,113.776532 56.4679027,113.18012 56.4679027,112.53139 C56.4679027,111.495516 56.7645475,110.647982 57.357837,109.988789 C57.9615352,109.329596 58.7525879,109 59.7309952,109 Z M66.6397417,109 C67.6285577,109 68.4196104,109.334828 69.0128999,110.004484 C69.6165981,110.663677 69.9184472,111.505979 69.9184472,112.53139 C69.9184472,113.525411 69.6165981,114.352018 69.0128999,115.011211 C68.4196104,115.670404 67.6285577,116 66.6397417,116 C66.0048178,116 65.4375497,115.853513 64.9379375,115.560538 C64.4383252,115.267564 64.0532074,114.85426 63.7825841,114.320628 C63.5119608,113.776532 63.3766492,113.18012 63.3766492,112.53139 C63.3766492,111.495516 63.673294,110.647982 64.2665835,109.988789 C64.8702817,109.329596 65.6613344,109 66.6397417,109 Z M64.8286473,112.53139 C64.8286473,113.190583 64.9847761,113.729447 65.2970338,114.147982 C65.6197,114.556054 66.0672694,114.76009 66.6397417,114.76009 C67.2122141,114.76009 67.6545791,114.556054 67.9668368,114.147982 C68.289503,113.73991 68.4508362,113.201046 68.4508362,112.53139 C68.4508362,111.81988 68.289503,111.26009 67.9668368,110.852018 C67.6545791,110.433483 67.2122141,110.224215 66.6397417,110.224215 C66.0672694,110.224215 65.6197,110.433483 65.2970338,110.852018 C64.9847761,111.270553 64.8286473,111.830344 64.8286473,112.53139 Z M72.3597745,109.156951 L75.1388676,113.64574 L75.1544805,113.64574 L75.1544805,109.156951 L76.5284142,109.156951 L76.5284142,115.843049 L75.0764161,115.843049 L72.2973229,111.369955 L72.2817101,111.369955 L72.2817101,115.843049 L70.9077763,115.843049 L70.9077763,109.156951 L72.3597745,109.156951 Z M80.1116166,109 C80.913078,109 81.5584105,109.188341 82.0476141,109.565022 C82.5368178,109.931241 82.7814196,110.459641 82.7814196,111.150224 L81.3606473,111.150224 C81.3398301,110.815396 81.2253356,110.564275 81.0171639,110.396861 C80.8089921,110.218984 80.4863258,110.130045 80.0491651,110.130045 C79.7577246,110.130045 79.5131228,110.198057 79.3153596,110.334081 C79.128005,110.470105 79.0343277,110.658445 79.0343277,110.899103 C79.0343277,111.066517 79.0707578,111.192078 79.1436179,111.275785 C79.2268866,111.359492 79.3882197,111.44843 79.6276173,111.542601 C79.8774234,111.626308 80.4134657,111.767564 81.2357442,111.966368 C81.7873994,112.091928 82.2193558,112.316891 82.5316135,112.641256 C82.8438712,112.96562 83,113.36846 83,113.849776 C83,114.498505 82.7553982,115.021674 82.2661945,115.419283 C81.7873994,115.806428 81.1108412,116 80.2365197,116 C79.393424,116 78.7064572,115.795964 78.1756192,115.387892 C77.6551897,114.969357 77.394975,114.393871 77.394975,113.661435 L77.394975,113.630045 L78.8157474,113.630045 C78.8157474,114.038117 78.951059,114.346786 79.2216823,114.556054 C79.4923056,114.754858 79.8461976,114.85426 80.2833584,114.85426 C80.6788847,114.85426 80.9911424,114.786248 81.2201313,114.650224 C81.4595289,114.503737 81.5792276,114.294469 81.5792276,114.022422 C81.5792276,113.813154 81.4855503,113.640508 81.2981958,113.504484 C81.1212497,113.357997 80.8350136,113.232436 80.4394872,113.127803 C79.9294663,113.012706 79.4662841,112.892377 79.0499406,112.766816 C78.6335971,112.641256 78.2901136,112.431988 78.0194903,112.139013 C77.748867,111.846039 77.6135554,111.469357 77.6135554,111.008969 C77.6135554,110.412556 77.8529529,109.931241 78.331748,109.565022 C78.8105431,109.188341 79.4038326,109 80.1116166,109 Z" id="Shape" fill="#FFFFFF" fill-rule="nonzero"></path>
        <polygon id="Path" fill="#8A8D8F" points="788 1 924 1 924 24 788 24"></polygon>
        <polygon id="Path" fill="#E1E9EE" points="798 34 913 34 913 57 798 57"></polygon>
        <line x1="876" y1="46.5" x2="906" y2="46.5" id="Path" fill-opacity="0" fill="#000000"></line>
        <line x1="876" y1="46.5" x2="906" y2="46.5" id="Path" stroke="#D44527" stroke-width="8" stroke-linejoin="round"></line>
        <polygon id="Path" fill="#EEEEEE" points="808 89 840 89 840 135 808 135"></polygon>
        <polygon id="Path" stroke="#8A8D8F" stroke-linejoin="round" points="808 89 840 89 840 135 808 135"></polygon>
        <polygon id="Path" fill="#BFBFBF" points="813 94 834 94 834 110 813 110"></polygon>
        <polygon id="Path" fill="#BFBFBF" points="813 115 834 115 834 131 813 131"></polygon>
        <line x1="808" y1="77.5" x2="903" y2="77.5" id="Path" fill-opacity="0" fill="#000000"></line>
        <line x1="808" y1="77.5" x2="903" y2="77.5" id="Path" stroke="#8A8D8F" stroke-width="8" stroke-linejoin="round"></line>
        <polygon id="Path" fill="#EEEEEE" points="839 89 871 89 871 135 839 135"></polygon>
        <polygon id="Path" stroke="#8A8D8F" stroke-linejoin="round" points="839 89 871 89 871 135 839 135"></polygon>
        <polygon id="Path" fill="#BFBFBF" points="845 94 866 94 866 110 845 110"></polygon>
        <polygon id="Path" fill="#BFBFBF" points="845 115 866 115 866 131 845 131"></polygon>
        <polygon id="Path" fill="#EEEEEE" points="871 89 903 89 903 135 871 135"></polygon>
        <polygon id="Path" stroke="#8A8D8F" stroke-linejoin="round" points="871 89 903 89 903 135 871 135"></polygon>
        <polygon id="Path" fill="#BFBFBF" points="876 94 897 94 897 110 876 110"></polygon>
        <polygon id="Path" fill="#BFBFBF" points="876 115 897 115 897 131 876 131"></polygon>
        <polygon id="Path" fill="#E1E9EE" points="591 66 706 66 706 158 591 158"></polygon>
        <line x1="634" y1="146.5" x2="664" y2="146.5" id="Path" fill-opacity="0" fill="#000000"></line>
        <line x1="634" y1="146.5" x2="664" y2="146.5" id="Path" stroke="#D44527" stroke-width="8" stroke-linejoin="round"></line>
        <polygon id="Path" fill="#EEEEEE" points="601 89 633 89 633 135 601 135"></polygon>
        <polygon id="Path" stroke="#8A8D8F" stroke-linejoin="round" points="601 89 633 89 633 135 601 135"></polygon>
        <polygon id="Path" fill="#BFBFBF" points="606 94 627 94 627 110 606 110"></polygon>
        <polygon id="Path" fill="#BFBFBF" points="606 115 627 115 627 131 606 131"></polygon>
        <line x1="602" y1="77.5" x2="697" y2="77.5" id="Path" fill-opacity="0" fill="#000000"></line>
        <line x1="602" y1="77.5" x2="697" y2="77.5" id="Path" stroke="#8A8D8F" stroke-width="8" stroke-linejoin="round"></line>
        <polygon id="Path" fill="#EEEEEE" points="633 89 665 89 665 135 633 135"></polygon>
        <polygon id="Path" stroke="#8A8D8F" stroke-linejoin="round" points="633 89 665 89 665 135 633 135"></polygon>
        <polygon id="Path" fill="#BFBFBF" points="638 94 659 94 659 110 638 110"></polygon>
        <polygon id="Path" fill="#BFBFBF" points="638 115 659 115 659 131 638 131"></polygon>
        <polygon id="Path" fill="#EEEEEE" points="665 89 697 89 697 135 665 135"></polygon>
        <polygon id="Path" stroke="#8A8D8F" stroke-linejoin="round" points="665 89 697 89 697 135 665 135"></polygon>
        <polygon id="Path" fill="#BFBFBF" points="670 94 691 94 691 110 670 110"></polygon>
        <polygon id="Path" fill="#BFBFBF" points="670 115 691 115 691 131 670 131"></polygon>
        <line x1="393" y1="77.5" x2="488" y2="77.5" id="Path" fill-opacity="0" fill="#000000"></line>
        <line x1="393" y1="77.5" x2="488" y2="77.5" id="Path" stroke="#8A8D8F" stroke-width="8" stroke-linejoin="round"></line>
        <polygon id="Path" fill="#EEEEEE" points="393 89 425 89 425 135 393 135"></polygon>
        <polygon id="Path" stroke="#8A8D8F" stroke-linejoin="round" points="393 89 425 89 425 135 393 135"></polygon>
        <polygon id="Path" fill="#BFBFBF" points="398 94 419 94 419 110 398 110"></polygon>
        <polygon id="Path" fill="#BFBFBF" points="398 115 419 115 419 131 398 131"></polygon>
        <line x1="195" y1="146.5" x2="225" y2="146.5" id="Path" fill-opacity="0" fill="#000000"></line>
        <line x1="195" y1="146.5" x2="225" y2="146.5" id="Path" stroke="#D44527" stroke-width="8" stroke-linejoin="round"></line>
        <polygon id="Path" fill="#BFBFBF" points="195 115 216 115 216 131 195 131"></polygon>
        <line x1="156" y1="34.5" x2="763" y2="34.5" id="Path" fill-opacity="0" fill="#000000"></line>
        <line x1="156" y1="34.5" x2="763" y2="34.5" id="Path" stroke="#262626" stroke-width="2" stroke-linejoin="round" stroke-dasharray="2,6"></line>
        <line x1="156" y1="75.5" x2="378" y2="75.5" id="Path" fill-opacity="0" fill="#000000"></line>
        <line x1="156" y1="75.5" x2="378" y2="75.5" id="Path" stroke="#262626" stroke-width="2" stroke-linejoin="round" stroke-dasharray="2,6"></line>
        <line x1="504" y1="75.5" x2="577" y2="75.5" id="Path" fill-opacity="0" fill="#000000"></line>
        <line x1="504" y1="75.5" x2="577" y2="75.5" id="Path" stroke="#262626" stroke-width="2" stroke-linejoin="round" stroke-dasharray="2,6"></line>
        <line x1="156" y1="122.5" x2="178" y2="122.5" id="Path" fill-opacity="0" fill="#000000"></line>
        <line x1="156" y1="122.5" x2="178" y2="122.5" id="Path" stroke="#262626" stroke-width="2" stroke-linejoin="round" stroke-dasharray="2,6"></line>
        <line x1="232" y1="122.5" x2="378" y2="122.5" id="Path" fill-opacity="0" fill="#000000"></line>
        <line x1="232" y1="122.5" x2="378" y2="122.5" id="Path" stroke="#262626" stroke-width="2" stroke-linejoin="round" stroke-dasharray="2,6"></line>
        <line x1="435" y1="122.5" x2="581" y2="122.5" id="Path" fill-opacity="0" fill="#000000"></line>
        <line x1="435" y1="122.5" x2="581" y2="122.5" id="Path" stroke="#262626" stroke-width="2" stroke-linejoin="round" stroke-dasharray="2,6"></line>
        <line x1="156" y1="147.5" x2="178" y2="147.5" id="Path" fill-opacity="0" fill="#000000"></line>
        <line x1="156" y1="147.5" x2="178" y2="147.5" id="Path" stroke="#262626" stroke-width="2" stroke-linejoin="round" stroke-dasharray="2,6"></line>
        <line x1="237" y1="147.5" x2="571" y2="147.5" id="Path" fill-opacity="0" fill="#000000"></line>
        <line x1="237" y1="147.5" x2="571" y2="147.5" id="Path" stroke="#262626" stroke-width="2" stroke-linejoin="round" stroke-dasharray="2,6"></line>
        <line x1="716" y1="114.5" x2="772" y2="114.5" id="Path" fill-opacity="0" fill="#000000"></line>
        <line x1="716" y1="114.5" x2="772" y2="114.5" id="Path" stroke="#262626" stroke-width="2" stroke-linejoin="round" stroke-dasharray="2,6"></line>
        <text id="Design-Tokens" font-family="SFCompactDisplay-Semibold, SF Compact Display" font-size="16" font-weight="500" letter-spacing="0.16" fill="#000000">
            <tspan x="15.1123438" y="197">Design Tokens</tspan>
        </text>
        <text id="Elements" font-family="SFCompactDisplay-Semibold, SF Compact Display" font-size="16" font-weight="500" letter-spacing="0.16" fill="#000000">
            <tspan x="227.067031" y="197">Elements</tspan>
        </text>
        <text id="Patterns" font-family="SFCompactDisplay-Semibold, SF Compact Display" font-size="16" font-weight="500" letter-spacing="0.16" fill="#000000">
            <tspan x="408.824844" y="197">Patterns</tspan>
        </text>
        <text id="Features" font-family="SFCompactDisplay-Semibold, SF Compact Display" font-size="16" font-weight="500" letter-spacing="0.16" fill="#000000">
            <tspan x="615.613906" y="197">Features</tspan>
        </text>
        <text id="Layouts" font-family="SFCompactDisplay-Semibold, SF Compact Display" font-size="16" font-weight="500" letter-spacing="0.16" fill="#000000">
            <tspan x="827.057188" y="197">Layouts</tspan>
        </text>
    </g>
</svg>