<?xml version="1.0" encoding="UTF-8" standalone="no"?>
<svg
   xmlns:svg="http://www.w3.org/2000/svg"
   xmlns="http://www.w3.org/2000/svg"
   version="1.0"
   width="136"
   height="126"
   id="svg2">
  <defs
     id="defs4" />
  <g
     transform="translate(-14.828488,-233.63904)"
     id="layer1">
    <g
       transform="matrix(0.2326949,0,0,0.2326949,0.4836773,190.36074)"
       id="g2384"
       style="display:inline">
      <path
         d="M 355.02537,715.37104 C 335.03593,715.37104 324.76188,702.33533 324.76188,702.33533 C 308.33331,701.62104 179.94045,701.97818 179.94045,701.97818 L 167.44045,596.46933 C 167.44045,596.46933 88.360125,540.72818 81.931554,534.29961 C 43.972263,362.09404 181.17751,197.92475 355.03065,197.92475 C 528.88379,197.92475 666.08904,362.09404 628.12975,534.29961 C 621.70117,540.72818 542.62085,596.46933 542.62085,596.46933 L 530.12085,701.97818 C 530.12085,701.97818 401.72799,701.62104 385.29942,702.33533 C 385.29942,702.33533 375.02537,715.37104 355.02537,715.37104 z"
         id="Red part"
         style="fill:#ed1c24;fill-opacity:1;fill-rule:evenodd;stroke:none;stroke-width:1px;stroke-linecap:butt;stroke-linejoin:miter;stroke-opacity:1" />
      <path
         d="M 355.2112,554.91135 L 343.07983,250.34962 C 328.44892,247.36372 291.12518,250.94681 271.11966,265.8763 L 329.3447,556.10571 C 329.3447,556.10571 249.91977,277.8199 249.91977,277.8199 C 230.8796,277.58651 192.45851,309.78015 189.60461,319.3239 L 305.4575,566.25777 C 305.4575,566.25777 175.27229,340.52378 175.27229,340.52378 C 162.43292,345.30122 134.36547,396.95728 138.84432,402.95936 C 138.84432,402.95936 283.95903,580.59009 283.95903,580.59009 L 134.66406,428.9064 C 134.66406,428.9064 115.25571,458.46681 127.91248,508.53689 L 212.24117,569.43546 L 222.79862,652.63525 L 326.18883,652.63525 C 326.18883,652.63525 343.1038,668.66855 355.1056,668.66855 C 367.1074,668.66855 384.02237,652.63525 384.02237,652.63525 L 487.41258,652.63525 L 497.97003,569.43546 L 582.29872,508.53689 C 594.95549,458.46681 575.54714,428.9064 575.54714,428.9064 L 426.25217,580.59009 C 426.25217,580.59009 571.36688,402.95936 571.36688,402.95936 C 575.84573,396.95728 547.77828,345.30122 534.93891,340.52378 C 534.93891,340.52378 404.7537,566.25777 404.7537,566.25777 L 520.60659,319.3239 C 517.75269,309.78015 479.3316,277.58651 460.29143,277.8199 C 460.29143,277.8199 380.8665,556.10571 380.8665,556.10571 L 439.09154,265.8763 C 419.08602,250.94681 381.76228,247.36372 367.13137,250.34962 L 355.2112,554.91135 z"
         id="Yellow part"
         style="fill:#ffd500;fill-opacity:1;fill-rule:evenodd;stroke:none;stroke-width:1px;stroke-linecap:butt;stroke-linejoin:miter;stroke-opacity:1" />
    </g>
  </g>
</svg>
